<svg width="199" height="61" viewBox="0 0 199 61" fill="none" xmlns="http://www.w3.org/2000/svg">
<path d="M69.875 45V27.5H80.7V29.225H71.975V35.325H79.95V37.025H71.975V43.275H80.7V45H69.875ZM83.8857 45V32.4H85.7857L85.9357 34.8C86.2191 34.2333 86.5774 33.75 87.0107 33.35C87.4607 32.95 87.9941 32.6417 88.6107 32.425C89.2441 32.2083 89.9607 32.1 90.7607 32.1V34.3H89.9857C89.4524 34.3 88.9441 34.375 88.4607 34.525C87.9774 34.6583 87.5441 34.8833 87.1607 35.2C86.7941 35.5167 86.5024 35.95 86.2857 36.5C86.0857 37.0333 85.9857 37.7 85.9857 38.5V45H83.8857ZM93.3387 45V32.4H95.4387V45H93.3387ZM94.3887 29.725C93.972 29.725 93.622 29.5917 93.3387 29.325C93.072 29.0417 92.9387 28.6917 92.9387 28.275C92.9387 27.8583 93.072 27.525 93.3387 27.275C93.622 27.0083 93.972 26.875 94.3887 26.875C94.7887 26.875 95.1303 27.0083 95.4137 27.275C95.697 27.525 95.8387 27.8583 95.8387 28.275C95.8387 28.6917 95.697 29.0417 95.4137 29.325C95.1303 29.5917 94.7887 29.725 94.3887 29.725ZM104.82 45.3C103.636 45.3 102.57 45.025 101.62 44.475C100.686 43.925 99.9529 43.1583 99.4195 42.175C98.8862 41.175 98.6195 40.025 98.6195 38.725C98.6195 37.3917 98.8862 36.2333 99.4195 35.25C99.9529 34.2667 100.686 33.5 101.62 32.95C102.57 32.3833 103.636 32.1 104.82 32.1C106.32 32.1 107.57 32.4917 108.57 33.275C109.57 34.0417 110.203 35.075 110.47 36.375H108.32C108.153 35.5917 107.745 34.9833 107.095 34.55C106.445 34.1167 105.678 33.9 104.795 33.9C104.078 33.9 103.411 34.0833 102.795 34.45C102.178 34.8 101.686 35.3333 101.32 36.05C100.953 36.7667 100.77 37.65 100.77 38.7C100.77 39.4833 100.878 40.1833 101.095 40.8C101.311 41.4 101.603 41.9 101.97 42.3C102.336 42.7 102.761 43.0083 103.245 43.225C103.745 43.425 104.261 43.525 104.795 43.525C105.395 43.525 105.936 43.4333 106.42 43.25C106.903 43.05 107.311 42.7583 107.645 42.375C107.978 41.9917 108.203 41.5417 108.32 41.025H110.47C110.203 42.2917 109.561 43.325 108.545 44.125C107.545 44.9083 106.303 45.3 104.82 45.3Z" fill="#00EAFF"/>
<path d="M125.467 45L118.892 27.5H121.167L126.692 42.775L132.267 27.5H134.492L127.917 45H125.467ZM140.705 45.3C139.521 45.3 138.471 45.025 137.555 44.475C136.655 43.925 135.946 43.1583 135.43 42.175C134.913 41.175 134.655 40.0167 134.655 38.7C134.655 37.3667 134.905 36.2083 135.405 35.225C135.921 34.2417 136.638 33.475 137.555 32.925C138.488 32.375 139.555 32.1 140.755 32.1C141.988 32.1 143.03 32.375 143.88 32.925C144.746 33.475 145.405 34.2 145.855 35.1C146.321 35.9833 146.555 36.9583 146.555 38.025C146.555 38.1917 146.555 38.3667 146.555 38.55C146.555 38.7333 146.546 38.9417 146.53 39.175H136.23V37.55H144.505C144.455 36.4 144.071 35.5 143.355 34.85C142.655 34.2 141.771 33.875 140.705 33.875C139.988 33.875 139.321 34.0417 138.705 34.375C138.105 34.6917 137.621 35.1667 137.255 35.8C136.888 36.4167 136.705 37.1917 136.705 38.125V38.825C136.705 39.8583 136.888 40.725 137.255 41.425C137.638 42.125 138.13 42.65 138.73 43C139.346 43.35 140.005 43.525 140.705 43.525C141.588 43.525 142.313 43.3333 142.88 42.95C143.463 42.55 143.88 42.0167 144.13 41.35H146.205C146.005 42.1 145.655 42.775 145.155 43.375C144.655 43.975 144.03 44.45 143.28 44.8C142.546 45.1333 141.688 45.3 140.705 45.3ZM149.389 45V32.4H151.289L151.439 34.8C151.722 34.2333 152.08 33.75 152.514 33.35C152.964 32.95 153.497 32.6417 154.114 32.425C154.747 32.2083 155.464 32.1 156.264 32.1V34.3H155.489C154.955 34.3 154.447 34.375 153.964 34.525C153.48 34.6583 153.047 34.8833 152.664 35.2C152.297 35.5167 152.005 35.95 151.789 36.5C151.589 37.0333 151.489 37.7 151.489 38.5V45H149.389ZM163.728 45.3C162.511 45.3 161.444 45.0167 160.528 44.45C159.611 43.8667 158.903 43.075 158.403 42.075C157.903 41.075 157.653 39.9417 157.653 38.675C157.653 37.4083 157.903 36.2833 158.403 35.3C158.903 34.3 159.611 33.5167 160.528 32.95C161.461 32.3833 162.536 32.1 163.753 32.1C164.786 32.1 165.686 32.3083 166.453 32.725C167.236 33.1417 167.836 33.725 168.253 34.475V27H170.353V45H168.453L168.278 42.925C168.011 43.3417 167.669 43.7333 167.253 44.1C166.836 44.45 166.336 44.7417 165.753 44.975C165.169 45.1917 164.494 45.3 163.728 45.3ZM163.978 43.475C164.811 43.475 165.544 43.275 166.178 42.875C166.811 42.475 167.303 41.925 167.653 41.225C168.003 40.5083 168.178 39.6667 168.178 38.7C168.178 37.75 168.003 36.9167 167.653 36.2C167.303 35.4833 166.811 34.925 166.178 34.525C165.544 34.125 164.811 33.925 163.978 33.925C163.161 33.925 162.436 34.125 161.803 34.525C161.169 34.925 160.678 35.4833 160.328 36.2C159.978 36.9167 159.803 37.75 159.803 38.7C159.803 39.6667 159.978 40.5083 160.328 41.225C160.678 41.925 161.169 42.475 161.803 42.875C162.436 43.275 163.161 43.475 163.978 43.475ZM179.377 45.3C178.193 45.3 177.143 45.025 176.227 44.475C175.327 43.925 174.618 43.1583 174.102 42.175C173.585 41.175 173.327 40.0167 173.327 38.7C173.327 37.3667 173.577 36.2083 174.077 35.225C174.593 34.2417 175.31 33.475 176.227 32.925C177.16 32.375 178.227 32.1 179.427 32.1C180.66 32.1 181.702 32.375 182.552 32.925C183.418 33.475 184.077 34.2 184.527 35.1C184.993 35.9833 185.227 36.9583 185.227 38.025C185.227 38.1917 185.227 38.3667 185.227 38.55C185.227 38.7333 185.218 38.9417 185.202 39.175H174.902V37.55H183.177C183.127 36.4 182.743 35.5 182.027 34.85C181.327 34.2 180.443 33.875 179.377 33.875C178.66 33.875 177.993 34.0417 177.377 34.375C176.777 34.6917 176.293 35.1667 175.927 35.8C175.56 36.4167 175.377 37.1917 175.377 38.125V38.825C175.377 39.8583 175.56 40.725 175.927 41.425C176.31 42.125 176.802 42.65 177.402 43C178.018 43.35 178.677 43.525 179.377 43.525C180.26 43.525 180.985 43.3333 181.552 42.95C182.135 42.55 182.552 42.0167 182.802 41.35H184.877C184.677 42.1 184.327 42.775 183.827 43.375C183.327 43.975 182.702 44.45 181.952 44.8C181.218 45.1333 180.36 45.3 179.377 45.3ZM192.811 45.3C191.761 45.3 190.844 45.125 190.061 44.775C189.294 44.425 188.677 43.9417 188.211 43.325C187.761 42.6917 187.486 41.95 187.386 41.1H189.536C189.619 41.5333 189.794 41.9333 190.061 42.3C190.327 42.6667 190.686 42.9667 191.136 43.2C191.602 43.4167 192.169 43.525 192.836 43.525C193.419 43.525 193.902 43.4417 194.286 43.275C194.669 43.0917 194.952 42.85 195.136 42.55C195.336 42.25 195.436 41.925 195.436 41.575C195.436 41.0583 195.311 40.6667 195.061 40.4C194.827 40.1333 194.477 39.925 194.011 39.775C193.544 39.6083 192.977 39.4667 192.311 39.35C191.761 39.25 191.219 39.1167 190.686 38.95C190.152 38.7833 189.677 38.5667 189.261 38.3C188.844 38.0167 188.511 37.675 188.261 37.275C188.027 36.875 187.911 36.3833 187.911 35.8C187.911 35.0833 188.094 34.45 188.461 33.9C188.827 33.3333 189.352 32.8917 190.036 32.575C190.736 32.2583 191.544 32.1 192.461 32.1C193.811 32.1 194.902 32.425 195.736 33.075C196.569 33.725 197.061 34.6667 197.211 35.9H195.136C195.052 35.2667 194.777 34.775 194.311 34.425C193.861 34.0583 193.236 33.875 192.436 33.875C191.652 33.875 191.052 34.0333 190.636 34.35C190.236 34.6667 190.036 35.0833 190.036 35.6C190.036 35.9333 190.144 36.2333 190.361 36.5C190.594 36.75 190.927 36.9667 191.361 37.15C191.811 37.3333 192.361 37.4833 193.011 37.6C193.844 37.75 194.602 37.95 195.286 38.2C195.969 38.45 196.519 38.825 196.936 39.325C197.369 39.8083 197.586 40.5 197.586 41.4C197.586 42.1833 197.386 42.8667 196.986 43.45C196.602 44.0333 196.052 44.4917 195.336 44.825C194.619 45.1417 193.777 45.3 192.811 45.3Z" fill="white"/>
<path d="M36.6675 3C-1.36814 28.364 -12.0821 41.44 36.6675 57.446" stroke="#00EAFF" stroke-width="7"/>
<line x1="3.83352" y1="35.1414" x2="24.622" y2="34.1515" stroke="#00EAFF" stroke-width="7"/>
<line y1="-3.5" x2="34.5341" y2="-3.5" transform="matrix(0.458642 0.888621 -0.88862 0.458644 24.7886 24.7784)" stroke="white" stroke-width="7"/>
<path d="M43.1785 51.435C51.2682 33.0403 49.483 1.65002 67.9266 17.7774" stroke="white" stroke-width="7"/>
<circle cx="60.5" cy="26.5" r="3.5" fill="white"/>
</svg>
