<svg width="198" height="46" viewBox="0 0 198 46" fill="none" xmlns="http://www.w3.org/2000/svg">
<path d="M68.875 32V14.5H79.7V16.225H70.975V22.325H78.95V24.025H70.975V30.275H79.7V32H68.875ZM82.8857 32V19.4H84.7857L84.9357 21.8C85.2191 21.2333 85.5774 20.75 86.0107 20.35C86.4607 19.95 86.9941 19.6417 87.6107 19.425C88.2441 19.2083 88.9607 19.1 89.7607 19.1V21.3H88.9857C88.4524 21.3 87.9441 21.375 87.4607 21.525C86.9774 21.6583 86.5441 21.8833 86.1607 22.2C85.7941 22.5167 85.5024 22.95 85.2857 23.5C85.0857 24.0333 84.9857 24.7 84.9857 25.5V32H82.8857ZM92.3387 32V19.4H94.4387V32H92.3387ZM93.3887 16.725C92.972 16.725 92.622 16.5917 92.3387 16.325C92.072 16.0417 91.9387 15.6917 91.9387 15.275C91.9387 14.8583 92.072 14.525 92.3387 14.275C92.622 14.0083 92.972 13.875 93.3887 13.875C93.7887 13.875 94.1303 14.0083 94.4137 14.275C94.697 14.525 94.8387 14.8583 94.8387 15.275C94.8387 15.6917 94.697 16.0417 94.4137 16.325C94.1303 16.5917 93.7887 16.725 93.3887 16.725ZM103.82 32.3C102.636 32.3 101.57 32.025 100.62 31.475C99.6862 30.925 98.9529 30.1583 98.4195 29.175C97.8862 28.175 97.6195 27.025 97.6195 25.725C97.6195 24.3917 97.8862 23.2333 98.4195 22.25C98.9529 21.2667 99.6862 20.5 100.62 19.95C101.57 19.3833 102.636 19.1 103.82 19.1C105.32 19.1 106.57 19.4917 107.57 20.275C108.57 21.0417 109.203 22.075 109.47 23.375H107.32C107.153 22.5917 106.745 21.9833 106.095 21.55C105.445 21.1167 104.678 20.9 103.795 20.9C103.078 20.9 102.411 21.0833 101.795 21.45C101.178 21.8 100.686 22.3333 100.32 23.05C99.9529 23.7667 99.7695 24.65 99.7695 25.7C99.7695 26.4833 99.8779 27.1833 100.095 27.8C100.311 28.4 100.603 28.9 100.97 29.3C101.336 29.7 101.761 30.0083 102.245 30.225C102.745 30.425 103.261 30.525 103.795 30.525C104.395 30.525 104.936 30.4333 105.42 30.25C105.903 30.05 106.311 29.7583 106.645 29.375C106.978 28.9917 107.203 28.5417 107.32 28.025H109.47C109.203 29.2917 108.561 30.325 107.545 31.125C106.545 31.9083 105.303 32.3 103.82 32.3Z" fill="#00EAFF"/>
<path d="M124.467 32L117.892 14.5H120.167L125.692 29.775L131.267 14.5H133.492L126.917 32H124.467ZM139.705 32.3C138.521 32.3 137.471 32.025 136.555 31.475C135.655 30.925 134.946 30.1583 134.43 29.175C133.913 28.175 133.655 27.0167 133.655 25.7C133.655 24.3667 133.905 23.2083 134.405 22.225C134.921 21.2417 135.638 20.475 136.555 19.925C137.488 19.375 138.555 19.1 139.755 19.1C140.988 19.1 142.03 19.375 142.88 19.925C143.746 20.475 144.405 21.2 144.855 22.1C145.321 22.9833 145.555 23.9583 145.555 25.025C145.555 25.1917 145.555 25.3667 145.555 25.55C145.555 25.7333 145.546 25.9417 145.53 26.175H135.23V24.55H143.505C143.455 23.4 143.071 22.5 142.355 21.85C141.655 21.2 140.771 20.875 139.705 20.875C138.988 20.875 138.321 21.0417 137.705 21.375C137.105 21.6917 136.621 22.1667 136.255 22.8C135.888 23.4167 135.705 24.1917 135.705 25.125V25.825C135.705 26.8583 135.888 27.725 136.255 28.425C136.638 29.125 137.13 29.65 137.73 30C138.346 30.35 139.005 30.525 139.705 30.525C140.588 30.525 141.313 30.3333 141.88 29.95C142.463 29.55 142.88 29.0167 143.13 28.35H145.205C145.005 29.1 144.655 29.775 144.155 30.375C143.655 30.975 143.03 31.45 142.28 31.8C141.546 32.1333 140.688 32.3 139.705 32.3ZM148.389 32V19.4H150.289L150.439 21.8C150.722 21.2333 151.08 20.75 151.514 20.35C151.964 19.95 152.497 19.6417 153.114 19.425C153.747 19.2083 154.464 19.1 155.264 19.1V21.3H154.489C153.955 21.3 153.447 21.375 152.964 21.525C152.48 21.6583 152.047 21.8833 151.664 22.2C151.297 22.5167 151.005 22.95 150.789 23.5C150.589 24.0333 150.489 24.7 150.489 25.5V32H148.389ZM162.728 32.3C161.511 32.3 160.444 32.0167 159.528 31.45C158.611 30.8667 157.903 30.075 157.403 29.075C156.903 28.075 156.653 26.9417 156.653 25.675C156.653 24.4083 156.903 23.2833 157.403 22.3C157.903 21.3 158.611 20.5167 159.528 19.95C160.461 19.3833 161.536 19.1 162.753 19.1C163.786 19.1 164.686 19.3083 165.453 19.725C166.236 20.1417 166.836 20.725 167.253 21.475V14H169.353V32H167.453L167.278 29.925C167.011 30.3417 166.669 30.7333 166.253 31.1C165.836 31.45 165.336 31.7417 164.753 31.975C164.169 32.1917 163.494 32.3 162.728 32.3ZM162.978 30.475C163.811 30.475 164.544 30.275 165.178 29.875C165.811 29.475 166.303 28.925 166.653 28.225C167.003 27.5083 167.178 26.6667 167.178 25.7C167.178 24.75 167.003 23.9167 166.653 23.2C166.303 22.4833 165.811 21.925 165.178 21.525C164.544 21.125 163.811 20.925 162.978 20.925C162.161 20.925 161.436 21.125 160.803 21.525C160.169 21.925 159.678 22.4833 159.328 23.2C158.978 23.9167 158.803 24.75 158.803 25.7C158.803 26.6667 158.978 27.5083 159.328 28.225C159.678 28.925 160.169 29.475 160.803 29.875C161.436 30.275 162.161 30.475 162.978 30.475ZM178.377 32.3C177.193 32.3 176.143 32.025 175.227 31.475C174.327 30.925 173.618 30.1583 173.102 29.175C172.585 28.175 172.327 27.0167 172.327 25.7C172.327 24.3667 172.577 23.2083 173.077 22.225C173.593 21.2417 174.31 20.475 175.227 19.925C176.16 19.375 177.227 19.1 178.427 19.1C179.66 19.1 180.702 19.375 181.552 19.925C182.418 20.475 183.077 21.2 183.527 22.1C183.993 22.9833 184.227 23.9583 184.227 25.025C184.227 25.1917 184.227 25.3667 184.227 25.55C184.227 25.7333 184.218 25.9417 184.202 26.175H173.902V24.55H182.177C182.127 23.4 181.743 22.5 181.027 21.85C180.327 21.2 179.443 20.875 178.377 20.875C177.66 20.875 176.993 21.0417 176.377 21.375C175.777 21.6917 175.293 22.1667 174.927 22.8C174.56 23.4167 174.377 24.1917 174.377 25.125V25.825C174.377 26.8583 174.56 27.725 174.927 28.425C175.31 29.125 175.802 29.65 176.402 30C177.018 30.35 177.677 30.525 178.377 30.525C179.26 30.525 179.985 30.3333 180.552 29.95C181.135 29.55 181.552 29.0167 181.802 28.35H183.877C183.677 29.1 183.327 29.775 182.827 30.375C182.327 30.975 181.702 31.45 180.952 31.8C180.218 32.1333 179.36 32.3 178.377 32.3ZM191.811 32.3C190.761 32.3 189.844 32.125 189.061 31.775C188.294 31.425 187.677 30.9417 187.211 30.325C186.761 29.6917 186.486 28.95 186.386 28.1H188.536C188.619 28.5333 188.794 28.9333 189.061 29.3C189.327 29.6667 189.686 29.9667 190.136 30.2C190.602 30.4167 191.169 30.525 191.836 30.525C192.419 30.525 192.902 30.4417 193.286 30.275C193.669 30.0917 193.952 29.85 194.136 29.55C194.336 29.25 194.436 28.925 194.436 28.575C194.436 28.0583 194.311 27.6667 194.061 27.4C193.827 27.1333 193.477 26.925 193.011 26.775C192.544 26.6083 191.977 26.4667 191.311 26.35C190.761 26.25 190.219 26.1167 189.686 25.95C189.152 25.7833 188.677 25.5667 188.261 25.3C187.844 25.0167 187.511 24.675 187.261 24.275C187.027 23.875 186.911 23.3833 186.911 22.8C186.911 22.0833 187.094 21.45 187.461 20.9C187.827 20.3333 188.352 19.8917 189.036 19.575C189.736 19.2583 190.544 19.1 191.461 19.1C192.811 19.1 193.902 19.425 194.736 20.075C195.569 20.725 196.061 21.6667 196.211 22.9H194.136C194.052 22.2667 193.777 21.775 193.311 21.425C192.861 21.0583 192.236 20.875 191.436 20.875C190.652 20.875 190.052 21.0333 189.636 21.35C189.236 21.6667 189.036 22.0833 189.036 22.6C189.036 22.9333 189.144 23.2333 189.361 23.5C189.594 23.75 189.927 23.9667 190.361 24.15C190.811 24.3333 191.361 24.4833 192.011 24.6C192.844 24.75 193.602 24.95 194.286 25.2C194.969 25.45 195.519 25.825 195.936 26.325C196.369 26.8083 196.586 27.5 196.586 28.4C196.586 29.1833 196.386 29.8667 195.986 30.45C195.602 31.0333 195.052 31.4917 194.336 31.825C193.619 32.1417 192.777 32.3 191.811 32.3Z" fill="white"/>
<path d="M31.1682 3.19993C6.76624 0.203175 -17.615 31.705 31.1682 43.442" stroke="#00EAFF" stroke-width="5"/>
<path d="M3.69409 15.6443C3.69409 15.6443 20.0383 25.4616 24.2431 19.0691" stroke="#00EAFF" stroke-width="5"/>
<line y1="-2.5" x2="30.2717" y2="-2.5" transform="matrix(0.48083 0.876814 -0.876811 0.480835 23.8906 11.7621)" stroke="white" stroke-width="5"/>
<path d="M38.1071 36.4264C39.0898 37.5847 68.5198 7.3486 58.6561 3.03401" stroke="white" stroke-width="5"/>
</svg>
