<svg width="203" height="61" viewBox="0 0 203 61" fill="none" xmlns="http://www.w3.org/2000/svg">
<path d="M73.875 43V25.5H84.7V27.225H75.975V33.325H83.95V35.025H75.975V41.275H84.7V43H73.875ZM87.8857 43V30.4H89.7857L89.9357 32.8C90.2191 32.2333 90.5774 31.75 91.0107 31.35C91.4607 30.95 91.9941 30.6417 92.6107 30.425C93.2441 30.2083 93.9607 30.1 94.7607 30.1V32.3H93.9857C93.4524 32.3 92.9441 32.375 92.4607 32.525C91.9774 32.6583 91.5441 32.8833 91.1607 33.2C90.7941 33.5167 90.5024 33.95 90.2857 34.5C90.0857 35.0333 89.9857 35.7 89.9857 36.5V43H87.8857ZM97.3387 43V30.4H99.4387V43H97.3387ZM98.3887 27.725C97.972 27.725 97.622 27.5917 97.3387 27.325C97.072 27.0417 96.9387 26.6917 96.9387 26.275C96.9387 25.8583 97.072 25.525 97.3387 25.275C97.622 25.0083 97.972 24.875 98.3887 24.875C98.7887 24.875 99.1303 25.0083 99.4137 25.275C99.697 25.525 99.8387 25.8583 99.8387 26.275C99.8387 26.6917 99.697 27.0417 99.4137 27.325C99.1303 27.5917 98.7887 27.725 98.3887 27.725ZM108.82 43.3C107.636 43.3 106.57 43.025 105.62 42.475C104.686 41.925 103.953 41.1583 103.42 40.175C102.886 39.175 102.62 38.025 102.62 36.725C102.62 35.3917 102.886 34.2333 103.42 33.25C103.953 32.2667 104.686 31.5 105.62 30.95C106.57 30.3833 107.636 30.1 108.82 30.1C110.32 30.1 111.57 30.4917 112.57 31.275C113.57 32.0417 114.203 33.075 114.47 34.375H112.32C112.153 33.5917 111.745 32.9833 111.095 32.55C110.445 32.1167 109.678 31.9 108.795 31.9C108.078 31.9 107.411 32.0833 106.795 32.45C106.178 32.8 105.686 33.3333 105.32 34.05C104.953 34.7667 104.77 35.65 104.77 36.7C104.77 37.4833 104.878 38.1833 105.095 38.8C105.311 39.4 105.603 39.9 105.97 40.3C106.336 40.7 106.761 41.0083 107.245 41.225C107.745 41.425 108.261 41.525 108.795 41.525C109.395 41.525 109.936 41.4333 110.42 41.25C110.903 41.05 111.311 40.7583 111.645 40.375C111.978 39.9917 112.203 39.5417 112.32 39.025H114.47C114.203 40.2917 113.561 41.325 112.545 42.125C111.545 42.9083 110.303 43.3 108.82 43.3Z" fill="#00EAFF"/>
<path d="M129.467 43L122.892 25.5H125.167L130.692 40.775L136.267 25.5H138.492L131.917 43H129.467ZM144.705 43.3C143.521 43.3 142.471 43.025 141.555 42.475C140.655 41.925 139.946 41.1583 139.43 40.175C138.913 39.175 138.655 38.0167 138.655 36.7C138.655 35.3667 138.905 34.2083 139.405 33.225C139.921 32.2417 140.638 31.475 141.555 30.925C142.488 30.375 143.555 30.1 144.755 30.1C145.988 30.1 147.03 30.375 147.88 30.925C148.746 31.475 149.405 32.2 149.855 33.1C150.321 33.9833 150.555 34.9583 150.555 36.025C150.555 36.1917 150.555 36.3667 150.555 36.55C150.555 36.7333 150.546 36.9417 150.53 37.175H140.23V35.55H148.505C148.455 34.4 148.071 33.5 147.355 32.85C146.655 32.2 145.771 31.875 144.705 31.875C143.988 31.875 143.321 32.0417 142.705 32.375C142.105 32.6917 141.621 33.1667 141.255 33.8C140.888 34.4167 140.705 35.1917 140.705 36.125V36.825C140.705 37.8583 140.888 38.725 141.255 39.425C141.638 40.125 142.13 40.65 142.73 41C143.346 41.35 144.005 41.525 144.705 41.525C145.588 41.525 146.313 41.3333 146.88 40.95C147.463 40.55 147.88 40.0167 148.13 39.35H150.205C150.005 40.1 149.655 40.775 149.155 41.375C148.655 41.975 148.03 42.45 147.28 42.8C146.546 43.1333 145.688 43.3 144.705 43.3ZM153.389 43V30.4H155.289L155.439 32.8C155.722 32.2333 156.08 31.75 156.514 31.35C156.964 30.95 157.497 30.6417 158.114 30.425C158.747 30.2083 159.464 30.1 160.264 30.1V32.3H159.489C158.955 32.3 158.447 32.375 157.964 32.525C157.48 32.6583 157.047 32.8833 156.664 33.2C156.297 33.5167 156.005 33.95 155.789 34.5C155.589 35.0333 155.489 35.7 155.489 36.5V43H153.389ZM167.728 43.3C166.511 43.3 165.444 43.0167 164.528 42.45C163.611 41.8667 162.903 41.075 162.403 40.075C161.903 39.075 161.653 37.9417 161.653 36.675C161.653 35.4083 161.903 34.2833 162.403 33.3C162.903 32.3 163.611 31.5167 164.528 30.95C165.461 30.3833 166.536 30.1 167.753 30.1C168.786 30.1 169.686 30.3083 170.453 30.725C171.236 31.1417 171.836 31.725 172.253 32.475V25H174.353V43H172.453L172.278 40.925C172.011 41.3417 171.669 41.7333 171.253 42.1C170.836 42.45 170.336 42.7417 169.753 42.975C169.169 43.1917 168.494 43.3 167.728 43.3ZM167.978 41.475C168.811 41.475 169.544 41.275 170.178 40.875C170.811 40.475 171.303 39.925 171.653 39.225C172.003 38.5083 172.178 37.6667 172.178 36.7C172.178 35.75 172.003 34.9167 171.653 34.2C171.303 33.4833 170.811 32.925 170.178 32.525C169.544 32.125 168.811 31.925 167.978 31.925C167.161 31.925 166.436 32.125 165.803 32.525C165.169 32.925 164.678 33.4833 164.328 34.2C163.978 34.9167 163.803 35.75 163.803 36.7C163.803 37.6667 163.978 38.5083 164.328 39.225C164.678 39.925 165.169 40.475 165.803 40.875C166.436 41.275 167.161 41.475 167.978 41.475ZM183.377 43.3C182.193 43.3 181.143 43.025 180.227 42.475C179.327 41.925 178.618 41.1583 178.102 40.175C177.585 39.175 177.327 38.0167 177.327 36.7C177.327 35.3667 177.577 34.2083 178.077 33.225C178.593 32.2417 179.31 31.475 180.227 30.925C181.16 30.375 182.227 30.1 183.427 30.1C184.66 30.1 185.702 30.375 186.552 30.925C187.418 31.475 188.077 32.2 188.527 33.1C188.993 33.9833 189.227 34.9583 189.227 36.025C189.227 36.1917 189.227 36.3667 189.227 36.55C189.227 36.7333 189.218 36.9417 189.202 37.175H178.902V35.55H187.177C187.127 34.4 186.743 33.5 186.027 32.85C185.327 32.2 184.443 31.875 183.377 31.875C182.66 31.875 181.993 32.0417 181.377 32.375C180.777 32.6917 180.293 33.1667 179.927 33.8C179.56 34.4167 179.377 35.1917 179.377 36.125V36.825C179.377 37.8583 179.56 38.725 179.927 39.425C180.31 40.125 180.802 40.65 181.402 41C182.018 41.35 182.677 41.525 183.377 41.525C184.26 41.525 184.985 41.3333 185.552 40.95C186.135 40.55 186.552 40.0167 186.802 39.35H188.877C188.677 40.1 188.327 40.775 187.827 41.375C187.327 41.975 186.702 42.45 185.952 42.8C185.218 43.1333 184.36 43.3 183.377 43.3ZM196.811 43.3C195.761 43.3 194.844 43.125 194.061 42.775C193.294 42.425 192.677 41.9417 192.211 41.325C191.761 40.6917 191.486 39.95 191.386 39.1H193.536C193.619 39.5333 193.794 39.9333 194.061 40.3C194.327 40.6667 194.686 40.9667 195.136 41.2C195.602 41.4167 196.169 41.525 196.836 41.525C197.419 41.525 197.902 41.4417 198.286 41.275C198.669 41.0917 198.952 40.85 199.136 40.55C199.336 40.25 199.436 39.925 199.436 39.575C199.436 39.0583 199.311 38.6667 199.061 38.4C198.827 38.1333 198.477 37.925 198.011 37.775C197.544 37.6083 196.977 37.4667 196.311 37.35C195.761 37.25 195.219 37.1167 194.686 36.95C194.152 36.7833 193.677 36.5667 193.261 36.3C192.844 36.0167 192.511 35.675 192.261 35.275C192.027 34.875 191.911 34.3833 191.911 33.8C191.911 33.0833 192.094 32.45 192.461 31.9C192.827 31.3333 193.352 30.8917 194.036 30.575C194.736 30.2583 195.544 30.1 196.461 30.1C197.811 30.1 198.902 30.425 199.736 31.075C200.569 31.725 201.061 32.6667 201.211 33.9H199.136C199.052 33.2667 198.777 32.775 198.311 32.425C197.861 32.0583 197.236 31.875 196.436 31.875C195.652 31.875 195.052 32.0333 194.636 32.35C194.236 32.6667 194.036 33.0833 194.036 33.6C194.036 33.9333 194.144 34.2333 194.361 34.5C194.594 34.75 194.927 34.9667 195.361 35.15C195.811 35.3333 196.361 35.4833 197.011 35.6C197.844 35.75 198.602 35.95 199.286 36.2C199.969 36.45 200.519 36.825 200.936 37.325C201.369 37.8083 201.586 38.5 201.586 39.4C201.586 40.1833 201.386 40.8667 200.986 41.45C200.602 42.0333 200.052 42.4917 199.336 42.825C198.619 43.1417 197.777 43.3 196.811 43.3Z" fill="white"/>
<path d="M36 3C-2.42272 28.6221 -13.2457 41.8311 36 58" stroke="#00EAFF" stroke-width="5"/>
<line x1="2.88109" y1="36.5028" x2="23.8811" y2="35.5028" stroke="#00EAFF" stroke-width="5"/>
<line x1="26.2216" y1="23.8534" x2="42.2216" y2="54.8534" stroke="white" stroke-width="5"/>
<path d="M41.9857 52.5191C50.1577 33.9373 48.3544 2.22759 66.9857 18.5191" stroke="white" stroke-width="5"/>
<circle cx="59" cy="25" r="3" fill="white"/>
</svg>
