<svg width="193" height="55" viewBox="0 0 193 55" fill="none" xmlns="http://www.w3.org/2000/svg">
<path d="M2 13.6805C2 13.6805 34.8029 -2.13345 33.4908 13.6805" stroke="#00EAFF" stroke-width="5"/>
<path d="M3.96757 14.4321C12.9008 27.6913 13.1506 36.2205 3.96757 53.5906" stroke="#00EAFF" stroke-width="5"/>
<path d="M4.62427 52.8396C4.62427 52.8396 32.1787 36.2725 36.1151 52.8396" stroke="#00EAFF" stroke-width="5"/>
<path d="M3.31226 33.2583C3.31226 33.2583 24.3061 41.5418 16.4334 33.2583" stroke="#00EAFF" stroke-width="5"/>
<path d="M24.6702 17.7664C27.5613 31.0482 29.813 35.5524 35.1671 37.3456" stroke="white" stroke-width="5"/>
<path d="M32.9939 34.6279C32.9939 34.6279 51.8605 6.90205 44.8029 2.99994" stroke="white" stroke-width="5"/>
<path d="M63.875 36.999V19.499H74.7V21.224H65.975V27.324H73.95V29.024H65.975V35.274H74.7V36.999H63.875ZM77.8857 36.999V24.399H79.7857L79.9357 26.799C80.2191 26.2324 80.5774 25.749 81.0107 25.349C81.4607 24.949 81.9941 24.6407 82.6107 24.424C83.2441 24.2074 83.9607 24.099 84.7607 24.099V26.299H83.9857C83.4524 26.299 82.9441 26.374 82.4607 26.524C81.9774 26.6574 81.5441 26.8824 81.1607 27.199C80.7941 27.5157 80.5024 27.949 80.2857 28.499C80.0857 29.0324 79.9857 29.699 79.9857 30.499V36.999H77.8857ZM87.3387 36.999V24.399H89.4387V36.999H87.3387ZM88.3887 21.724C87.972 21.724 87.622 21.5907 87.3387 21.324C87.072 21.0407 86.9387 20.6907 86.9387 20.274C86.9387 19.8574 87.072 19.524 87.3387 19.274C87.622 19.0074 87.972 18.874 88.3887 18.874C88.7887 18.874 89.1303 19.0074 89.4137 19.274C89.697 19.524 89.8387 19.8574 89.8387 20.274C89.8387 20.6907 89.697 21.0407 89.4137 21.324C89.1303 21.5907 88.7887 21.724 88.3887 21.724ZM98.8195 37.299C97.6362 37.299 96.5695 37.024 95.6195 36.474C94.6862 35.924 93.9529 35.1574 93.4195 34.174C92.8862 33.174 92.6195 32.024 92.6195 30.724C92.6195 29.3907 92.8862 28.2324 93.4195 27.249C93.9529 26.2657 94.6862 25.499 95.6195 24.949C96.5695 24.3824 97.6362 24.099 98.8195 24.099C100.32 24.099 101.57 24.4907 102.57 25.274C103.57 26.0407 104.203 27.074 104.47 28.374H102.32C102.153 27.5907 101.745 26.9824 101.095 26.549C100.445 26.1157 99.6779 25.899 98.7945 25.899C98.0779 25.899 97.4112 26.0824 96.7945 26.449C96.1779 26.799 95.6862 27.3324 95.3195 28.049C94.9529 28.7657 94.7695 29.649 94.7695 30.699C94.7695 31.4824 94.8779 32.1824 95.0945 32.799C95.3112 33.399 95.6029 33.899 95.9695 34.299C96.3362 34.699 96.7612 35.0074 97.2445 35.224C97.7445 35.424 98.2612 35.524 98.7945 35.524C99.3945 35.524 99.9362 35.4324 100.42 35.249C100.903 35.049 101.311 34.7574 101.645 34.374C101.978 33.9907 102.203 33.5407 102.32 33.024H104.47C104.203 34.2907 103.561 35.324 102.545 36.124C101.545 36.9074 100.303 37.299 98.8195 37.299Z" fill="#00EAFF"/>
<path d="M119.467 36.999L112.892 19.499H115.167L120.692 34.774L126.267 19.499H128.492L121.917 36.999H119.467ZM134.705 37.299C133.521 37.299 132.471 37.024 131.555 36.474C130.655 35.924 129.946 35.1574 129.43 34.174C128.913 33.174 128.655 32.0157 128.655 30.699C128.655 29.3657 128.905 28.2074 129.405 27.224C129.921 26.2407 130.638 25.474 131.555 24.924C132.488 24.374 133.555 24.099 134.755 24.099C135.988 24.099 137.03 24.374 137.88 24.924C138.746 25.474 139.405 26.199 139.855 27.099C140.321 27.9824 140.555 28.9574 140.555 30.024C140.555 30.1907 140.555 30.3657 140.555 30.549C140.555 30.7324 140.546 30.9407 140.53 31.174H130.23V29.549H138.505C138.455 28.399 138.071 27.499 137.355 26.849C136.655 26.199 135.771 25.874 134.705 25.874C133.988 25.874 133.321 26.0407 132.705 26.374C132.105 26.6907 131.621 27.1657 131.255 27.799C130.888 28.4157 130.705 29.1907 130.705 30.124V30.824C130.705 31.8574 130.888 32.724 131.255 33.424C131.638 34.124 132.13 34.649 132.73 34.999C133.346 35.349 134.005 35.524 134.705 35.524C135.588 35.524 136.313 35.3324 136.88 34.949C137.463 34.549 137.88 34.0157 138.13 33.349H140.205C140.005 34.099 139.655 34.774 139.155 35.374C138.655 35.974 138.03 36.449 137.28 36.799C136.546 37.1324 135.688 37.299 134.705 37.299ZM143.389 36.999V24.399H145.289L145.439 26.799C145.722 26.2324 146.08 25.749 146.514 25.349C146.964 24.949 147.497 24.6407 148.114 24.424C148.747 24.2074 149.464 24.099 150.264 24.099V26.299H149.489C148.955 26.299 148.447 26.374 147.964 26.524C147.48 26.6574 147.047 26.8824 146.664 27.199C146.297 27.5157 146.005 27.949 145.789 28.499C145.589 29.0324 145.489 29.699 145.489 30.499V36.999H143.389ZM157.728 37.299C156.511 37.299 155.444 37.0157 154.528 36.449C153.611 35.8657 152.903 35.074 152.403 34.074C151.903 33.074 151.653 31.9407 151.653 30.674C151.653 29.4074 151.903 28.2824 152.403 27.299C152.903 26.299 153.611 25.5157 154.528 24.949C155.461 24.3824 156.536 24.099 157.753 24.099C158.786 24.099 159.686 24.3074 160.453 24.724C161.236 25.1407 161.836 25.724 162.253 26.474V18.999H164.353V36.999H162.453L162.278 34.924C162.011 35.3407 161.669 35.7324 161.253 36.099C160.836 36.449 160.336 36.7407 159.753 36.974C159.169 37.1907 158.494 37.299 157.728 37.299ZM157.978 35.474C158.811 35.474 159.544 35.274 160.178 34.874C160.811 34.474 161.303 33.924 161.653 33.224C162.003 32.5074 162.178 31.6657 162.178 30.699C162.178 29.749 162.003 28.9157 161.653 28.199C161.303 27.4824 160.811 26.924 160.178 26.524C159.544 26.124 158.811 25.924 157.978 25.924C157.161 25.924 156.436 26.124 155.803 26.524C155.169 26.924 154.678 27.4824 154.328 28.199C153.978 28.9157 153.803 29.749 153.803 30.699C153.803 31.6657 153.978 32.5074 154.328 33.224C154.678 33.924 155.169 34.474 155.803 34.874C156.436 35.274 157.161 35.474 157.978 35.474ZM173.377 37.299C172.193 37.299 171.143 37.024 170.227 36.474C169.327 35.924 168.618 35.1574 168.102 34.174C167.585 33.174 167.327 32.0157 167.327 30.699C167.327 29.3657 167.577 28.2074 168.077 27.224C168.593 26.2407 169.31 25.474 170.227 24.924C171.16 24.374 172.227 24.099 173.427 24.099C174.66 24.099 175.702 24.374 176.552 24.924C177.418 25.474 178.077 26.199 178.527 27.099C178.993 27.9824 179.227 28.9574 179.227 30.024C179.227 30.1907 179.227 30.3657 179.227 30.549C179.227 30.7324 179.218 30.9407 179.202 31.174H168.902V29.549H177.177C177.127 28.399 176.743 27.499 176.027 26.849C175.327 26.199 174.443 25.874 173.377 25.874C172.66 25.874 171.993 26.0407 171.377 26.374C170.777 26.6907 170.293 27.1657 169.927 27.799C169.56 28.4157 169.377 29.1907 169.377 30.124V30.824C169.377 31.8574 169.56 32.724 169.927 33.424C170.31 34.124 170.802 34.649 171.402 34.999C172.018 35.349 172.677 35.524 173.377 35.524C174.26 35.524 174.985 35.3324 175.552 34.949C176.135 34.549 176.552 34.0157 176.802 33.349H178.877C178.677 34.099 178.327 34.774 177.827 35.374C177.327 35.974 176.702 36.449 175.952 36.799C175.218 37.1324 174.36 37.299 173.377 37.299ZM186.811 37.299C185.761 37.299 184.844 37.124 184.061 36.774C183.294 36.424 182.677 35.9407 182.211 35.324C181.761 34.6907 181.486 33.949 181.386 33.099H183.536C183.619 33.5324 183.794 33.9324 184.061 34.299C184.327 34.6657 184.686 34.9657 185.136 35.199C185.602 35.4157 186.169 35.524 186.836 35.524C187.419 35.524 187.902 35.4407 188.286 35.274C188.669 35.0907 188.952 34.849 189.136 34.549C189.336 34.249 189.436 33.924 189.436 33.574C189.436 33.0574 189.311 32.6657 189.061 32.399C188.827 32.1324 188.477 31.924 188.011 31.774C187.544 31.6074 186.977 31.4657 186.311 31.349C185.761 31.249 185.219 31.1157 184.686 30.949C184.152 30.7824 183.677 30.5657 183.261 30.299C182.844 30.0157 182.511 29.674 182.261 29.274C182.027 28.874 181.911 28.3824 181.911 27.799C181.911 27.0824 182.094 26.449 182.461 25.899C182.827 25.3324 183.352 24.8907 184.036 24.574C184.736 24.2574 185.544 24.099 186.461 24.099C187.811 24.099 188.902 24.424 189.736 25.074C190.569 25.724 191.061 26.6657 191.211 27.899H189.136C189.052 27.2657 188.777 26.774 188.311 26.424C187.861 26.0574 187.236 25.874 186.436 25.874C185.652 25.874 185.052 26.0324 184.636 26.349C184.236 26.6657 184.036 27.0824 184.036 27.599C184.036 27.9324 184.144 28.2324 184.361 28.499C184.594 28.749 184.927 28.9657 185.361 29.149C185.811 29.3324 186.361 29.4824 187.011 29.599C187.844 29.749 188.602 29.949 189.286 30.199C189.969 30.449 190.519 30.824 190.936 31.324C191.369 31.8074 191.586 32.499 191.586 33.399C191.586 34.1824 191.386 34.8657 190.986 35.449C190.602 36.0324 190.052 36.4907 189.336 36.824C188.619 37.1407 187.777 37.299 186.811 37.299Z" fill="white"/>
</svg>
