<svg width="179" height="55" viewBox="0 0 179 55" fill="none" xmlns="http://www.w3.org/2000/svg">
<path d="M21.42 42V12.6H27.09V42H21.42ZM2.898 42V12.6H8.568V42H2.898ZM7.77 29.274V24.696H22.386V29.274H7.77ZM32.8804 42V20.832H38.5504V42H32.8804ZM35.7364 17.934C34.7284 17.934 33.8884 17.64 33.2164 17.052C32.5724 16.436 32.2504 15.666 32.2504 14.742C32.2504 13.818 32.5724 13.062 33.2164 12.474C33.8884 11.858 34.7284 11.55 35.7364 11.55C36.7724 11.55 37.6124 11.858 38.2564 12.474C38.9284 13.062 39.2644 13.818 39.2644 14.742C39.2644 15.666 38.9284 16.436 38.2564 17.052C37.6124 17.64 36.7724 17.934 35.7364 17.934Z" fill="#00EAFF"/>
<path d="M66.306 42C64.822 42 63.52 41.776 62.4 41.328C61.308 40.852 60.454 40.082 59.838 39.018C59.222 37.926 58.914 36.442 58.914 34.566V25.578H55.302V20.832H58.914L59.544 15.078H64.584V20.832H70.17V25.578H64.584V34.65C64.584 35.602 64.794 36.26 65.214 36.624C65.634 36.988 66.348 37.17 67.356 37.17H70.128V42H66.306ZM74.9419 42V11.76H80.6119V23.982C81.3119 22.862 82.2359 21.98 83.3839 21.336C84.5599 20.664 85.9179 20.328 87.4579 20.328C89.2219 20.328 90.7059 20.706 91.9099 21.462C93.1139 22.19 94.0239 23.254 94.6399 24.654C95.2559 26.054 95.5639 27.79 95.5639 29.862V42H89.9359V30.366C89.9359 28.686 89.5859 27.398 88.8859 26.502C88.1859 25.578 87.0799 25.116 85.5679 25.116C84.6439 25.116 83.8039 25.34 83.0479 25.788C82.2919 26.236 81.6899 26.894 81.2419 27.762C80.8219 28.602 80.6119 29.61 80.6119 30.786V42H74.9419ZM111.069 42.504C108.941 42.504 107.051 42.056 105.399 41.16C103.775 40.236 102.501 38.962 101.577 37.338C100.681 35.686 100.233 33.782 100.233 31.626C100.233 29.414 100.681 27.468 101.577 25.788C102.501 24.08 103.775 22.75 105.399 21.798C107.023 20.818 108.913 20.328 111.069 20.328C113.169 20.328 115.003 20.79 116.571 21.714C118.139 22.638 119.357 23.884 120.225 25.452C121.093 27.02 121.527 28.798 121.527 30.786C121.527 31.066 121.527 31.388 121.527 31.752C121.527 32.088 121.499 32.438 121.443 32.802H104.265V29.358H115.815C115.731 27.986 115.241 26.908 114.345 26.124C113.477 25.34 112.385 24.948 111.069 24.948C110.117 24.948 109.235 25.172 108.423 25.62C107.611 26.04 106.967 26.698 106.491 27.594C106.043 28.49 105.819 29.624 105.819 30.996V32.214C105.819 33.362 106.029 34.37 106.449 35.238C106.897 36.078 107.513 36.736 108.297 37.212C109.081 37.66 109.991 37.884 111.027 37.884C112.063 37.884 112.917 37.66 113.589 37.212C114.289 36.764 114.807 36.19 115.143 35.49H120.939C120.547 36.806 119.889 37.996 118.965 39.06C118.041 40.124 116.907 40.964 115.563 41.58C114.219 42.196 112.721 42.504 111.069 42.504ZM126.17 42V20.832H131.21L131.756 24.738C132.26 23.814 132.89 23.03 133.646 22.386C134.43 21.742 135.312 21.238 136.292 20.874C137.3 20.51 138.406 20.328 139.61 20.328V26.334H137.678C136.838 26.334 136.054 26.432 135.326 26.628C134.626 26.824 134.01 27.146 133.478 27.594C132.946 28.014 132.54 28.602 132.26 29.358C131.98 30.114 131.84 31.066 131.84 32.214V42H126.17ZM153.192 42.504C151.064 42.504 149.174 42.056 147.522 41.16C145.898 40.236 144.624 38.962 143.7 37.338C142.804 35.686 142.356 33.782 142.356 31.626C142.356 29.414 142.804 27.468 143.7 25.788C144.624 24.08 145.898 22.75 147.522 21.798C149.146 20.818 151.036 20.328 153.192 20.328C155.292 20.328 157.126 20.79 158.694 21.714C160.262 22.638 161.48 23.884 162.348 25.452C163.216 27.02 163.65 28.798 163.65 30.786C163.65 31.066 163.65 31.388 163.65 31.752C163.65 32.088 163.622 32.438 163.566 32.802H146.388V29.358H157.938C157.854 27.986 157.364 26.908 156.468 26.124C155.6 25.34 154.508 24.948 153.192 24.948C152.24 24.948 151.358 25.172 150.546 25.62C149.734 26.04 149.09 26.698 148.614 27.594C148.166 28.49 147.942 29.624 147.942 30.996V32.214C147.942 33.362 148.152 34.37 148.572 35.238C149.02 36.078 149.636 36.736 150.42 37.212C151.204 37.66 152.114 37.884 153.15 37.884C154.186 37.884 155.04 37.66 155.712 37.212C156.412 36.764 156.93 36.19 157.266 35.49H163.062C162.67 36.806 162.012 37.996 161.088 39.06C160.164 40.124 159.03 40.964 157.686 41.58C156.342 42.196 154.844 42.504 153.192 42.504ZM169.595 32.424L168.965 12.6H175.055L174.425 32.424H169.595ZM172.031 42.21C170.995 42.21 170.141 41.902 169.469 41.286C168.825 40.642 168.503 39.858 168.503 38.934C168.503 38.01 168.825 37.24 169.469 36.624C170.141 35.98 170.995 35.658 172.031 35.658C173.067 35.658 173.907 35.98 174.551 36.624C175.195 37.24 175.517 38.01 175.517 38.934C175.517 39.858 175.195 40.642 174.551 41.286C173.907 41.902 173.067 42.21 172.031 42.21Z" fill="#EEEEEE"/>
</svg>
