<svg width="23" height="21" viewBox="0 0 23 21" fill="none" xmlns="http://www.w3.org/2000/svg">
<path d="M0.932 21V6.888H4.712V21H0.932ZM2.836 4.956C2.164 4.956 1.604 4.76 1.156 4.368C0.726667 3.95733 0.512 3.444 0.512 2.828C0.512 2.212 0.726667 1.708 1.156 1.316C1.604 0.905333 2.164 0.699999 2.836 0.699999C3.52667 0.699999 4.08667 0.905333 4.516 1.316C4.964 1.708 5.188 2.212 5.188 2.828C5.188 3.444 4.964 3.95733 4.516 4.368C4.08667 4.76 3.52667 4.956 2.836 4.956ZM8.53159 21V6.888H11.8636L12.1436 9.184C12.5729 8.4 13.1796 7.76533 13.9636 7.28C14.7663 6.79467 15.7183 6.552 16.8196 6.552C17.9956 6.552 18.9849 6.79467 19.7876 7.28C20.5903 7.76533 21.1969 8.47467 21.6076 9.408C22.0369 10.3413 22.2516 11.4893 22.2516 12.852V21H18.4996V13.216C18.4996 12.096 18.2569 11.2373 17.7716 10.64C17.3049 10.0427 16.5769 9.744 15.5876 9.744C14.9529 9.744 14.3836 9.89333 13.8796 10.192C13.3943 10.4907 13.0116 10.92 12.7316 11.48C12.4516 12.0213 12.3116 12.684 12.3116 13.468V21H8.53159Z" fill="white"/>
</svg>
