<svg width="900" height="344" viewBox="0 0 900 344" fill="none" xmlns="http://www.w3.org/2000/svg">
<rect width="900" height="344" fill="white"/>
<circle cx="111" cy="249" r="10" fill="#07008F"/>
<circle cx="274" cy="249" r="10" fill="#0000FF"/>
<circle cx="331" cy="249" r="10" fill="#00A035"/>
<circle cx="388" cy="249" r="10" fill="#00A035"/>
<circle cx="445" cy="249" r="10" fill="#00A035"/>
<circle cx="502" cy="249" r="10" fill="#00A035"/>
<circle cx="559" cy="249" r="10" fill="#00A035"/>
<circle cx="616" cy="249" r="10" fill="#FF5100"/>
<circle cx="779" cy="249" r="10" fill="#DFDF00"/>
<line x1="110.745" y1="209.998" x2="110.755" y2="241.002" stroke="#07008F"/>
<line x1="779.5" y1="208" x2="779.5" y2="239" stroke="#DFDF00"/>
<path d="M59.9443 160.089H65.7539C66.9023 160.089 67.8281 160.414 68.5312 161.064C69.2344 161.709 69.5859 162.617 69.5859 163.789C69.5859 164.797 69.2725 165.676 68.6455 166.426C68.0186 167.17 67.0547 167.542 65.7539 167.542H61.6934V173H59.9443V160.089ZM67.8193 163.798C67.8193 162.849 67.4678 162.204 66.7646 161.864C66.3779 161.683 65.8477 161.592 65.1738 161.592H61.6934V166.065H65.1738C65.959 166.065 66.5947 165.898 67.0811 165.564C67.5732 165.23 67.8193 164.642 67.8193 163.798ZM71.6162 160.089H73.1982V173H71.6162V160.089ZM76.793 170.495C76.793 170.952 76.96 171.312 77.2939 171.576C77.6279 171.84 78.0234 171.972 78.4805 171.972C79.0371 171.972 79.5762 171.843 80.0977 171.585C80.9766 171.157 81.416 170.457 81.416 169.484V168.21C81.2227 168.333 80.9736 168.436 80.6689 168.518C80.3643 168.6 80.0654 168.658 79.7725 168.693L78.8145 168.816C78.2402 168.893 77.8096 169.013 77.5225 169.177C77.0361 169.452 76.793 169.892 76.793 170.495ZM80.625 167.296C80.9883 167.249 81.2314 167.097 81.3545 166.839C81.4248 166.698 81.46 166.496 81.46 166.232C81.46 165.693 81.2666 165.304 80.8799 165.063C80.499 164.817 79.9512 164.694 79.2363 164.694C78.4102 164.694 77.8242 164.917 77.4785 165.362C77.2852 165.608 77.1592 165.975 77.1006 166.461H75.624C75.6533 165.301 76.0283 164.495 76.749 164.044C77.4756 163.587 78.3164 163.358 79.2715 163.358C80.3789 163.358 81.2783 163.569 81.9697 163.991C82.6553 164.413 82.998 165.069 82.998 165.96V171.383C82.998 171.547 83.0303 171.679 83.0947 171.778C83.165 171.878 83.3086 171.928 83.5254 171.928C83.5957 171.928 83.6748 171.925 83.7627 171.919C83.8506 171.907 83.9443 171.893 84.0439 171.875V173.044C83.7979 173.114 83.6104 173.158 83.4814 173.176C83.3525 173.193 83.1768 173.202 82.9541 173.202C82.4092 173.202 82.0137 173.009 81.7676 172.622C81.6387 172.417 81.5479 172.127 81.4951 171.752C81.1729 172.174 80.71 172.54 80.1064 172.851C79.5029 173.161 78.8379 173.316 78.1113 173.316C77.2383 173.316 76.5234 173.053 75.9668 172.525C75.416 171.992 75.1406 171.327 75.1406 170.53C75.1406 169.657 75.4131 168.98 75.958 168.5C76.5029 168.02 77.2178 167.724 78.1025 167.612L80.625 167.296ZM85.5996 163.587H87.1025V164.923C87.5479 164.372 88.0195 163.977 88.5176 163.736C89.0156 163.496 89.5693 163.376 90.1787 163.376C91.5146 163.376 92.417 163.842 92.8857 164.773C93.1436 165.283 93.2725 166.013 93.2725 166.962V173H91.6641V167.067C91.6641 166.493 91.5791 166.03 91.4092 165.679C91.1279 165.093 90.6182 164.8 89.8799 164.8C89.5049 164.8 89.1973 164.838 88.957 164.914C88.5234 165.043 88.1426 165.301 87.8145 165.688C87.5508 165.998 87.3779 166.32 87.2959 166.654C87.2197 166.982 87.1816 167.454 87.1816 168.069V173H85.5996V163.587ZM95.6191 163.587H97.1221V164.923C97.5674 164.372 98.0391 163.977 98.5371 163.736C99.0352 163.496 99.5889 163.376 100.198 163.376C101.534 163.376 102.437 163.842 102.905 164.773C103.163 165.283 103.292 166.013 103.292 166.962V173H101.684V167.067C101.684 166.493 101.599 166.03 101.429 165.679C101.147 165.093 100.638 164.8 99.8994 164.8C99.5244 164.8 99.2168 164.838 98.9766 164.914C98.543 165.043 98.1621 165.301 97.834 165.688C97.5703 165.998 97.3975 166.32 97.3154 166.654C97.2393 166.982 97.2012 167.454 97.2012 168.069V173H95.6191V163.587ZM105.639 163.631H107.247V173H105.639V163.631ZM105.639 160.089H107.247V161.882H105.639V160.089ZM109.646 163.587H111.149V164.923C111.595 164.372 112.066 163.977 112.564 163.736C113.062 163.496 113.616 163.376 114.226 163.376C115.562 163.376 116.464 163.842 116.933 164.773C117.19 165.283 117.319 166.013 117.319 166.962V173H115.711V167.067C115.711 166.493 115.626 166.03 115.456 165.679C115.175 165.093 114.665 164.8 113.927 164.8C113.552 164.8 113.244 164.838 113.004 164.914C112.57 165.043 112.189 165.301 111.861 165.688C111.598 165.998 111.425 166.32 111.343 166.654C111.267 166.982 111.229 167.454 111.229 168.069V173H109.646V163.587ZM122.988 163.42C123.727 163.42 124.371 163.602 124.922 163.965C125.221 164.17 125.525 164.469 125.836 164.861V163.675H127.295V172.235C127.295 173.431 127.119 174.374 126.768 175.065C126.111 176.343 124.872 176.981 123.05 176.981C122.036 176.981 121.184 176.753 120.492 176.296C119.801 175.845 119.414 175.136 119.332 174.169H120.94C121.017 174.591 121.169 174.916 121.397 175.145C121.755 175.496 122.317 175.672 123.085 175.672C124.298 175.672 125.092 175.244 125.467 174.389C125.689 173.885 125.792 172.985 125.774 171.69C125.458 172.171 125.077 172.528 124.632 172.763C124.187 172.997 123.598 173.114 122.865 173.114C121.846 173.114 120.952 172.754 120.185 172.033C119.423 171.307 119.042 170.108 119.042 168.438C119.042 166.862 119.426 165.632 120.193 164.747C120.967 163.862 121.898 163.42 122.988 163.42ZM125.836 168.254C125.836 167.088 125.596 166.224 125.115 165.661C124.635 165.099 124.022 164.817 123.278 164.817C122.165 164.817 121.403 165.339 120.993 166.382C120.776 166.938 120.668 167.668 120.668 168.57C120.668 169.631 120.882 170.439 121.31 170.996C121.743 171.547 122.323 171.822 123.05 171.822C124.187 171.822 124.986 171.31 125.449 170.284C125.707 169.704 125.836 169.027 125.836 168.254ZM135.908 170.495C135.908 170.952 136.075 171.312 136.409 171.576C136.743 171.84 137.139 171.972 137.596 171.972C138.152 171.972 138.691 171.843 139.213 171.585C140.092 171.157 140.531 170.457 140.531 169.484V168.21C140.338 168.333 140.089 168.436 139.784 168.518C139.479 168.6 139.181 168.658 138.888 168.693L137.93 168.816C137.355 168.893 136.925 169.013 136.638 169.177C136.151 169.452 135.908 169.892 135.908 170.495ZM139.74 167.296C140.104 167.249 140.347 167.097 140.47 166.839C140.54 166.698 140.575 166.496 140.575 166.232C140.575 165.693 140.382 165.304 139.995 165.063C139.614 164.817 139.066 164.694 138.352 164.694C137.525 164.694 136.939 164.917 136.594 165.362C136.4 165.608 136.274 165.975 136.216 166.461H134.739C134.769 165.301 135.144 164.495 135.864 164.044C136.591 163.587 137.432 163.358 138.387 163.358C139.494 163.358 140.394 163.569 141.085 163.991C141.771 164.413 142.113 165.069 142.113 165.96V171.383C142.113 171.547 142.146 171.679 142.21 171.778C142.28 171.878 142.424 171.928 142.641 171.928C142.711 171.928 142.79 171.925 142.878 171.919C142.966 171.907 143.06 171.893 143.159 171.875V173.044C142.913 173.114 142.726 173.158 142.597 173.176C142.468 173.193 142.292 173.202 142.069 173.202C141.524 173.202 141.129 173.009 140.883 172.622C140.754 172.417 140.663 172.127 140.61 171.752C140.288 172.174 139.825 172.54 139.222 172.851C138.618 173.161 137.953 173.316 137.227 173.316C136.354 173.316 135.639 173.053 135.082 172.525C134.531 171.992 134.256 171.327 134.256 170.53C134.256 169.657 134.528 168.98 135.073 168.5C135.618 168.02 136.333 167.724 137.218 167.612L139.74 167.296ZM144.715 163.587H146.218V164.923C146.663 164.372 147.135 163.977 147.633 163.736C148.131 163.496 148.685 163.376 149.294 163.376C150.63 163.376 151.532 163.842 152.001 164.773C152.259 165.283 152.388 166.013 152.388 166.962V173H150.779V167.067C150.779 166.493 150.694 166.03 150.524 165.679C150.243 165.093 149.733 164.8 148.995 164.8C148.62 164.8 148.312 164.838 148.072 164.914C147.639 165.043 147.258 165.301 146.93 165.688C146.666 165.998 146.493 166.32 146.411 166.654C146.335 166.982 146.297 167.454 146.297 168.069V173H144.715V163.587ZM155.736 168.403C155.736 169.411 155.95 170.255 156.378 170.935C156.806 171.614 157.491 171.954 158.435 171.954C159.167 171.954 159.768 171.641 160.236 171.014C160.711 170.381 160.948 169.476 160.948 168.298C160.948 167.108 160.705 166.229 160.219 165.661C159.732 165.087 159.132 164.8 158.417 164.8C157.62 164.8 156.973 165.104 156.475 165.714C155.982 166.323 155.736 167.22 155.736 168.403ZM158.118 163.42C158.839 163.42 159.442 163.572 159.929 163.877C160.21 164.053 160.529 164.36 160.887 164.8V160.045H162.407V173H160.983V171.69C160.614 172.271 160.178 172.689 159.674 172.947C159.17 173.205 158.593 173.334 157.942 173.334C156.894 173.334 155.985 172.895 155.218 172.016C154.45 171.131 154.066 169.956 154.066 168.491C154.066 167.12 154.415 165.934 155.112 164.932C155.815 163.924 156.817 163.42 158.118 163.42ZM68.4785 181.089H74.2881C75.4365 181.089 76.3623 181.414 77.0654 182.064C77.7686 182.709 78.1201 183.617 78.1201 184.789C78.1201 185.797 77.8066 186.676 77.1797 187.426C76.5527 188.17 75.5889 188.542 74.2881 188.542H70.2275V194H68.4785V181.089ZM76.3535 184.798C76.3535 183.849 76.002 183.204 75.2988 182.864C74.9121 182.683 74.3818 182.592 73.708 182.592H70.2275V187.065H73.708C74.4932 187.065 75.1289 186.898 75.6152 186.564C76.1074 186.23 76.3535 185.642 76.3535 184.798ZM80.1504 184.587H81.6533V186.213C81.7764 185.896 82.0781 185.513 82.5586 185.062C83.0391 184.604 83.5928 184.376 84.2197 184.376C84.249 184.376 84.2988 184.379 84.3691 184.385C84.4395 184.391 84.5596 184.402 84.7295 184.42V186.09C84.6357 186.072 84.5479 186.061 84.4658 186.055C84.3896 186.049 84.3047 186.046 84.2109 186.046C83.4141 186.046 82.8018 186.304 82.374 186.819C81.9463 187.329 81.7324 187.918 81.7324 188.586V194H80.1504V184.587ZM90.0205 184.376C90.6885 184.376 91.3359 184.534 91.9629 184.851C92.5898 185.161 93.0674 185.565 93.3955 186.063C93.7119 186.538 93.9229 187.092 94.0283 187.725C94.1221 188.158 94.1689 188.85 94.1689 189.799H87.2695C87.2988 190.754 87.5244 191.521 87.9463 192.102C88.3682 192.676 89.0215 192.963 89.9062 192.963C90.7324 192.963 91.3916 192.69 91.8838 192.146C92.165 191.829 92.3643 191.463 92.4814 191.047H94.0371C93.9961 191.393 93.8584 191.779 93.624 192.207C93.3955 192.629 93.1377 192.975 92.8506 193.244C92.3701 193.713 91.7754 194.029 91.0664 194.193C90.6855 194.287 90.2549 194.334 89.7744 194.334C88.6025 194.334 87.6094 193.909 86.7949 193.06C85.9805 192.204 85.5732 191.009 85.5732 189.474C85.5732 187.962 85.9834 186.734 86.8037 185.791C87.624 184.848 88.6963 184.376 90.0205 184.376ZM92.543 188.542C92.4785 187.856 92.3291 187.309 92.0947 186.898C91.6611 186.137 90.9375 185.756 89.9238 185.756C89.1973 185.756 88.5879 186.02 88.0957 186.547C87.6035 187.068 87.3428 187.733 87.3135 188.542H92.543ZM100.093 192.937C100.831 192.937 101.443 192.629 101.93 192.014C102.422 191.393 102.668 190.467 102.668 189.236C102.668 188.486 102.56 187.842 102.343 187.303C101.933 186.266 101.183 185.747 100.093 185.747C98.9971 185.747 98.2471 186.295 97.8428 187.391C97.626 187.977 97.5176 188.721 97.5176 189.623C97.5176 190.35 97.626 190.968 97.8428 191.478C98.2529 192.45 99.0029 192.937 100.093 192.937ZM95.9971 184.631H97.5352V185.879C97.8516 185.451 98.1973 185.12 98.5723 184.886C99.1055 184.534 99.7324 184.358 100.453 184.358C101.52 184.358 102.425 184.769 103.169 185.589C103.913 186.403 104.285 187.569 104.285 189.087C104.285 191.138 103.749 192.603 102.677 193.481C101.997 194.038 101.206 194.316 100.304 194.316C99.5947 194.316 99 194.161 98.5195 193.851C98.2383 193.675 97.9248 193.373 97.5791 192.945V197.753H95.9971V184.631ZM107.353 191.495C107.353 191.952 107.52 192.312 107.854 192.576C108.188 192.84 108.583 192.972 109.04 192.972C109.597 192.972 110.136 192.843 110.657 192.585C111.536 192.157 111.976 191.457 111.976 190.484V189.21C111.782 189.333 111.533 189.436 111.229 189.518C110.924 189.6 110.625 189.658 110.332 189.693L109.374 189.816C108.8 189.893 108.369 190.013 108.082 190.177C107.596 190.452 107.353 190.892 107.353 191.495ZM111.185 188.296C111.548 188.249 111.791 188.097 111.914 187.839C111.984 187.698 112.02 187.496 112.02 187.232C112.02 186.693 111.826 186.304 111.439 186.063C111.059 185.817 110.511 185.694 109.796 185.694C108.97 185.694 108.384 185.917 108.038 186.362C107.845 186.608 107.719 186.975 107.66 187.461H106.184C106.213 186.301 106.588 185.495 107.309 185.044C108.035 184.587 108.876 184.358 109.831 184.358C110.938 184.358 111.838 184.569 112.529 184.991C113.215 185.413 113.558 186.069 113.558 186.96V192.383C113.558 192.547 113.59 192.679 113.654 192.778C113.725 192.878 113.868 192.928 114.085 192.928C114.155 192.928 114.234 192.925 114.322 192.919C114.41 192.907 114.504 192.893 114.604 192.875V194.044C114.357 194.114 114.17 194.158 114.041 194.176C113.912 194.193 113.736 194.202 113.514 194.202C112.969 194.202 112.573 194.009 112.327 193.622C112.198 193.417 112.107 193.127 112.055 192.752C111.732 193.174 111.27 193.54 110.666 193.851C110.062 194.161 109.397 194.316 108.671 194.316C107.798 194.316 107.083 194.053 106.526 193.525C105.976 192.992 105.7 192.327 105.7 191.53C105.7 190.657 105.973 189.98 106.518 189.5C107.062 189.02 107.777 188.724 108.662 188.612L111.185 188.296ZM116.203 184.587H117.706V186.213C117.829 185.896 118.131 185.513 118.611 185.062C119.092 184.604 119.646 184.376 120.272 184.376C120.302 184.376 120.352 184.379 120.422 184.385C120.492 184.391 120.612 184.402 120.782 184.42V186.09C120.688 186.072 120.601 186.061 120.519 186.055C120.442 186.049 120.357 186.046 120.264 186.046C119.467 186.046 118.854 186.304 118.427 186.819C117.999 187.329 117.785 187.918 117.785 188.586V194H116.203V184.587ZM123.366 191.495C123.366 191.952 123.533 192.312 123.867 192.576C124.201 192.84 124.597 192.972 125.054 192.972C125.61 192.972 126.149 192.843 126.671 192.585C127.55 192.157 127.989 191.457 127.989 190.484V189.21C127.796 189.333 127.547 189.436 127.242 189.518C126.938 189.6 126.639 189.658 126.346 189.693L125.388 189.816C124.813 189.893 124.383 190.013 124.096 190.177C123.609 190.452 123.366 190.892 123.366 191.495ZM127.198 188.296C127.562 188.249 127.805 188.097 127.928 187.839C127.998 187.698 128.033 187.496 128.033 187.232C128.033 186.693 127.84 186.304 127.453 186.063C127.072 185.817 126.524 185.694 125.81 185.694C124.983 185.694 124.397 185.917 124.052 186.362C123.858 186.608 123.732 186.975 123.674 187.461H122.197C122.227 186.301 122.602 185.495 123.322 185.044C124.049 184.587 124.89 184.358 125.845 184.358C126.952 184.358 127.852 184.569 128.543 184.991C129.229 185.413 129.571 186.069 129.571 186.96V192.383C129.571 192.547 129.604 192.679 129.668 192.778C129.738 192.878 129.882 192.928 130.099 192.928C130.169 192.928 130.248 192.925 130.336 192.919C130.424 192.907 130.518 192.893 130.617 192.875V194.044C130.371 194.114 130.184 194.158 130.055 194.176C129.926 194.193 129.75 194.202 129.527 194.202C128.982 194.202 128.587 194.009 128.341 193.622C128.212 193.417 128.121 193.127 128.068 192.752C127.746 193.174 127.283 193.54 126.68 193.851C126.076 194.161 125.411 194.316 124.685 194.316C123.812 194.316 123.097 194.053 122.54 193.525C121.989 192.992 121.714 192.327 121.714 191.53C121.714 190.657 121.986 189.98 122.531 189.5C123.076 189.02 123.791 188.724 124.676 188.612L127.198 188.296ZM132.489 181.959H134.089V184.587H135.592V185.879H134.089V192.022C134.089 192.351 134.2 192.57 134.423 192.682C134.546 192.746 134.751 192.778 135.038 192.778C135.114 192.778 135.196 192.778 135.284 192.778C135.372 192.772 135.475 192.764 135.592 192.752V194C135.41 194.053 135.22 194.091 135.021 194.114C134.827 194.138 134.616 194.149 134.388 194.149C133.649 194.149 133.148 193.962 132.885 193.587C132.621 193.206 132.489 192.714 132.489 192.11V185.879H131.215V184.587H132.489V181.959ZM137.183 184.631H138.791V194H137.183V184.631ZM137.183 181.089H138.791V182.882H137.183V181.089ZM144.926 192.98C145.975 192.98 146.692 192.585 147.079 191.794C147.472 190.997 147.668 190.112 147.668 189.14C147.668 188.261 147.527 187.546 147.246 186.995C146.801 186.128 146.033 185.694 144.943 185.694C143.977 185.694 143.273 186.063 142.834 186.802C142.395 187.54 142.175 188.431 142.175 189.474C142.175 190.476 142.395 191.311 142.834 191.979C143.273 192.646 143.971 192.98 144.926 192.98ZM144.987 184.314C146.2 184.314 147.226 184.719 148.063 185.527C148.901 186.336 149.32 187.525 149.32 189.096C149.32 190.613 148.951 191.867 148.213 192.857C147.475 193.848 146.329 194.343 144.776 194.343C143.481 194.343 142.453 193.906 141.691 193.033C140.93 192.154 140.549 190.977 140.549 189.5C140.549 187.918 140.95 186.658 141.753 185.721C142.556 184.783 143.634 184.314 144.987 184.314ZM151.21 184.587H152.713V185.923C153.158 185.372 153.63 184.977 154.128 184.736C154.626 184.496 155.18 184.376 155.789 184.376C157.125 184.376 158.027 184.842 158.496 185.773C158.754 186.283 158.883 187.013 158.883 187.962V194H157.274V188.067C157.274 187.493 157.189 187.03 157.02 186.679C156.738 186.093 156.229 185.8 155.49 185.8C155.115 185.8 154.808 185.838 154.567 185.914C154.134 186.043 153.753 186.301 153.425 186.688C153.161 186.998 152.988 187.32 152.906 187.654C152.83 187.982 152.792 188.454 152.792 189.069V194H151.21V184.587Z" fill="#07008F"/>
<line x1="274.5" y1="137" x2="274.5" y2="241" stroke="#0000FF"/>
<path d="M237.007 89.0889H242.816C243.965 89.0889 244.891 89.4141 245.594 90.0645C246.297 90.709 246.648 91.6172 246.648 92.7891C246.648 93.7969 246.335 94.6758 245.708 95.4258C245.081 96.1699 244.117 96.542 242.816 96.542H238.756V102H237.007V89.0889ZM244.882 92.7979C244.882 91.8486 244.53 91.2041 243.827 90.8643C243.44 90.6826 242.91 90.5918 242.236 90.5918H238.756V95.0654H242.236C243.021 95.0654 243.657 94.8984 244.144 94.5645C244.636 94.2305 244.882 93.6416 244.882 92.7979ZM248.679 92.5869H250.182V94.2129C250.305 93.8965 250.606 93.5127 251.087 93.0615C251.567 92.6045 252.121 92.376 252.748 92.376C252.777 92.376 252.827 92.3789 252.897 92.3848C252.968 92.3906 253.088 92.4023 253.258 92.4199V94.0898C253.164 94.0723 253.076 94.0605 252.994 94.0547C252.918 94.0488 252.833 94.0459 252.739 94.0459C251.942 94.0459 251.33 94.3037 250.902 94.8193C250.475 95.3291 250.261 95.918 250.261 96.5859V102H248.679V92.5869ZM258.549 92.376C259.217 92.376 259.864 92.5342 260.491 92.8506C261.118 93.1611 261.596 93.5654 261.924 94.0635C262.24 94.5381 262.451 95.0918 262.557 95.7246C262.65 96.1582 262.697 96.8496 262.697 97.7988H255.798C255.827 98.7539 256.053 99.5215 256.475 100.102C256.896 100.676 257.55 100.963 258.435 100.963C259.261 100.963 259.92 100.69 260.412 100.146C260.693 99.8291 260.893 99.4629 261.01 99.0469H262.565C262.524 99.3926 262.387 99.7793 262.152 100.207C261.924 100.629 261.666 100.975 261.379 101.244C260.898 101.713 260.304 102.029 259.595 102.193C259.214 102.287 258.783 102.334 258.303 102.334C257.131 102.334 256.138 101.909 255.323 101.06C254.509 100.204 254.102 99.0088 254.102 97.4736C254.102 95.9619 254.512 94.7344 255.332 93.791C256.152 92.8477 257.225 92.376 258.549 92.376ZM261.071 96.542C261.007 95.8564 260.857 95.3086 260.623 94.8984C260.189 94.1367 259.466 93.7559 258.452 93.7559C257.726 93.7559 257.116 94.0195 256.624 94.5469C256.132 95.0684 255.871 95.7334 255.842 96.542H261.071ZM264.235 96.1729H268.647V97.7988H264.235V96.1729ZM271.583 99.0469C271.63 99.5742 271.762 99.9785 271.979 100.26C272.377 100.77 273.068 101.024 274.053 101.024C274.639 101.024 275.154 100.898 275.6 100.646C276.045 100.389 276.268 99.9932 276.268 99.46C276.268 99.0557 276.089 98.748 275.731 98.5371C275.503 98.4082 275.052 98.2588 274.378 98.0889L273.121 97.7725C272.318 97.5732 271.727 97.3506 271.346 97.1045C270.666 96.6768 270.326 96.085 270.326 95.3291C270.326 94.4385 270.646 93.7178 271.284 93.167C271.929 92.6162 272.793 92.3408 273.877 92.3408C275.295 92.3408 276.317 92.7568 276.944 93.5889C277.337 94.1162 277.527 94.6846 277.516 95.2939H276.021C275.992 94.9365 275.866 94.6113 275.644 94.3184C275.28 93.9023 274.65 93.6943 273.754 93.6943C273.156 93.6943 272.702 93.8086 272.392 94.0371C272.087 94.2656 271.935 94.5674 271.935 94.9424C271.935 95.3525 272.137 95.6807 272.541 95.9268C272.775 96.0732 273.121 96.2021 273.578 96.3135L274.624 96.5684C275.761 96.8438 276.522 97.1104 276.909 97.3682C277.524 97.7725 277.832 98.4082 277.832 99.2754C277.832 100.113 277.513 100.837 276.874 101.446C276.241 102.056 275.274 102.36 273.974 102.36C272.573 102.36 271.58 102.044 270.994 101.411C270.414 100.772 270.104 99.9844 270.062 99.0469H271.583ZM279.959 89.959H281.559V92.5869H283.062V93.8789H281.559V100.022C281.559 100.351 281.67 100.57 281.893 100.682C282.016 100.746 282.221 100.778 282.508 100.778C282.584 100.778 282.666 100.778 282.754 100.778C282.842 100.772 282.944 100.764 283.062 100.752V102C282.88 102.053 282.689 102.091 282.49 102.114C282.297 102.138 282.086 102.149 281.857 102.149C281.119 102.149 280.618 101.962 280.354 101.587C280.091 101.206 279.959 100.714 279.959 100.11V93.8789H278.685V92.5869H279.959V89.959ZM286.234 92.5869V98.8359C286.234 99.3164 286.311 99.709 286.463 100.014C286.744 100.576 287.269 100.857 288.036 100.857C289.138 100.857 289.888 100.365 290.286 99.3809C290.503 98.8535 290.611 98.1299 290.611 97.21V92.5869H292.193V102H290.699L290.717 100.611C290.512 100.969 290.257 101.271 289.952 101.517C289.349 102.009 288.616 102.255 287.755 102.255C286.413 102.255 285.499 101.807 285.013 100.91C284.749 100.43 284.617 99.7881 284.617 98.9854V92.5869H286.234ZM295.674 97.4033C295.674 98.4111 295.888 99.2549 296.315 99.9346C296.743 100.614 297.429 100.954 298.372 100.954C299.104 100.954 299.705 100.641 300.174 100.014C300.648 99.3809 300.886 98.4756 300.886 97.2979C300.886 96.1084 300.643 95.2295 300.156 94.6611C299.67 94.0869 299.069 93.7998 298.354 93.7998C297.558 93.7998 296.91 94.1045 296.412 94.7139C295.92 95.3232 295.674 96.2197 295.674 97.4033ZM298.056 92.4199C298.776 92.4199 299.38 92.5723 299.866 92.877C300.147 93.0527 300.467 93.3604 300.824 93.7998V89.0449H302.345V102H300.921V100.69C300.552 101.271 300.115 101.689 299.611 101.947C299.107 102.205 298.53 102.334 297.88 102.334C296.831 102.334 295.923 101.895 295.155 101.016C294.388 100.131 294.004 98.9561 294.004 97.4912C294.004 96.1201 294.353 94.9336 295.05 93.9316C295.753 92.9238 296.755 92.4199 298.056 92.4199ZM310.571 92.5869H312.32C312.098 93.1904 311.603 94.5674 310.835 96.7178C310.261 98.335 309.78 99.6533 309.394 100.673C308.479 103.075 307.835 104.54 307.46 105.067C307.085 105.595 306.44 105.858 305.526 105.858C305.304 105.858 305.131 105.85 305.008 105.832C304.891 105.814 304.744 105.782 304.568 105.735V104.294C304.844 104.37 305.043 104.417 305.166 104.435C305.289 104.452 305.397 104.461 305.491 104.461C305.784 104.461 305.998 104.411 306.133 104.312C306.273 104.218 306.391 104.101 306.484 103.96C306.514 103.913 306.619 103.673 306.801 103.239C306.982 102.806 307.114 102.483 307.196 102.272L303.716 92.5869H305.509L308.031 100.251L310.571 92.5869ZM257.512 110.045H259.05V114.729C259.396 114.278 259.809 113.936 260.289 113.701C260.77 113.461 261.291 113.341 261.854 113.341C263.025 113.341 263.975 113.745 264.701 114.554C265.434 115.356 265.8 116.543 265.8 118.113C265.8 119.602 265.439 120.838 264.719 121.822C263.998 122.807 262.999 123.299 261.722 123.299C261.007 123.299 260.403 123.126 259.911 122.78C259.618 122.575 259.305 122.247 258.971 121.796V123H257.512V110.045ZM261.625 121.901C262.48 121.901 263.119 121.562 263.541 120.882C263.969 120.202 264.183 119.306 264.183 118.192C264.183 117.202 263.969 116.382 263.541 115.731C263.119 115.081 262.495 114.756 261.669 114.756C260.948 114.756 260.315 115.022 259.771 115.556C259.231 116.089 258.962 116.968 258.962 118.192C258.962 119.077 259.073 119.795 259.296 120.346C259.712 121.383 260.488 121.901 261.625 121.901ZM267.698 113.587H269.201V115.213C269.324 114.896 269.626 114.513 270.106 114.062C270.587 113.604 271.141 113.376 271.768 113.376C271.797 113.376 271.847 113.379 271.917 113.385C271.987 113.391 272.107 113.402 272.277 113.42V115.09C272.184 115.072 272.096 115.061 272.014 115.055C271.938 115.049 271.853 115.046 271.759 115.046C270.962 115.046 270.35 115.304 269.922 115.819C269.494 116.329 269.28 116.918 269.28 117.586V123H267.698V113.587ZM273.648 113.631H275.257V123H273.648V113.631ZM273.648 110.089H275.257V111.882H273.648V110.089ZM281.576 113.376C282.244 113.376 282.892 113.534 283.519 113.851C284.146 114.161 284.623 114.565 284.951 115.063C285.268 115.538 285.479 116.092 285.584 116.725C285.678 117.158 285.725 117.85 285.725 118.799H278.825C278.854 119.754 279.08 120.521 279.502 121.102C279.924 121.676 280.577 121.963 281.462 121.963C282.288 121.963 282.947 121.69 283.439 121.146C283.721 120.829 283.92 120.463 284.037 120.047H285.593C285.552 120.393 285.414 120.779 285.18 121.207C284.951 121.629 284.693 121.975 284.406 122.244C283.926 122.713 283.331 123.029 282.622 123.193C282.241 123.287 281.811 123.334 281.33 123.334C280.158 123.334 279.165 122.909 278.351 122.06C277.536 121.204 277.129 120.009 277.129 118.474C277.129 116.962 277.539 115.734 278.359 114.791C279.18 113.848 280.252 113.376 281.576 113.376ZM284.099 117.542C284.034 116.856 283.885 116.309 283.65 115.898C283.217 115.137 282.493 114.756 281.479 114.756C280.753 114.756 280.144 115.02 279.651 115.547C279.159 116.068 278.898 116.733 278.869 117.542H284.099ZM288.071 112.154C288.095 111.498 288.209 111.018 288.414 110.713C288.783 110.174 289.495 109.904 290.55 109.904C290.649 109.904 290.752 109.907 290.857 109.913C290.963 109.919 291.083 109.928 291.218 109.939V111.381C291.054 111.369 290.934 111.363 290.857 111.363C290.787 111.357 290.72 111.354 290.655 111.354C290.175 111.354 289.888 111.48 289.794 111.732C289.7 111.979 289.653 112.611 289.653 113.631H291.218V114.879H289.636V123H288.071V114.879H286.762V113.631H288.071V112.154Z" fill="#0000FF"/>
<line x1="121.003" y1="249.5" x2="264.004" y2="250.5" stroke="black"/>
<line x1="626" y1="248.5" x2="769" y2="248.5" stroke="black"/>
<line x1="284" y1="249.5" x2="321" y2="249.5" stroke="black"/>
<line x1="341" y1="249.5" x2="378" y2="249.5" stroke="black"/>
<line x1="398" y1="249.5" x2="435" y2="249.5" stroke="black"/>
<line x1="455" y1="249.5" x2="492" y2="249.5" stroke="black"/>
<line x1="512" y1="249.5" x2="549" y2="249.5" stroke="black"/>
<line x1="569" y1="249.5" x2="606" y2="249.5" stroke="black"/>
<line x1="329.5" y1="239" x2="329.5" y2="194" stroke="#00A035"/>
<line x1="330" y1="193.5" x2="410" y2="193.5" stroke="#00FF55"/>
<line x1="329" y1="193.5" x2="411" y2="193.5" stroke="#00A035"/>
<line x1="477" y1="193.5" x2="560" y2="193.5" stroke="#00A035"/>
<line x1="559.5" y1="194" x2="559.5" y2="239" stroke="#00A035"/>
<line x1="616" y1="135" x2="616" y2="239" stroke="#FF5100"/>
<path d="M423.986 176.834C424.027 177.566 424.2 178.161 424.505 178.618C425.085 179.474 426.107 179.901 427.572 179.901C428.229 179.901 428.826 179.808 429.365 179.62C430.408 179.257 430.93 178.606 430.93 177.669C430.93 176.966 430.71 176.465 430.271 176.166C429.825 175.873 429.128 175.618 428.179 175.401L426.43 175.006C425.287 174.748 424.479 174.464 424.004 174.153C423.184 173.614 422.773 172.809 422.773 171.736C422.773 170.576 423.175 169.624 423.978 168.88C424.78 168.136 425.917 167.764 427.388 167.764C428.741 167.764 429.89 168.092 430.833 168.748C431.782 169.398 432.257 170.441 432.257 171.877H430.613C430.525 171.186 430.338 170.655 430.051 170.286C429.518 169.612 428.612 169.275 427.335 169.275C426.304 169.275 425.562 169.492 425.111 169.926C424.66 170.359 424.435 170.863 424.435 171.438C424.435 172.07 424.698 172.533 425.226 172.826C425.571 173.014 426.354 173.248 427.572 173.529L429.383 173.942C430.256 174.142 430.93 174.414 431.404 174.76C432.225 175.363 432.635 176.239 432.635 177.388C432.635 178.817 432.113 179.84 431.07 180.455C430.033 181.07 428.826 181.378 427.449 181.378C425.844 181.378 424.587 180.968 423.679 180.147C422.771 179.333 422.325 178.229 422.343 176.834H423.986ZM434.955 168.959H436.555V171.587H438.058V172.879H436.555V179.022C436.555 179.351 436.666 179.57 436.889 179.682C437.012 179.746 437.217 179.778 437.504 179.778C437.58 179.778 437.662 179.778 437.75 179.778C437.838 179.772 437.94 179.764 438.058 179.752V181C437.876 181.053 437.686 181.091 437.486 181.114C437.293 181.138 437.082 181.149 436.854 181.149C436.115 181.149 435.614 180.962 435.351 180.587C435.087 180.206 434.955 179.714 434.955 179.11V172.879H433.681V171.587H434.955V168.959ZM441.23 171.587V177.836C441.23 178.316 441.307 178.709 441.459 179.014C441.74 179.576 442.265 179.857 443.032 179.857C444.134 179.857 444.884 179.365 445.282 178.381C445.499 177.854 445.607 177.13 445.607 176.21V171.587H447.189V181H445.695L445.713 179.611C445.508 179.969 445.253 180.271 444.948 180.517C444.345 181.009 443.612 181.255 442.751 181.255C441.409 181.255 440.495 180.807 440.009 179.91C439.745 179.43 439.613 178.788 439.613 177.985V171.587H441.23ZM450.67 176.403C450.67 177.411 450.884 178.255 451.312 178.935C451.739 179.614 452.425 179.954 453.368 179.954C454.101 179.954 454.701 179.641 455.17 179.014C455.645 178.381 455.882 177.476 455.882 176.298C455.882 175.108 455.639 174.229 455.152 173.661C454.666 173.087 454.065 172.8 453.351 172.8C452.554 172.8 451.906 173.104 451.408 173.714C450.916 174.323 450.67 175.22 450.67 176.403ZM453.052 171.42C453.772 171.42 454.376 171.572 454.862 171.877C455.144 172.053 455.463 172.36 455.82 172.8V168.045H457.341V181H455.917V179.69C455.548 180.271 455.111 180.689 454.607 180.947C454.104 181.205 453.526 181.334 452.876 181.334C451.827 181.334 450.919 180.895 450.151 180.016C449.384 179.131 449 177.956 449 176.491C449 175.12 449.349 173.934 450.046 172.932C450.749 171.924 451.751 171.42 453.052 171.42ZM465.567 171.587H467.316C467.094 172.19 466.599 173.567 465.831 175.718C465.257 177.335 464.776 178.653 464.39 179.673C463.476 182.075 462.831 183.54 462.456 184.067C462.081 184.595 461.437 184.858 460.522 184.858C460.3 184.858 460.127 184.85 460.004 184.832C459.887 184.814 459.74 184.782 459.564 184.735V183.294C459.84 183.37 460.039 183.417 460.162 183.435C460.285 183.452 460.394 183.461 460.487 183.461C460.78 183.461 460.994 183.411 461.129 183.312C461.27 183.218 461.387 183.101 461.48 182.96C461.51 182.913 461.615 182.673 461.797 182.239C461.979 181.806 462.11 181.483 462.192 181.272L458.712 171.587H460.505L463.027 179.251L465.567 171.587ZM424.593 200.937C425.331 200.937 425.943 200.629 426.43 200.014C426.922 199.393 427.168 198.467 427.168 197.236C427.168 196.486 427.06 195.842 426.843 195.303C426.433 194.266 425.683 193.747 424.593 193.747C423.497 193.747 422.747 194.295 422.343 195.391C422.126 195.977 422.018 196.721 422.018 197.623C422.018 198.35 422.126 198.968 422.343 199.478C422.753 200.45 423.503 200.937 424.593 200.937ZM420.497 192.631H422.035V193.879C422.352 193.451 422.697 193.12 423.072 192.886C423.605 192.534 424.232 192.358 424.953 192.358C426.02 192.358 426.925 192.769 427.669 193.589C428.413 194.403 428.785 195.569 428.785 197.087C428.785 199.138 428.249 200.603 427.177 201.481C426.497 202.038 425.706 202.316 424.804 202.316C424.095 202.316 423.5 202.161 423.02 201.851C422.738 201.675 422.425 201.373 422.079 200.945V205.753H420.497V192.631ZM434.56 192.376C435.228 192.376 435.875 192.534 436.502 192.851C437.129 193.161 437.606 193.565 437.935 194.063C438.251 194.538 438.462 195.092 438.567 195.725C438.661 196.158 438.708 196.85 438.708 197.799H431.809C431.838 198.754 432.063 199.521 432.485 200.102C432.907 200.676 433.561 200.963 434.445 200.963C435.271 200.963 435.931 200.69 436.423 200.146C436.704 199.829 436.903 199.463 437.021 199.047H438.576C438.535 199.393 438.397 199.779 438.163 200.207C437.935 200.629 437.677 200.975 437.39 201.244C436.909 201.713 436.314 202.029 435.605 202.193C435.225 202.287 434.794 202.334 434.313 202.334C433.142 202.334 432.148 201.909 431.334 201.06C430.52 200.204 430.112 199.009 430.112 197.474C430.112 195.962 430.522 194.734 431.343 193.791C432.163 192.848 433.235 192.376 434.56 192.376ZM437.082 196.542C437.018 195.856 436.868 195.309 436.634 194.898C436.2 194.137 435.477 193.756 434.463 193.756C433.736 193.756 433.127 194.02 432.635 194.547C432.143 195.068 431.882 195.733 431.853 196.542H437.082ZM440.703 192.587H442.206V194.213C442.329 193.896 442.631 193.513 443.111 193.062C443.592 192.604 444.146 192.376 444.772 192.376C444.802 192.376 444.852 192.379 444.922 192.385C444.992 192.391 445.112 192.402 445.282 192.42V194.09C445.188 194.072 445.101 194.061 445.019 194.055C444.942 194.049 444.857 194.046 444.764 194.046C443.967 194.046 443.354 194.304 442.927 194.819C442.499 195.329 442.285 195.918 442.285 196.586V202H440.703V192.587ZM446.653 192.631H448.262V202H446.653V192.631ZM446.653 189.089H448.262V190.882H446.653V189.089ZM454.396 200.98C455.445 200.98 456.163 200.585 456.55 199.794C456.942 198.997 457.139 198.112 457.139 197.14C457.139 196.261 456.998 195.546 456.717 194.995C456.271 194.128 455.504 193.694 454.414 193.694C453.447 193.694 452.744 194.063 452.305 194.802C451.865 195.54 451.646 196.431 451.646 197.474C451.646 198.476 451.865 199.311 452.305 199.979C452.744 200.646 453.441 200.98 454.396 200.98ZM454.458 192.314C455.671 192.314 456.696 192.719 457.534 193.527C458.372 194.336 458.791 195.525 458.791 197.096C458.791 198.613 458.422 199.867 457.684 200.857C456.945 201.848 455.8 202.343 454.247 202.343C452.952 202.343 451.924 201.906 451.162 201.033C450.4 200.154 450.02 198.977 450.02 197.5C450.02 195.918 450.421 194.658 451.224 193.721C452.026 192.783 453.104 192.314 454.458 192.314ZM461.683 197.403C461.683 198.411 461.896 199.255 462.324 199.935C462.752 200.614 463.438 200.954 464.381 200.954C465.113 200.954 465.714 200.641 466.183 200.014C466.657 199.381 466.895 198.476 466.895 197.298C466.895 196.108 466.651 195.229 466.165 194.661C465.679 194.087 465.078 193.8 464.363 193.8C463.566 193.8 462.919 194.104 462.421 194.714C461.929 195.323 461.683 196.22 461.683 197.403ZM464.064 192.42C464.785 192.42 465.389 192.572 465.875 192.877C466.156 193.053 466.476 193.36 466.833 193.8V189.045H468.354V202H466.93V200.69C466.561 201.271 466.124 201.689 465.62 201.947C465.116 202.205 464.539 202.334 463.889 202.334C462.84 202.334 461.932 201.895 461.164 201.016C460.396 200.131 460.013 198.956 460.013 197.491C460.013 196.12 460.361 194.934 461.059 193.932C461.762 192.924 462.764 192.42 464.064 192.42Z" fill="#00A035"/>
<path d="M574.999 89.0889H580.809C581.957 89.0889 582.883 89.4141 583.586 90.0645C584.289 90.709 584.641 91.6172 584.641 92.7891C584.641 93.7969 584.327 94.6758 583.7 95.4258C583.073 96.1699 582.109 96.542 580.809 96.542H576.748V102H574.999V89.0889ZM582.874 92.7979C582.874 91.8486 582.522 91.2041 581.819 90.8643C581.433 90.6826 580.902 90.5918 580.229 90.5918H576.748V95.0654H580.229C581.014 95.0654 581.649 94.8984 582.136 94.5645C582.628 94.2305 582.874 93.6416 582.874 92.7979ZM590.362 100.98C591.411 100.98 592.129 100.585 592.516 99.7939C592.908 98.9971 593.104 98.1123 593.104 97.1396C593.104 96.2607 592.964 95.5459 592.683 94.9951C592.237 94.1279 591.47 93.6943 590.38 93.6943C589.413 93.6943 588.71 94.0635 588.271 94.8018C587.831 95.54 587.611 96.4307 587.611 97.4736C587.611 98.4756 587.831 99.3105 588.271 99.9785C588.71 100.646 589.407 100.98 590.362 100.98ZM590.424 92.3145C591.637 92.3145 592.662 92.7188 593.5 93.5273C594.338 94.3359 594.757 95.5254 594.757 97.0957C594.757 98.6133 594.388 99.8672 593.649 100.857C592.911 101.848 591.766 102.343 590.213 102.343C588.918 102.343 587.89 101.906 587.128 101.033C586.366 100.154 585.985 98.9766 585.985 97.5C585.985 95.918 586.387 94.6582 587.189 93.7207C587.992 92.7832 589.07 92.3145 590.424 92.3145ZM597.587 99.0469C597.634 99.5742 597.766 99.9785 597.982 100.26C598.381 100.77 599.072 101.024 600.057 101.024C600.643 101.024 601.158 100.898 601.604 100.646C602.049 100.389 602.271 99.9932 602.271 99.46C602.271 99.0557 602.093 98.748 601.735 98.5371C601.507 98.4082 601.056 98.2588 600.382 98.0889L599.125 97.7725C598.322 97.5732 597.73 97.3506 597.35 97.1045C596.67 96.6768 596.33 96.085 596.33 95.3291C596.33 94.4385 596.649 93.7178 597.288 93.167C597.933 92.6162 598.797 92.3408 599.881 92.3408C601.299 92.3408 602.321 92.7568 602.948 93.5889C603.341 94.1162 603.531 94.6846 603.52 95.2939H602.025C601.996 94.9365 601.87 94.6113 601.647 94.3184C601.284 93.9023 600.654 93.6943 599.758 93.6943C599.16 93.6943 598.706 93.8086 598.396 94.0371C598.091 94.2656 597.938 94.5674 597.938 94.9424C597.938 95.3525 598.141 95.6807 598.545 95.9268C598.779 96.0732 599.125 96.2021 599.582 96.3135L600.628 96.5684C601.765 96.8438 602.526 97.1104 602.913 97.3682C603.528 97.7725 603.836 98.4082 603.836 99.2754C603.836 100.113 603.517 100.837 602.878 101.446C602.245 102.056 601.278 102.36 599.978 102.36C598.577 102.36 597.584 102.044 596.998 101.411C596.418 100.772 596.107 99.9844 596.066 99.0469H597.587ZM605.963 89.959H607.562V92.5869H609.065V93.8789H607.562V100.022C607.562 100.351 607.674 100.57 607.896 100.682C608.02 100.746 608.225 100.778 608.512 100.778C608.588 100.778 608.67 100.778 608.758 100.778C608.846 100.772 608.948 100.764 609.065 100.752V102C608.884 102.053 608.693 102.091 608.494 102.114C608.301 102.138 608.09 102.149 607.861 102.149C607.123 102.149 606.622 101.962 606.358 101.587C606.095 101.206 605.963 100.714 605.963 100.11V93.8789H604.688V92.5869H605.963V89.959ZM610.243 96.1729H614.655V97.7988H610.243V96.1729ZM617.591 99.0469C617.638 99.5742 617.77 99.9785 617.986 100.26C618.385 100.77 619.076 101.024 620.061 101.024C620.646 101.024 621.162 100.898 621.607 100.646C622.053 100.389 622.275 99.9932 622.275 99.46C622.275 99.0557 622.097 98.748 621.739 98.5371C621.511 98.4082 621.06 98.2588 620.386 98.0889L619.129 97.7725C618.326 97.5732 617.734 97.3506 617.354 97.1045C616.674 96.6768 616.334 96.085 616.334 95.3291C616.334 94.4385 616.653 93.7178 617.292 93.167C617.937 92.6162 618.801 92.3408 619.885 92.3408C621.303 92.3408 622.325 92.7568 622.952 93.5889C623.345 94.1162 623.535 94.6846 623.523 95.2939H622.029C622 94.9365 621.874 94.6113 621.651 94.3184C621.288 93.9023 620.658 93.6943 619.762 93.6943C619.164 93.6943 618.71 93.8086 618.399 94.0371C618.095 94.2656 617.942 94.5674 617.942 94.9424C617.942 95.3525 618.145 95.6807 618.549 95.9268C618.783 96.0732 619.129 96.2021 619.586 96.3135L620.632 96.5684C621.769 96.8438 622.53 97.1104 622.917 97.3682C623.532 97.7725 623.84 98.4082 623.84 99.2754C623.84 100.113 623.521 100.837 622.882 101.446C622.249 102.056 621.282 102.36 619.981 102.36C618.581 102.36 617.588 102.044 617.002 101.411C616.422 100.772 616.111 99.9844 616.07 99.0469H617.591ZM625.967 89.959H627.566V92.5869H629.069V93.8789H627.566V100.022C627.566 100.351 627.678 100.57 627.9 100.682C628.023 100.746 628.229 100.778 628.516 100.778C628.592 100.778 628.674 100.778 628.762 100.778C628.85 100.772 628.952 100.764 629.069 100.752V102C628.888 102.053 628.697 102.091 628.498 102.114C628.305 102.138 628.094 102.149 627.865 102.149C627.127 102.149 626.626 101.962 626.362 101.587C626.099 101.206 625.967 100.714 625.967 100.11V93.8789H624.692V92.5869H625.967V89.959ZM632.242 92.5869V98.8359C632.242 99.3164 632.318 99.709 632.471 100.014C632.752 100.576 633.276 100.857 634.044 100.857C635.146 100.857 635.896 100.365 636.294 99.3809C636.511 98.8535 636.619 98.1299 636.619 97.21V92.5869H638.201V102H636.707L636.725 100.611C636.52 100.969 636.265 101.271 635.96 101.517C635.356 102.009 634.624 102.255 633.763 102.255C632.421 102.255 631.507 101.807 631.021 100.91C630.757 100.43 630.625 99.7881 630.625 98.9854V92.5869H632.242ZM641.682 97.4033C641.682 98.4111 641.896 99.2549 642.323 99.9346C642.751 100.614 643.437 100.954 644.38 100.954C645.112 100.954 645.713 100.641 646.182 100.014C646.656 99.3809 646.894 98.4756 646.894 97.2979C646.894 96.1084 646.65 95.2295 646.164 94.6611C645.678 94.0869 645.077 93.7998 644.362 93.7998C643.565 93.7998 642.918 94.1045 642.42 94.7139C641.928 95.3232 641.682 96.2197 641.682 97.4033ZM644.063 92.4199C644.784 92.4199 645.388 92.5723 645.874 92.877C646.155 93.0527 646.475 93.3604 646.832 93.7998V89.0449H648.353V102H646.929V100.69C646.56 101.271 646.123 101.689 645.619 101.947C645.115 102.205 644.538 102.334 643.888 102.334C642.839 102.334 641.931 101.895 641.163 101.016C640.396 100.131 640.012 98.9561 640.012 97.4912C640.012 96.1201 640.36 94.9336 641.058 93.9316C641.761 92.9238 642.763 92.4199 644.063 92.4199ZM656.579 92.5869H658.328C658.105 93.1904 657.61 94.5674 656.843 96.7178C656.269 98.335 655.788 99.6533 655.401 100.673C654.487 103.075 653.843 104.54 653.468 105.067C653.093 105.595 652.448 105.858 651.534 105.858C651.312 105.858 651.139 105.85 651.016 105.832C650.898 105.814 650.752 105.782 650.576 105.735V104.294C650.852 104.37 651.051 104.417 651.174 104.435C651.297 104.452 651.405 104.461 651.499 104.461C651.792 104.461 652.006 104.411 652.141 104.312C652.281 104.218 652.398 104.101 652.492 103.96C652.521 103.913 652.627 103.673 652.809 103.239C652.99 102.806 653.122 102.483 653.204 102.272L649.724 92.5869H651.517L654.039 100.251L656.579 92.5869ZM581.617 113.631H583.226V123H581.617V113.631ZM581.617 110.089H583.226V111.882H581.617V110.089ZM585.625 113.587H587.128V114.923C587.573 114.372 588.045 113.977 588.543 113.736C589.041 113.496 589.595 113.376 590.204 113.376C591.54 113.376 592.442 113.842 592.911 114.773C593.169 115.283 593.298 116.013 593.298 116.962V123H591.689V117.067C591.689 116.493 591.604 116.03 591.435 115.679C591.153 115.093 590.644 114.8 589.905 114.8C589.53 114.8 589.223 114.838 588.982 114.914C588.549 115.043 588.168 115.301 587.84 115.688C587.576 115.998 587.403 116.32 587.321 116.654C587.245 116.982 587.207 117.454 587.207 118.069V123H585.625V113.587ZM595.961 110.959H597.561V113.587H599.063V114.879H597.561V121.022C597.561 121.351 597.672 121.57 597.895 121.682C598.018 121.746 598.223 121.778 598.51 121.778C598.586 121.778 598.668 121.778 598.756 121.778C598.844 121.772 598.946 121.764 599.063 121.752V123C598.882 123.053 598.691 123.091 598.492 123.114C598.299 123.138 598.088 123.149 597.859 123.149C597.121 123.149 596.62 122.962 596.356 122.587C596.093 122.206 595.961 121.714 595.961 121.11V114.879H594.687V113.587H595.961V110.959ZM604.574 113.376C605.242 113.376 605.89 113.534 606.517 113.851C607.144 114.161 607.621 114.565 607.949 115.063C608.266 115.538 608.477 116.092 608.582 116.725C608.676 117.158 608.723 117.85 608.723 118.799H601.823C601.853 119.754 602.078 120.521 602.5 121.102C602.922 121.676 603.575 121.963 604.46 121.963C605.286 121.963 605.945 121.69 606.438 121.146C606.719 120.829 606.918 120.463 607.035 120.047H608.591C608.55 120.393 608.412 120.779 608.178 121.207C607.949 121.629 607.691 121.975 607.404 122.244C606.924 122.713 606.329 123.029 605.62 123.193C605.239 123.287 604.809 123.334 604.328 123.334C603.156 123.334 602.163 122.909 601.349 122.06C600.534 121.204 600.127 120.009 600.127 118.474C600.127 116.962 600.537 115.734 601.357 114.791C602.178 113.848 603.25 113.376 604.574 113.376ZM607.097 117.542C607.032 116.856 606.883 116.309 606.648 115.898C606.215 115.137 605.491 114.756 604.478 114.756C603.751 114.756 603.142 115.02 602.649 115.547C602.157 116.068 601.896 116.733 601.867 117.542H607.097ZM610.718 113.587H612.221V115.213C612.344 114.896 612.646 114.513 613.126 114.062C613.606 113.604 614.16 113.376 614.787 113.376C614.816 113.376 614.866 113.379 614.937 113.385C615.007 113.391 615.127 113.402 615.297 113.42V115.09C615.203 115.072 615.115 115.061 615.033 115.055C614.957 115.049 614.872 115.046 614.778 115.046C613.981 115.046 613.369 115.304 612.941 115.819C612.514 116.329 612.3 116.918 612.3 117.586V123H610.718V113.587ZM617.441 113.587L619.955 121.251L622.583 113.587H624.314L620.764 123H619.076L615.604 113.587H617.441ZM625.668 113.631H627.276V123H625.668V113.631ZM625.668 110.089H627.276V111.882H625.668V110.089ZM633.596 113.376C634.264 113.376 634.911 113.534 635.538 113.851C636.165 114.161 636.643 114.565 636.971 115.063C637.287 115.538 637.498 116.092 637.604 116.725C637.697 117.158 637.744 117.85 637.744 118.799H630.845C630.874 119.754 631.1 120.521 631.521 121.102C631.943 121.676 632.597 121.963 633.481 121.963C634.308 121.963 634.967 121.69 635.459 121.146C635.74 120.829 635.939 120.463 636.057 120.047H637.612C637.571 120.393 637.434 120.779 637.199 121.207C636.971 121.629 636.713 121.975 636.426 122.244C635.945 122.713 635.351 123.029 634.642 123.193C634.261 123.287 633.83 123.334 633.35 123.334C632.178 123.334 631.185 122.909 630.37 122.06C629.556 121.204 629.148 120.009 629.148 118.474C629.148 116.962 629.559 115.734 630.379 114.791C631.199 113.848 632.271 113.376 633.596 113.376ZM636.118 117.542C636.054 116.856 635.904 116.309 635.67 115.898C635.236 115.137 634.513 114.756 633.499 114.756C632.772 114.756 632.163 115.02 631.671 115.547C631.179 116.068 630.918 116.733 630.889 117.542H636.118ZM640.425 113.587L642.235 121.005L644.072 113.587H645.848L647.693 120.961L649.618 113.587H651.2L648.467 123H646.823L644.907 115.714L643.053 123H641.409L638.693 113.587H640.425Z" fill="#FF5100"/>
<path d="M763.795 171.506C764.387 171.506 764.873 171.444 765.254 171.321C765.934 171.093 766.49 170.653 766.924 170.003C767.27 169.481 767.519 168.813 767.671 167.999C767.759 167.513 767.803 167.062 767.803 166.646C767.803 165.046 767.483 163.804 766.845 162.919C766.212 162.034 765.189 161.592 763.777 161.592H760.675V171.506H763.795ZM758.917 160.089H764.146C765.922 160.089 767.299 160.719 768.277 161.979C769.15 163.115 769.587 164.571 769.587 166.347C769.587 167.718 769.329 168.957 768.813 170.064C767.905 172.021 766.344 173 764.129 173H758.917V160.089ZM772.848 170.495C772.848 170.952 773.015 171.312 773.349 171.576C773.683 171.84 774.078 171.972 774.535 171.972C775.092 171.972 775.631 171.843 776.152 171.585C777.031 171.157 777.471 170.457 777.471 169.484V168.21C777.277 168.333 777.028 168.436 776.724 168.518C776.419 168.6 776.12 168.658 775.827 168.693L774.869 168.816C774.295 168.893 773.864 169.013 773.577 169.177C773.091 169.452 772.848 169.892 772.848 170.495ZM776.68 167.296C777.043 167.249 777.286 167.097 777.409 166.839C777.479 166.698 777.515 166.496 777.515 166.232C777.515 165.693 777.321 165.304 776.935 165.063C776.554 164.817 776.006 164.694 775.291 164.694C774.465 164.694 773.879 164.917 773.533 165.362C773.34 165.608 773.214 165.975 773.155 166.461H771.679C771.708 165.301 772.083 164.495 772.804 164.044C773.53 163.587 774.371 163.358 775.326 163.358C776.434 163.358 777.333 163.569 778.024 163.991C778.71 164.413 779.053 165.069 779.053 165.96V171.383C779.053 171.547 779.085 171.679 779.149 171.778C779.22 171.878 779.363 171.928 779.58 171.928C779.65 171.928 779.729 171.925 779.817 171.919C779.905 171.907 779.999 171.893 780.099 171.875V173.044C779.853 173.114 779.665 173.158 779.536 173.176C779.407 173.193 779.231 173.202 779.009 173.202C778.464 173.202 778.068 173.009 777.822 172.622C777.693 172.417 777.603 172.127 777.55 171.752C777.228 172.174 776.765 172.54 776.161 172.851C775.558 173.161 774.893 173.316 774.166 173.316C773.293 173.316 772.578 173.053 772.021 172.525C771.471 171.992 771.195 171.327 771.195 170.53C771.195 169.657 771.468 168.98 772.013 168.5C772.558 168.02 773.272 167.724 774.157 167.612L776.68 167.296ZM781.971 160.959H783.57V163.587H785.073V164.879H783.57V171.022C783.57 171.351 783.682 171.57 783.904 171.682C784.027 171.746 784.232 171.778 784.52 171.778C784.596 171.778 784.678 171.778 784.766 171.778C784.854 171.772 784.956 171.764 785.073 171.752V173C784.892 173.053 784.701 173.091 784.502 173.114C784.309 173.138 784.098 173.149 783.869 173.149C783.131 173.149 782.63 172.962 782.366 172.587C782.103 172.206 781.971 171.714 781.971 171.11V164.879H780.696V163.587H781.971V160.959ZM787.877 170.495C787.877 170.952 788.044 171.312 788.378 171.576C788.712 171.84 789.107 171.972 789.564 171.972C790.121 171.972 790.66 171.843 791.182 171.585C792.061 171.157 792.5 170.457 792.5 169.484V168.21C792.307 168.333 792.058 168.436 791.753 168.518C791.448 168.6 791.149 168.658 790.856 168.693L789.898 168.816C789.324 168.893 788.894 169.013 788.606 169.177C788.12 169.452 787.877 169.892 787.877 170.495ZM791.709 167.296C792.072 167.249 792.315 167.097 792.438 166.839C792.509 166.698 792.544 166.496 792.544 166.232C792.544 165.693 792.351 165.304 791.964 165.063C791.583 164.817 791.035 164.694 790.32 164.694C789.494 164.694 788.908 164.917 788.562 165.362C788.369 165.608 788.243 165.975 788.185 166.461H786.708C786.737 165.301 787.112 164.495 787.833 164.044C788.56 163.587 789.4 163.358 790.355 163.358C791.463 163.358 792.362 163.569 793.054 163.991C793.739 164.413 794.082 165.069 794.082 165.96V171.383C794.082 171.547 794.114 171.679 794.179 171.778C794.249 171.878 794.393 171.928 794.609 171.928C794.68 171.928 794.759 171.925 794.847 171.919C794.935 171.907 795.028 171.893 795.128 171.875V173.044C794.882 173.114 794.694 173.158 794.565 173.176C794.437 173.193 794.261 173.202 794.038 173.202C793.493 173.202 793.098 173.009 792.852 172.622C792.723 172.417 792.632 172.127 792.579 171.752C792.257 172.174 791.794 172.54 791.19 172.851C790.587 173.161 789.922 173.316 789.195 173.316C788.322 173.316 787.607 173.053 787.051 172.525C786.5 171.992 786.225 171.327 786.225 170.53C786.225 169.657 786.497 168.98 787.042 168.5C787.587 168.02 788.302 167.724 789.187 167.612L791.709 167.296ZM748.836 191.495C748.836 191.952 749.003 192.312 749.337 192.576C749.671 192.84 750.066 192.972 750.523 192.972C751.08 192.972 751.619 192.843 752.141 192.585C753.02 192.157 753.459 191.457 753.459 190.484V189.21C753.266 189.333 753.017 189.436 752.712 189.518C752.407 189.6 752.108 189.658 751.815 189.693L750.857 189.816C750.283 189.893 749.853 190.013 749.565 190.177C749.079 190.452 748.836 190.892 748.836 191.495ZM752.668 188.296C753.031 188.249 753.274 188.097 753.397 187.839C753.468 187.698 753.503 187.496 753.503 187.232C753.503 186.693 753.31 186.304 752.923 186.063C752.542 185.817 751.994 185.694 751.279 185.694C750.453 185.694 749.867 185.917 749.521 186.362C749.328 186.608 749.202 186.975 749.144 187.461H747.667C747.696 186.301 748.071 185.495 748.792 185.044C749.519 184.587 750.359 184.358 751.314 184.358C752.422 184.358 753.321 184.569 754.013 184.991C754.698 185.413 755.041 186.069 755.041 186.96V192.383C755.041 192.547 755.073 192.679 755.138 192.778C755.208 192.878 755.352 192.928 755.568 192.928C755.639 192.928 755.718 192.925 755.806 192.919C755.894 192.907 755.987 192.893 756.087 192.875V194.044C755.841 194.114 755.653 194.158 755.524 194.176C755.396 194.193 755.22 194.202 754.997 194.202C754.452 194.202 754.057 194.009 753.811 193.622C753.682 193.417 753.591 193.127 753.538 192.752C753.216 193.174 752.753 193.54 752.149 193.851C751.546 194.161 750.881 194.316 750.154 194.316C749.281 194.316 748.566 194.053 748.01 193.525C747.459 192.992 747.184 192.327 747.184 191.53C747.184 190.657 747.456 189.98 748.001 189.5C748.546 189.02 749.261 188.724 750.146 188.612L752.668 188.296ZM757.643 184.587H759.146V185.923C759.591 185.372 760.062 184.977 760.561 184.736C761.059 184.496 761.612 184.376 762.222 184.376C763.558 184.376 764.46 184.842 764.929 185.773C765.187 186.283 765.315 187.013 765.315 187.962V194H763.707V188.067C763.707 187.493 763.622 187.03 763.452 186.679C763.171 186.093 762.661 185.8 761.923 185.8C761.548 185.8 761.24 185.838 761 185.914C760.566 186.043 760.186 186.301 759.857 186.688C759.594 186.998 759.421 187.32 759.339 187.654C759.263 187.982 759.225 188.454 759.225 189.069V194H757.643V184.587ZM768.875 191.495C768.875 191.952 769.042 192.312 769.376 192.576C769.71 192.84 770.105 192.972 770.562 192.972C771.119 192.972 771.658 192.843 772.18 192.585C773.059 192.157 773.498 191.457 773.498 190.484V189.21C773.305 189.333 773.056 189.436 772.751 189.518C772.446 189.6 772.147 189.658 771.854 189.693L770.896 189.816C770.322 189.893 769.892 190.013 769.604 190.177C769.118 190.452 768.875 190.892 768.875 191.495ZM772.707 188.296C773.07 188.249 773.313 188.097 773.437 187.839C773.507 187.698 773.542 187.496 773.542 187.232C773.542 186.693 773.349 186.304 772.962 186.063C772.581 185.817 772.033 185.694 771.318 185.694C770.492 185.694 769.906 185.917 769.561 186.362C769.367 186.608 769.241 186.975 769.183 187.461H767.706C767.735 186.301 768.11 185.495 768.831 185.044C769.558 184.587 770.398 184.358 771.354 184.358C772.461 184.358 773.36 184.569 774.052 184.991C774.737 185.413 775.08 186.069 775.08 186.96V192.383C775.08 192.547 775.112 192.679 775.177 192.778C775.247 192.878 775.391 192.928 775.607 192.928C775.678 192.928 775.757 192.925 775.845 192.919C775.933 192.907 776.026 192.893 776.126 192.875V194.044C775.88 194.114 775.692 194.158 775.563 194.176C775.435 194.193 775.259 194.202 775.036 194.202C774.491 194.202 774.096 194.009 773.85 193.622C773.721 193.417 773.63 193.127 773.577 192.752C773.255 193.174 772.792 193.54 772.188 193.851C771.585 194.161 770.92 194.316 770.193 194.316C769.32 194.316 768.605 194.053 768.049 193.525C767.498 192.992 767.223 192.327 767.223 191.53C767.223 190.657 767.495 189.98 768.04 189.5C768.585 189.02 769.3 188.724 770.185 188.612L772.707 188.296ZM777.726 181.089H779.308V194H777.726V181.089ZM787.569 184.587H789.318C789.096 185.19 788.601 186.567 787.833 188.718C787.259 190.335 786.778 191.653 786.392 192.673C785.478 195.075 784.833 196.54 784.458 197.067C784.083 197.595 783.438 197.858 782.524 197.858C782.302 197.858 782.129 197.85 782.006 197.832C781.889 197.814 781.742 197.782 781.566 197.735V196.294C781.842 196.37 782.041 196.417 782.164 196.435C782.287 196.452 782.396 196.461 782.489 196.461C782.782 196.461 782.996 196.411 783.131 196.312C783.271 196.218 783.389 196.101 783.482 195.96C783.512 195.913 783.617 195.673 783.799 195.239C783.98 194.806 784.112 194.483 784.194 194.272L780.714 184.587H782.507L785.029 192.251L787.569 184.587ZM791.63 191.047C791.677 191.574 791.809 191.979 792.025 192.26C792.424 192.77 793.115 193.024 794.1 193.024C794.686 193.024 795.201 192.898 795.646 192.646C796.092 192.389 796.314 191.993 796.314 191.46C796.314 191.056 796.136 190.748 795.778 190.537C795.55 190.408 795.099 190.259 794.425 190.089L793.168 189.772C792.365 189.573 791.773 189.351 791.393 189.104C790.713 188.677 790.373 188.085 790.373 187.329C790.373 186.438 790.692 185.718 791.331 185.167C791.976 184.616 792.84 184.341 793.924 184.341C795.342 184.341 796.364 184.757 796.991 185.589C797.384 186.116 797.574 186.685 797.562 187.294H796.068C796.039 186.937 795.913 186.611 795.69 186.318C795.327 185.902 794.697 185.694 793.801 185.694C793.203 185.694 792.749 185.809 792.438 186.037C792.134 186.266 791.981 186.567 791.981 186.942C791.981 187.353 792.184 187.681 792.588 187.927C792.822 188.073 793.168 188.202 793.625 188.313L794.671 188.568C795.808 188.844 796.569 189.11 796.956 189.368C797.571 189.772 797.879 190.408 797.879 191.275C797.879 192.113 797.56 192.837 796.921 193.446C796.288 194.056 795.321 194.36 794.021 194.36C792.62 194.36 791.627 194.044 791.041 193.411C790.461 192.772 790.15 191.984 790.109 191.047H791.63ZM799.689 184.631H801.298V194H799.689V184.631ZM799.689 181.089H801.298V182.882H799.689V181.089ZM804.638 191.047C804.685 191.574 804.816 191.979 805.033 192.26C805.432 192.77 806.123 193.024 807.107 193.024C807.693 193.024 808.209 192.898 808.654 192.646C809.1 192.389 809.322 191.993 809.322 191.46C809.322 191.056 809.144 190.748 808.786 190.537C808.558 190.408 808.106 190.259 807.433 190.089L806.176 189.772C805.373 189.573 804.781 189.351 804.4 189.104C803.721 188.677 803.381 188.085 803.381 187.329C803.381 186.438 803.7 185.718 804.339 185.167C804.983 184.616 805.848 184.341 806.932 184.341C808.35 184.341 809.372 184.757 809.999 185.589C810.392 186.116 810.582 186.685 810.57 187.294H809.076C809.047 186.937 808.921 186.611 808.698 186.318C808.335 185.902 807.705 185.694 806.809 185.694C806.211 185.694 805.757 185.809 805.446 186.037C805.142 186.266 804.989 186.567 804.989 186.942C804.989 187.353 805.191 187.681 805.596 187.927C805.83 188.073 806.176 188.202 806.633 188.313L807.679 188.568C808.815 188.844 809.577 189.11 809.964 189.368C810.579 189.772 810.887 190.408 810.887 191.275C810.887 192.113 810.567 192.837 809.929 193.446C809.296 194.056 808.329 194.36 807.028 194.36C805.628 194.36 804.635 194.044 804.049 193.411C803.469 192.772 803.158 191.984 803.117 191.047H804.638Z" fill="#DFDF00"/>
<path d="M306.916 35H300.715V20.6055H306.916C307.808 20.6185 308.55 20.7227 309.143 20.918C310.152 21.25 310.969 21.8587 311.594 22.7441C312.095 23.4603 312.437 24.235 312.619 25.0684C312.801 25.9017 312.893 26.696 312.893 27.4512C312.893 29.3652 312.508 30.9863 311.74 32.3145C310.699 34.1048 309.09 35 306.916 35ZM309.152 24.2773C308.69 23.4961 307.775 23.1055 306.408 23.1055H303.635V32.5H306.408C307.827 32.5 308.817 31.8001 309.377 30.4004C309.683 29.6322 309.836 28.7174 309.836 27.6562C309.836 26.1914 309.608 25.0651 309.152 24.2773ZM317.805 24.3555V35H314.982V24.3555H317.805ZM317.805 20.5176V23.0859H314.982V20.5176H317.805ZM320.91 25.5078C321.646 24.5703 322.909 24.1016 324.699 24.1016C325.865 24.1016 326.9 24.3327 327.805 24.7949C328.71 25.2572 329.162 26.1296 329.162 27.4121V32.2949C329.162 32.6335 329.169 33.0436 329.182 33.5254C329.201 33.89 329.257 34.1374 329.348 34.2676C329.439 34.3978 329.576 34.5052 329.758 34.5898V35H326.73C326.646 34.7852 326.587 34.5833 326.555 34.3945C326.522 34.2057 326.496 33.9909 326.477 33.75C326.092 34.1667 325.65 34.5215 325.148 34.8145C324.549 35.1595 323.872 35.332 323.117 35.332C322.154 35.332 321.356 35.0586 320.725 34.5117C320.1 33.9583 319.787 33.1771 319.787 32.168C319.787 30.8594 320.292 29.9121 321.301 29.3262C321.854 29.0072 322.668 28.7793 323.742 28.6426L324.689 28.5254C325.204 28.4603 325.572 28.3789 325.793 28.2812C326.19 28.112 326.389 27.8483 326.389 27.4902C326.389 27.054 326.236 26.7546 325.93 26.5918C325.63 26.4225 325.188 26.3379 324.602 26.3379C323.944 26.3379 323.479 26.5007 323.205 26.8262C323.01 27.0671 322.88 27.3926 322.814 27.8027H320.129C320.188 26.8717 320.448 26.1068 320.91 25.5078ZM322.98 32.9883C323.241 33.2031 323.56 33.3105 323.938 33.3105C324.536 33.3105 325.087 33.1348 325.588 32.7832C326.096 32.4316 326.359 31.7904 326.379 30.8594V29.8242C326.203 29.9349 326.024 30.026 325.842 30.0977C325.666 30.1628 325.422 30.2246 325.109 30.2832L324.484 30.4004C323.898 30.5046 323.479 30.6315 323.225 30.7812C322.795 31.0352 322.58 31.429 322.58 31.9629C322.58 32.4382 322.714 32.7799 322.98 32.9883ZM336.994 26.9238C335.874 26.9238 335.122 27.2884 334.738 28.0176C334.523 28.4277 334.416 29.0592 334.416 29.9121V35H331.613V24.3555H334.27V26.2109C334.699 25.5013 335.074 25.0163 335.393 24.7559C335.913 24.3197 336.59 24.1016 337.424 24.1016C337.476 24.1016 337.518 24.1048 337.551 24.1113C337.59 24.1113 337.671 24.1146 337.795 24.1211V26.9727C337.619 26.9531 337.463 26.9401 337.326 26.9336C337.189 26.9271 337.079 26.9238 336.994 26.9238ZM343.762 32.207L345.959 24.3555H348.918L345.266 34.8242C344.562 36.8424 344.006 38.0924 343.596 38.5742C343.186 39.0625 342.365 39.3066 341.135 39.3066C340.887 39.3066 340.689 39.3034 340.539 39.2969C340.389 39.2969 340.165 39.2871 339.865 39.2676V37.041L340.217 37.0605C340.49 37.0736 340.751 37.0638 340.998 37.0312C341.245 36.9987 341.454 36.9238 341.623 36.8066C341.786 36.696 341.936 36.4648 342.072 36.1133C342.215 35.7617 342.274 35.5469 342.248 35.4688L338.342 24.3555H341.438L343.762 32.207ZM361.584 32.9199C362.294 32.9199 362.87 32.8418 363.312 32.6855C364.152 32.3861 364.572 31.8294 364.572 31.0156C364.572 30.5404 364.364 30.1725 363.947 29.9121C363.531 29.6582 362.876 29.4336 361.984 29.2383L360.461 28.8965C358.964 28.5579 357.928 28.1901 357.355 27.793C356.385 27.1289 355.9 26.0905 355.9 24.6777C355.9 23.3887 356.369 22.3177 357.307 21.4648C358.244 20.612 359.621 20.1855 361.438 20.1855C362.954 20.1855 364.247 20.5892 365.314 21.3965C366.389 22.1973 366.952 23.3626 367.004 24.8926H364.113C364.061 24.0267 363.684 23.4115 362.98 23.0469C362.512 22.806 361.929 22.6855 361.232 22.6855C360.458 22.6855 359.839 22.8418 359.377 23.1543C358.915 23.4668 358.684 23.903 358.684 24.4629C358.684 24.9772 358.911 25.3613 359.367 25.6152C359.66 25.7845 360.285 25.9831 361.242 26.2109L363.723 26.8066C364.81 27.0671 365.63 27.4154 366.184 27.8516C367.043 28.5286 367.473 29.5085 367.473 30.791C367.473 32.1061 366.968 33.1999 365.959 34.0723C364.956 34.9382 363.537 35.3711 361.701 35.3711C359.826 35.3711 358.352 34.9447 357.277 34.0918C356.203 33.2324 355.666 32.054 355.666 30.5566H358.537C358.628 31.2142 358.807 31.7057 359.074 32.0312C359.562 32.6237 360.399 32.9199 361.584 32.9199ZM374.348 33.0176V35.0977L373.029 35.1465C371.714 35.1921 370.816 34.9642 370.334 34.4629C370.021 34.1439 369.865 33.6523 369.865 32.9883V26.4355H368.381V24.4531H369.865V21.4844H372.619V24.4531H374.348V26.4355H372.619V32.0605C372.619 32.4967 372.674 32.7702 372.785 32.8809C372.896 32.985 373.234 33.0371 373.801 33.0371C373.885 33.0371 373.973 33.0371 374.064 33.0371C374.162 33.0306 374.257 33.0241 374.348 33.0176ZM382.961 33.4961C382.935 33.5286 382.87 33.6263 382.766 33.7891C382.661 33.9518 382.538 34.0951 382.395 34.2188C381.958 34.6094 381.535 34.8763 381.125 35.0195C380.721 35.1628 380.246 35.2344 379.699 35.2344C378.124 35.2344 377.062 34.668 376.516 33.5352C376.21 32.9102 376.057 31.9889 376.057 30.7715V24.3555H378.908V30.7715C378.908 31.377 378.98 31.8327 379.123 32.1387C379.377 32.679 379.875 32.9492 380.617 32.9492C381.568 32.9492 382.219 32.5651 382.57 31.7969C382.753 31.3802 382.844 30.8301 382.844 30.1465V24.3555H385.666V35H382.961V33.4961ZM398.049 20.625V35H395.344V33.5254C394.947 34.1569 394.494 34.6159 393.986 34.9023C393.479 35.1888 392.847 35.332 392.092 35.332C390.848 35.332 389.8 34.8307 388.947 33.8281C388.101 32.819 387.678 31.5267 387.678 29.9512C387.678 28.1348 388.094 26.7057 388.928 25.6641C389.768 24.6224 390.887 24.1016 392.287 24.1016C392.932 24.1016 393.505 24.2448 394.006 24.5312C394.507 24.8112 394.914 25.2018 395.227 25.7031V20.625H398.049ZM390.549 29.7461C390.549 30.7292 390.744 31.5137 391.135 32.0996C391.519 32.6921 392.105 32.9883 392.893 32.9883C393.68 32.9883 394.279 32.6953 394.689 32.1094C395.1 31.5234 395.305 30.765 395.305 29.834C395.305 28.5319 394.976 27.6009 394.318 27.041C393.915 26.7025 393.446 26.5332 392.912 26.5332C392.098 26.5332 391.499 26.8424 391.115 27.4609C390.738 28.0729 390.549 28.8346 390.549 29.7461ZM404.914 32.207L407.111 24.3555H410.07L406.418 34.8242C405.715 36.8424 405.158 38.0924 404.748 38.5742C404.338 39.0625 403.518 39.3066 402.287 39.3066C402.04 39.3066 401.841 39.3034 401.691 39.2969C401.542 39.2969 401.317 39.2871 401.018 39.2676V37.041L401.369 37.0605C401.643 37.0736 401.903 37.0638 402.15 37.0312C402.398 36.9987 402.606 36.9238 402.775 36.8066C402.938 36.696 403.088 36.4648 403.225 36.1133C403.368 35.7617 403.426 35.5469 403.4 35.4688L399.494 24.3555H402.59L404.914 32.207ZM412.639 24.6777H414.68V26.8066H412.639V24.6777ZM412.639 32.8711H414.68V35H412.639V32.8711ZM433.166 20.6543V22.3633H428.332V35H426.359V22.3633H421.525V20.6543H433.166ZM433.977 24.5898H435.764V35H433.977V24.5898ZM433.977 20.6543H435.764V22.6465H433.977V20.6543ZM438.43 24.541H440.168V26.0254C440.585 25.5111 440.962 25.1367 441.301 24.9023C441.88 24.5052 442.538 24.3066 443.273 24.3066C444.107 24.3066 444.777 24.5117 445.285 24.9219C445.572 25.1562 445.832 25.5013 446.066 25.957C446.457 25.3971 446.916 24.9837 447.443 24.7168C447.971 24.4434 448.563 24.3066 449.221 24.3066C450.627 24.3066 451.584 24.8145 452.092 25.8301C452.365 26.377 452.502 27.1126 452.502 28.0371V35H450.676V27.7344C450.676 27.0378 450.5 26.5592 450.148 26.2988C449.803 26.0384 449.38 25.9082 448.879 25.9082C448.189 25.9082 447.593 26.1393 447.092 26.6016C446.597 27.0638 446.35 27.8353 446.35 28.916V35H444.562V28.1738C444.562 27.4642 444.478 26.9466 444.309 26.6211C444.042 26.1328 443.544 25.8887 442.814 25.8887C442.15 25.8887 441.545 26.1458 440.998 26.6602C440.458 27.1745 440.188 28.1055 440.188 29.4531V35H438.43V24.541ZM459.445 24.3066C460.188 24.3066 460.907 24.4824 461.604 24.834C462.3 25.179 462.831 25.6283 463.195 26.1816C463.547 26.709 463.781 27.3242 463.898 28.0273C464.003 28.5091 464.055 29.2773 464.055 30.332H456.389C456.421 31.3932 456.672 32.2461 457.141 32.8906C457.609 33.5286 458.335 33.8477 459.318 33.8477C460.236 33.8477 460.969 33.5449 461.516 32.9395C461.828 32.5879 462.049 32.181 462.18 31.7188H463.908C463.863 32.1029 463.71 32.5326 463.449 33.0078C463.195 33.4766 462.909 33.8607 462.59 34.1602C462.056 34.681 461.395 35.0326 460.607 35.2148C460.184 35.319 459.706 35.3711 459.172 35.3711C457.87 35.3711 456.766 34.8991 455.861 33.9551C454.956 33.0046 454.504 31.6764 454.504 29.9707C454.504 28.291 454.96 26.9271 455.871 25.8789C456.783 24.8307 457.974 24.3066 459.445 24.3066ZM462.248 28.9355C462.176 28.1738 462.01 27.5651 461.75 27.1094C461.268 26.263 460.464 25.8398 459.338 25.8398C458.531 25.8398 457.854 26.1328 457.307 26.7188C456.76 27.2982 456.47 28.0371 456.438 28.9355H462.248ZM466.271 20.6543H468.029V35H466.271V20.6543ZM470.676 24.5898H472.463V35H470.676V24.5898ZM470.676 20.6543H472.463V22.6465H470.676V20.6543ZM475.129 24.541H476.799V26.0254C477.294 25.4134 477.818 24.974 478.371 24.707C478.924 24.4401 479.54 24.3066 480.217 24.3066C481.701 24.3066 482.704 24.8242 483.225 25.8594C483.511 26.4258 483.654 27.2363 483.654 28.291V35H481.867V28.4082C481.867 27.7702 481.773 27.2559 481.584 26.8652C481.271 26.2142 480.705 25.8887 479.885 25.8887C479.468 25.8887 479.126 25.931 478.859 26.0156C478.378 26.1589 477.954 26.4453 477.59 26.875C477.297 27.2201 477.105 27.5781 477.014 27.9492C476.929 28.3138 476.887 28.8379 476.887 29.5215V35H475.129V24.541ZM490.617 24.3066C491.359 24.3066 492.079 24.4824 492.775 24.834C493.472 25.179 494.003 25.6283 494.367 26.1816C494.719 26.709 494.953 27.3242 495.07 28.0273C495.174 28.5091 495.227 29.2773 495.227 30.332H487.561C487.593 31.3932 487.844 32.2461 488.312 32.8906C488.781 33.5286 489.507 33.8477 490.49 33.8477C491.408 33.8477 492.141 33.5449 492.688 32.9395C493 32.5879 493.221 32.181 493.352 31.7188H495.08C495.035 32.1029 494.882 32.5326 494.621 33.0078C494.367 33.4766 494.081 33.8607 493.762 34.1602C493.228 34.681 492.567 35.0326 491.779 35.2148C491.356 35.319 490.878 35.3711 490.344 35.3711C489.042 35.3711 487.938 34.8991 487.033 33.9551C486.128 33.0046 485.676 31.6764 485.676 29.9707C485.676 28.291 486.132 26.9271 487.043 25.8789C487.954 24.8307 489.146 24.3066 490.617 24.3066ZM493.42 28.9355C493.348 28.1738 493.182 27.5651 492.922 27.1094C492.44 26.263 491.636 25.8398 490.51 25.8398C489.702 25.8398 489.025 26.1328 488.479 26.7188C487.932 27.2982 487.642 28.0371 487.609 28.9355H493.42ZM507.111 33.8672C508.277 33.8672 509.074 33.4277 509.504 32.5488C509.94 31.6634 510.158 30.6803 510.158 29.5996C510.158 28.623 510.002 27.8288 509.689 27.2168C509.195 26.2533 508.342 25.7715 507.131 25.7715C506.057 25.7715 505.275 26.1816 504.787 27.002C504.299 27.8223 504.055 28.8118 504.055 29.9707C504.055 31.084 504.299 32.0117 504.787 32.7539C505.275 33.4961 506.05 33.8672 507.111 33.8672ZM507.18 24.2383C508.527 24.2383 509.667 24.6875 510.598 25.5859C511.529 26.4844 511.994 27.806 511.994 29.5508C511.994 31.237 511.584 32.6302 510.764 33.7305C509.943 34.8307 508.671 35.3809 506.945 35.3809C505.507 35.3809 504.364 34.8958 503.518 33.9258C502.671 32.9492 502.248 31.6406 502.248 30C502.248 28.2422 502.694 26.8424 503.586 25.8008C504.478 24.7591 505.676 24.2383 507.18 24.2383ZM514.533 22.9492C514.559 22.2201 514.686 21.6862 514.914 21.3477C515.324 20.7487 516.115 20.4492 517.287 20.4492C517.398 20.4492 517.512 20.4525 517.629 20.459C517.746 20.4655 517.88 20.4753 518.029 20.4883V22.0898C517.847 22.0768 517.714 22.0703 517.629 22.0703C517.551 22.0638 517.476 22.0605 517.404 22.0605C516.87 22.0605 516.551 22.2005 516.447 22.4805C516.343 22.7539 516.291 23.457 516.291 24.5898H518.029V25.9766H516.271V35H514.533V25.9766H513.078V24.5898H514.533V22.9492ZM531.73 29.1211L529.553 22.7832L527.238 29.1211H531.73ZM528.537 20.6543H530.734L535.939 35H533.811L532.355 30.7031H526.682L525.129 35H523.137L528.537 20.6543ZM541.506 24.2383C542.684 24.2383 543.641 24.5247 544.377 25.0977C545.119 25.6706 545.565 26.6569 545.715 28.0566H544.006C543.902 27.4121 543.664 26.8783 543.293 26.4551C542.922 26.0254 542.326 25.8105 541.506 25.8105C540.386 25.8105 539.585 26.3574 539.104 27.4512C538.791 28.1608 538.635 29.0365 538.635 30.0781C538.635 31.1263 538.856 32.0085 539.299 32.7246C539.742 33.4408 540.438 33.7988 541.389 33.7988C542.118 33.7988 542.694 33.5775 543.117 33.1348C543.547 32.6855 543.843 32.0736 544.006 31.2988H545.715C545.52 32.6855 545.031 33.7012 544.25 34.3457C543.469 34.9837 542.469 35.3027 541.252 35.3027C539.885 35.3027 538.794 34.8047 537.98 33.8086C537.167 32.806 536.76 31.556 536.76 30.0586C536.76 28.2227 537.206 26.7936 538.098 25.7715C538.99 24.7493 540.126 24.2383 541.506 24.2383ZM547.824 21.6211H549.602V24.541H551.271V25.9766H549.602V32.8027C549.602 33.1673 549.725 33.4115 549.973 33.5352C550.109 33.6068 550.337 33.6426 550.656 33.6426C550.741 33.6426 550.832 33.6426 550.93 33.6426C551.027 33.6361 551.141 33.6263 551.271 33.6133V35C551.07 35.0586 550.858 35.1009 550.637 35.127C550.422 35.153 550.188 35.166 549.934 35.166C549.113 35.166 548.557 34.9577 548.264 34.541C547.971 34.1178 547.824 33.571 547.824 32.9004V25.9766H546.408V24.541H547.824V21.6211ZM553.039 24.5898H554.826V35H553.039V24.5898ZM553.039 20.6543H554.826V22.6465H553.039V20.6543ZM558.352 24.541L561.145 33.0566L564.064 24.541H565.988L562.043 35H560.168L556.311 24.541H558.352ZM567.492 24.5898H569.279V35H567.492V24.5898ZM567.492 20.6543H569.279V22.6465H567.492V20.6543ZM572.297 21.6211H574.074V24.541H575.744V25.9766H574.074V32.8027C574.074 33.1673 574.198 33.4115 574.445 33.5352C574.582 33.6068 574.81 33.6426 575.129 33.6426C575.214 33.6426 575.305 33.6426 575.402 33.6426C575.5 33.6361 575.614 33.6263 575.744 33.6133V35C575.542 35.0586 575.331 35.1009 575.109 35.127C574.895 35.153 574.66 35.166 574.406 35.166C573.586 35.166 573.029 34.9577 572.736 34.541C572.443 34.1178 572.297 33.571 572.297 32.9004V25.9766H570.881V24.541H572.297V21.6211ZM577.512 24.5898H579.299V35H577.512V24.5898ZM577.512 20.6543H579.299V22.6465H577.512V20.6543ZM586.32 24.3066C587.062 24.3066 587.782 24.4824 588.479 24.834C589.175 25.179 589.706 25.6283 590.07 26.1816C590.422 26.709 590.656 27.3242 590.773 28.0273C590.878 28.5091 590.93 29.2773 590.93 30.332H583.264C583.296 31.3932 583.547 32.2461 584.016 32.8906C584.484 33.5286 585.21 33.8477 586.193 33.8477C587.111 33.8477 587.844 33.5449 588.391 32.9395C588.703 32.5879 588.924 32.181 589.055 31.7188H590.783C590.738 32.1029 590.585 32.5326 590.324 33.0078C590.07 33.4766 589.784 33.8607 589.465 34.1602C588.931 34.681 588.27 35.0326 587.482 35.2148C587.059 35.319 586.581 35.3711 586.047 35.3711C584.745 35.3711 583.641 34.8991 582.736 33.9551C581.831 33.0046 581.379 31.6764 581.379 29.9707C581.379 28.291 581.835 26.9271 582.746 25.8789C583.658 24.8307 584.849 24.3066 586.32 24.3066ZM589.123 28.9355C589.051 28.1738 588.885 27.5651 588.625 27.1094C588.143 26.263 587.339 25.8398 586.213 25.8398C585.406 25.8398 584.729 26.1328 584.182 26.7188C583.635 27.2982 583.345 28.0371 583.312 28.9355H589.123ZM594.143 31.7188C594.195 32.3047 594.341 32.7539 594.582 33.0664C595.025 33.6328 595.793 33.916 596.887 33.916C597.538 33.916 598.111 33.776 598.605 33.4961C599.1 33.2096 599.348 32.7702 599.348 32.1777C599.348 31.7285 599.149 31.3867 598.752 31.1523C598.498 31.0091 597.997 30.8431 597.248 30.6543L595.852 30.3027C594.96 30.0814 594.302 29.834 593.879 29.5605C593.124 29.0853 592.746 28.4277 592.746 27.5879C592.746 26.5983 593.101 25.7975 593.811 25.1855C594.527 24.5736 595.487 24.2676 596.691 24.2676C598.267 24.2676 599.403 24.7298 600.1 25.6543C600.536 26.2402 600.747 26.8717 600.734 27.5488H599.074C599.042 27.1517 598.902 26.7904 598.654 26.4648C598.251 26.0026 597.551 25.7715 596.555 25.7715C595.891 25.7715 595.386 25.8984 595.041 26.1523C594.702 26.4062 594.533 26.7415 594.533 27.1582C594.533 27.6139 594.758 27.9785 595.207 28.252C595.467 28.4147 595.852 28.5579 596.359 28.6816L597.521 28.9648C598.785 29.2708 599.631 29.5671 600.061 29.8535C600.744 30.3027 601.086 31.0091 601.086 31.9727C601.086 32.9036 600.731 33.7077 600.021 34.3848C599.318 35.0618 598.244 35.4004 596.799 35.4004C595.243 35.4004 594.139 35.0488 593.488 34.3457C592.844 33.6361 592.499 32.7604 592.453 31.7188H594.143Z" fill="black"/>
</svg>
