<svg width="900" height="344" viewBox="0 0 900 344" fill="none" xmlns="http://www.w3.org/2000/svg">
<rect width="900" height="344" fill="white"/>
<circle cx="111" cy="249" r="10" fill="#07008F"/>
<circle cx="274" cy="249" r="10" fill="#0000FF"/>
<circle cx="331" cy="249" r="10" fill="#00A035"/>
<circle cx="388" cy="249" r="10" fill="#00A035"/>
<circle cx="445" cy="249" r="10" fill="#00A035"/>
<circle cx="502" cy="249" r="10" fill="#00A035"/>
<circle cx="559" cy="249" r="10" fill="#00A035"/>
<circle cx="616" cy="249" r="10" fill="#FF5100"/>
<circle cx="779" cy="249" r="10" fill="#DFDF00"/>
<line x1="110.745" y1="209.998" x2="110.755" y2="241.002" stroke="#07008F"/>
<line x1="779.5" y1="208" x2="779.5" y2="239" stroke="#DFDF00"/>
<path d="M59.4486 174V161.4H63.5526C64.5486 161.4 65.3646 161.568 66.0006 161.904C66.6486 162.228 67.1226 162.666 67.4226 163.218C67.7346 163.77 67.8906 164.4 67.8906 165.108C67.8906 165.792 67.7346 166.416 67.4226 166.98C67.1226 167.532 66.6546 167.976 66.0186 168.312C65.3826 168.648 64.5606 168.816 63.5526 168.816H60.9606V174H59.4486ZM60.9606 167.538H63.5346C64.5426 167.538 65.2626 167.316 65.6946 166.872C66.1266 166.428 66.3426 165.84 66.3426 165.108C66.3426 164.328 66.1266 163.728 65.6946 163.308C65.2626 162.876 64.5426 162.66 63.5346 162.66H60.9606V167.538ZM69.8 174V161.04H71.312V174H69.8ZM76.7599 174.216C76.0279 174.216 75.4159 174.09 74.9239 173.838C74.4319 173.574 74.0659 173.232 73.8259 172.812C73.5859 172.38 73.4659 171.912 73.4659 171.408C73.4659 170.796 73.6219 170.28 73.9339 169.86C74.2579 169.428 74.7079 169.104 75.2839 168.888C75.8719 168.66 76.5619 168.546 77.3539 168.546H79.7479C79.7479 167.982 79.6579 167.514 79.4779 167.142C79.3099 166.758 79.0579 166.47 78.7219 166.278C78.3979 166.086 77.9899 165.99 77.4979 165.99C76.9219 165.99 76.4239 166.134 76.0039 166.422C75.5839 166.71 75.3259 167.136 75.2299 167.7H73.6819C73.7539 167.052 73.9699 166.512 74.3299 166.08C74.7019 165.636 75.1699 165.3 75.7339 165.072C76.2979 164.832 76.8859 164.712 77.4979 164.712C78.3379 164.712 79.0339 164.868 79.5859 165.18C80.1499 165.48 80.5699 165.906 80.8459 166.458C81.1219 166.998 81.2599 167.64 81.2599 168.384V174H79.9099L79.8199 172.398C79.6999 172.65 79.5439 172.89 79.3519 173.118C79.1719 173.334 78.9559 173.526 78.7039 173.694C78.4519 173.85 78.1639 173.976 77.8399 174.072C77.5279 174.168 77.1679 174.216 76.7599 174.216ZM76.9939 172.938C77.4139 172.938 77.7919 172.854 78.1279 172.686C78.4759 172.506 78.7699 172.266 79.0099 171.966C79.2499 171.654 79.4299 171.312 79.5499 170.94C79.6819 170.568 79.7479 170.178 79.7479 169.77V169.716H77.4799C76.8919 169.716 76.4179 169.788 76.0579 169.932C75.6979 170.064 75.4399 170.256 75.2839 170.508C75.1279 170.748 75.0499 171.024 75.0499 171.336C75.0499 171.66 75.1219 171.942 75.2659 172.182C75.4219 172.422 75.6439 172.608 75.9319 172.74C76.2319 172.872 76.5859 172.938 76.9939 172.938ZM83.5989 174V164.928H84.9669L85.0389 166.512C85.3269 165.948 85.7349 165.51 86.2629 165.198C86.8029 164.874 87.4149 164.712 88.0989 164.712C88.8069 164.712 89.4189 164.856 89.9349 165.144C90.4509 165.42 90.8529 165.846 91.1409 166.422C91.4289 166.986 91.5729 167.706 91.5729 168.582V174H90.0609V168.744C90.0609 167.832 89.8569 167.148 89.4489 166.692C89.0529 166.236 88.4889 166.008 87.7569 166.008C87.2529 166.008 86.8029 166.134 86.4069 166.386C86.0109 166.626 85.6929 166.98 85.4529 167.448C85.2249 167.904 85.1109 168.474 85.1109 169.158V174H83.5989ZM93.9348 174V164.928H95.3028L95.3748 166.512C95.6628 165.948 96.0708 165.51 96.5988 165.198C97.1388 164.874 97.7508 164.712 98.4348 164.712C99.1428 164.712 99.7548 164.856 100.271 165.144C100.787 165.42 101.189 165.846 101.477 166.422C101.765 166.986 101.909 167.706 101.909 168.582V174H100.397V168.744C100.397 167.832 100.193 167.148 99.7848 166.692C99.3888 166.236 98.8248 166.008 98.0928 166.008C97.5888 166.008 97.1388 166.134 96.7428 166.386C96.3468 166.626 96.0288 166.98 95.7888 167.448C95.5608 167.904 95.4468 168.474 95.4468 169.158V174H93.9348ZM104.415 174V164.928H105.927V174H104.415ZM105.171 163.002C104.871 163.002 104.619 162.906 104.415 162.714C104.223 162.51 104.127 162.258 104.127 161.958C104.127 161.658 104.223 161.418 104.415 161.238C104.619 161.046 104.871 160.95 105.171 160.95C105.459 160.95 105.705 161.046 105.909 161.238C106.113 161.418 106.215 161.658 106.215 161.958C106.215 162.258 106.113 162.51 105.909 162.714C105.705 162.906 105.459 163.002 105.171 163.002ZM108.595 174V164.928H109.963L110.035 166.512C110.323 165.948 110.731 165.51 111.259 165.198C111.799 164.874 112.411 164.712 113.095 164.712C113.803 164.712 114.415 164.856 114.931 165.144C115.447 165.42 115.849 165.846 116.137 166.422C116.425 166.986 116.569 167.706 116.569 168.582V174H115.057V168.744C115.057 167.832 114.853 167.148 114.445 166.692C114.049 166.236 113.485 166.008 112.753 166.008C112.249 166.008 111.799 166.134 111.403 166.386C111.007 166.626 110.689 166.98 110.449 167.448C110.221 167.904 110.107 168.474 110.107 169.158V174H108.595ZM122.513 178.176C121.697 178.176 120.971 178.068 120.335 177.852C119.711 177.648 119.225 177.33 118.877 176.898C118.529 176.466 118.355 175.932 118.355 175.296C118.355 175.02 118.409 174.726 118.517 174.414C118.637 174.102 118.835 173.796 119.111 173.496C119.399 173.196 119.801 172.926 120.317 172.686L121.361 173.298C120.725 173.562 120.311 173.862 120.119 174.198C119.927 174.546 119.831 174.864 119.831 175.152C119.831 175.548 119.945 175.878 120.173 176.142C120.401 176.406 120.719 176.604 121.127 176.736C121.535 176.868 121.997 176.934 122.513 176.934C123.029 176.934 123.473 176.862 123.845 176.718C124.217 176.574 124.505 176.37 124.709 176.106C124.913 175.842 125.015 175.53 125.015 175.17C125.015 174.75 124.859 174.396 124.547 174.108C124.235 173.832 123.641 173.67 122.765 173.622C122.057 173.574 121.463 173.508 120.983 173.424C120.503 173.34 120.107 173.244 119.795 173.136C119.483 173.016 119.219 172.884 119.003 172.74C118.799 172.596 118.613 172.446 118.445 172.29V171.876L120.191 170.148L121.505 170.616L119.705 172.236L119.939 171.606C120.071 171.702 120.197 171.792 120.317 171.876C120.437 171.96 120.599 172.032 120.803 172.092C121.007 172.152 121.289 172.206 121.649 172.254C122.021 172.302 122.507 172.35 123.107 172.398C123.935 172.458 124.595 172.602 125.087 172.83C125.591 173.058 125.951 173.364 126.167 173.748C126.395 174.132 126.509 174.588 126.509 175.116C126.509 175.632 126.365 176.118 126.077 176.574C125.801 177.042 125.369 177.426 124.781 177.726C124.193 178.026 123.437 178.176 122.513 178.176ZM122.495 171.156C121.739 171.156 121.091 171.012 120.551 170.724C120.023 170.436 119.621 170.052 119.345 169.572C119.069 169.08 118.931 168.534 118.931 167.934C118.931 167.334 119.069 166.794 119.345 166.314C119.633 165.834 120.041 165.45 120.569 165.162C121.097 164.862 121.739 164.712 122.495 164.712C123.251 164.712 123.893 164.862 124.421 165.162C124.949 165.45 125.351 165.834 125.627 166.314C125.903 166.794 126.041 167.334 126.041 167.934C126.041 168.534 125.903 169.08 125.627 169.572C125.351 170.052 124.949 170.436 124.421 170.724C123.893 171.012 123.251 171.156 122.495 171.156ZM122.495 169.914C123.143 169.914 123.653 169.746 124.025 169.41C124.397 169.074 124.583 168.582 124.583 167.934C124.583 167.298 124.397 166.812 124.025 166.476C123.653 166.14 123.143 165.972 122.495 165.972C121.859 165.972 121.343 166.14 120.947 166.476C120.563 166.812 120.371 167.298 120.371 167.934C120.371 168.582 120.563 169.074 120.947 169.41C121.331 169.746 121.847 169.914 122.495 169.914ZM123.971 166.206L123.521 164.928H127.229V166.062L123.971 166.206ZM136.701 174.216C135.969 174.216 135.357 174.09 134.865 173.838C134.373 173.574 134.007 173.232 133.767 172.812C133.527 172.38 133.407 171.912 133.407 171.408C133.407 170.796 133.563 170.28 133.875 169.86C134.199 169.428 134.649 169.104 135.225 168.888C135.813 168.66 136.503 168.546 137.295 168.546H139.689C139.689 167.982 139.599 167.514 139.419 167.142C139.251 166.758 138.999 166.47 138.663 166.278C138.339 166.086 137.931 165.99 137.439 165.99C136.863 165.99 136.365 166.134 135.945 166.422C135.525 166.71 135.267 167.136 135.171 167.7H133.623C133.695 167.052 133.911 166.512 134.271 166.08C134.643 165.636 135.111 165.3 135.675 165.072C136.239 164.832 136.827 164.712 137.439 164.712C138.279 164.712 138.975 164.868 139.527 165.18C140.091 165.48 140.511 165.906 140.787 166.458C141.063 166.998 141.201 167.64 141.201 168.384V174H139.851L139.761 172.398C139.641 172.65 139.485 172.89 139.293 173.118C139.113 173.334 138.897 173.526 138.645 173.694C138.393 173.85 138.105 173.976 137.781 174.072C137.469 174.168 137.109 174.216 136.701 174.216ZM136.935 172.938C137.355 172.938 137.733 172.854 138.069 172.686C138.417 172.506 138.711 172.266 138.951 171.966C139.191 171.654 139.371 171.312 139.491 170.94C139.623 170.568 139.689 170.178 139.689 169.77V169.716H137.421C136.833 169.716 136.359 169.788 135.999 169.932C135.639 170.064 135.381 170.256 135.225 170.508C135.069 170.748 134.991 171.024 134.991 171.336C134.991 171.66 135.063 171.942 135.207 172.182C135.363 172.422 135.585 172.608 135.873 172.74C136.173 172.872 136.527 172.938 136.935 172.938ZM143.54 174V164.928H144.908L144.98 166.512C145.268 165.948 145.676 165.51 146.204 165.198C146.744 164.874 147.356 164.712 148.04 164.712C148.748 164.712 149.36 164.856 149.876 165.144C150.392 165.42 150.794 165.846 151.082 166.422C151.37 166.986 151.514 167.706 151.514 168.582V174H150.002V168.744C150.002 167.832 149.798 167.148 149.39 166.692C148.994 166.236 148.43 166.008 147.698 166.008C147.194 166.008 146.744 166.134 146.348 166.386C145.952 166.626 145.634 166.98 145.394 167.448C145.166 167.904 145.052 168.474 145.052 169.158V174H143.54ZM157.872 174.216C156.996 174.216 156.228 174.012 155.568 173.604C154.908 173.184 154.398 172.614 154.038 171.894C153.678 171.174 153.498 170.358 153.498 169.446C153.498 168.534 153.678 167.724 154.038 167.016C154.398 166.296 154.908 165.732 155.568 165.324C156.24 164.916 157.014 164.712 157.89 164.712C158.634 164.712 159.282 164.862 159.834 165.162C160.398 165.462 160.83 165.882 161.13 166.422V161.04H162.642V174H161.274L161.148 172.506C160.956 172.806 160.71 173.088 160.41 173.352C160.11 173.604 159.75 173.814 159.33 173.982C158.91 174.138 158.424 174.216 157.872 174.216ZM158.052 172.902C158.652 172.902 159.18 172.758 159.636 172.47C160.092 172.182 160.446 171.786 160.698 171.282C160.95 170.766 161.076 170.16 161.076 169.464C161.076 168.78 160.95 168.18 160.698 167.664C160.446 167.148 160.092 166.746 159.636 166.458C159.18 166.17 158.652 166.026 158.052 166.026C157.464 166.026 156.942 166.17 156.486 166.458C156.03 166.746 155.676 167.148 155.424 167.664C155.172 168.18 155.046 168.78 155.046 169.464C155.046 170.16 155.172 170.766 155.424 171.282C155.676 171.786 156.03 172.182 156.486 172.47C156.942 172.758 157.464 172.902 158.052 172.902ZM66.4184 197V184.4H70.5224C71.5184 184.4 72.3344 184.568 72.9704 184.904C73.6184 185.228 74.0924 185.666 74.3924 186.218C74.7044 186.77 74.8604 187.4 74.8604 188.108C74.8604 188.792 74.7044 189.416 74.3924 189.98C74.0924 190.532 73.6244 190.976 72.9884 191.312C72.3524 191.648 71.5304 191.816 70.5224 191.816H67.9304V197H66.4184ZM67.9304 190.538H70.5044C71.5124 190.538 72.2324 190.316 72.6644 189.872C73.0964 189.428 73.3124 188.84 73.3124 188.108C73.3124 187.328 73.0964 186.728 72.6644 186.308C72.2324 185.876 71.5124 185.66 70.5044 185.66H67.9304V190.538ZM76.7698 197V187.928H78.1378L78.2458 189.656C78.4498 189.248 78.7078 188.9 79.0198 188.612C79.3438 188.324 79.7278 188.102 80.1718 187.946C80.6278 187.79 81.1438 187.712 81.7198 187.712V189.296H81.1618C80.7778 189.296 80.4118 189.35 80.0638 189.458C79.7158 189.554 79.4038 189.716 79.1278 189.944C78.8638 190.172 78.6538 190.484 78.4978 190.88C78.3538 191.264 78.2818 191.744 78.2818 192.32V197H76.7698ZM87.0759 197.216C86.2239 197.216 85.4679 197.018 84.8079 196.622C84.1599 196.226 83.6499 195.674 83.2779 194.966C82.9059 194.246 82.7199 193.412 82.7199 192.464C82.7199 191.504 82.8999 190.67 83.2599 189.962C83.6319 189.254 84.1479 188.702 84.8079 188.306C85.4799 187.91 86.2479 187.712 87.1119 187.712C87.9999 187.712 88.7499 187.91 89.3619 188.306C89.9859 188.702 90.4599 189.224 90.7839 189.872C91.1199 190.508 91.2879 191.21 91.2879 191.978C91.2879 192.098 91.2879 192.224 91.2879 192.356C91.2879 192.488 91.2819 192.638 91.2699 192.806H83.8539V191.636H89.8119C89.7759 190.808 89.4999 190.16 88.9839 189.692C88.4799 189.224 87.8439 188.99 87.0759 188.99C86.5599 188.99 86.0799 189.11 85.6359 189.35C85.2039 189.578 84.8559 189.92 84.5919 190.376C84.3279 190.82 84.1959 191.378 84.1959 192.05V192.554C84.1959 193.298 84.3279 193.922 84.5919 194.426C84.8679 194.93 85.2219 195.308 85.6539 195.56C86.0979 195.812 86.5719 195.938 87.0759 195.938C87.7119 195.938 88.2339 195.8 88.6419 195.524C89.0619 195.236 89.3619 194.852 89.5419 194.372H91.0359C90.8919 194.912 90.6399 195.398 90.2799 195.83C89.9199 196.262 89.4699 196.604 88.9299 196.856C88.4019 197.096 87.7839 197.216 87.0759 197.216ZM93.3284 200.96V187.928H94.6964L94.8224 189.404C95.0144 189.116 95.2604 188.846 95.5604 188.594C95.8604 188.33 96.2204 188.12 96.6404 187.964C97.0604 187.796 97.5404 187.712 98.0804 187.712C98.9684 187.712 99.7364 187.922 100.384 188.342C101.044 188.762 101.554 189.332 101.914 190.052C102.286 190.76 102.472 191.57 102.472 192.482C102.472 193.394 102.286 194.21 101.914 194.93C101.554 195.638 101.044 196.196 100.384 196.604C99.7244 197.012 98.9504 197.216 98.0624 197.216C97.3304 197.216 96.6824 197.066 96.1184 196.766C95.5664 196.466 95.1404 196.046 94.8404 195.506V200.96H93.3284ZM97.9004 195.902C98.4884 195.902 99.0104 195.758 99.4664 195.47C99.9224 195.182 100.276 194.786 100.528 194.282C100.792 193.766 100.924 193.16 100.924 192.464C100.924 191.78 100.792 191.18 100.528 190.664C100.276 190.148 99.9224 189.746 99.4664 189.458C99.0104 189.17 98.4884 189.026 97.9004 189.026C97.3004 189.026 96.7724 189.17 96.3164 189.458C95.8604 189.746 95.5064 190.148 95.2544 190.664C95.0024 191.18 94.8764 191.78 94.8764 192.464C94.8764 193.16 95.0024 193.766 95.2544 194.282C95.5064 194.786 95.8604 195.182 96.3164 195.47C96.7724 195.758 97.3004 195.902 97.9004 195.902ZM107.548 197.216C106.816 197.216 106.204 197.09 105.712 196.838C105.22 196.574 104.854 196.232 104.614 195.812C104.374 195.38 104.254 194.912 104.254 194.408C104.254 193.796 104.41 193.28 104.722 192.86C105.046 192.428 105.496 192.104 106.072 191.888C106.66 191.66 107.35 191.546 108.142 191.546H110.536C110.536 190.982 110.446 190.514 110.266 190.142C110.098 189.758 109.846 189.47 109.51 189.278C109.186 189.086 108.778 188.99 108.286 188.99C107.71 188.99 107.212 189.134 106.792 189.422C106.372 189.71 106.114 190.136 106.018 190.7H104.47C104.542 190.052 104.758 189.512 105.118 189.08C105.49 188.636 105.958 188.3 106.522 188.072C107.086 187.832 107.674 187.712 108.286 187.712C109.126 187.712 109.822 187.868 110.374 188.18C110.938 188.48 111.358 188.906 111.634 189.458C111.91 189.998 112.048 190.64 112.048 191.384V197H110.698L110.608 195.398C110.488 195.65 110.332 195.89 110.14 196.118C109.96 196.334 109.744 196.526 109.492 196.694C109.24 196.85 108.952 196.976 108.628 197.072C108.316 197.168 107.956 197.216 107.548 197.216ZM107.782 195.938C108.202 195.938 108.58 195.854 108.916 195.686C109.264 195.506 109.558 195.266 109.798 194.966C110.038 194.654 110.218 194.312 110.338 193.94C110.47 193.568 110.536 193.178 110.536 192.77V192.716H108.268C107.68 192.716 107.206 192.788 106.846 192.932C106.486 193.064 106.228 193.256 106.072 193.508C105.916 193.748 105.838 194.024 105.838 194.336C105.838 194.66 105.91 194.942 106.054 195.182C106.21 195.422 106.432 195.608 106.72 195.74C107.02 195.872 107.374 195.938 107.782 195.938ZM114.387 197V187.928H115.755L115.863 189.656C116.067 189.248 116.325 188.9 116.637 188.612C116.961 188.324 117.345 188.102 117.789 187.946C118.245 187.79 118.761 187.712 119.337 187.712V189.296H118.779C118.395 189.296 118.029 189.35 117.681 189.458C117.333 189.554 117.021 189.716 116.745 189.944C116.481 190.172 116.271 190.484 116.115 190.88C115.971 191.264 115.899 191.744 115.899 192.32V197H114.387ZM124.001 197.216C123.269 197.216 122.657 197.09 122.165 196.838C121.673 196.574 121.307 196.232 121.067 195.812C120.827 195.38 120.707 194.912 120.707 194.408C120.707 193.796 120.863 193.28 121.175 192.86C121.499 192.428 121.949 192.104 122.525 191.888C123.113 191.66 123.803 191.546 124.595 191.546H126.989C126.989 190.982 126.899 190.514 126.719 190.142C126.551 189.758 126.299 189.47 125.963 189.278C125.639 189.086 125.231 188.99 124.739 188.99C124.163 188.99 123.665 189.134 123.245 189.422C122.825 189.71 122.567 190.136 122.471 190.7H120.923C120.995 190.052 121.211 189.512 121.571 189.08C121.943 188.636 122.411 188.3 122.975 188.072C123.539 187.832 124.127 187.712 124.739 187.712C125.579 187.712 126.275 187.868 126.827 188.18C127.391 188.48 127.811 188.906 128.087 189.458C128.363 189.998 128.501 190.64 128.501 191.384V197H127.151L127.061 195.398C126.941 195.65 126.785 195.89 126.593 196.118C126.413 196.334 126.197 196.526 125.945 196.694C125.693 196.85 125.405 196.976 125.081 197.072C124.769 197.168 124.409 197.216 124.001 197.216ZM124.235 195.938C124.655 195.938 125.033 195.854 125.369 195.686C125.717 195.506 126.011 195.266 126.251 194.966C126.491 194.654 126.671 194.312 126.791 193.94C126.923 193.568 126.989 193.178 126.989 192.77V192.716H124.721C124.133 192.716 123.659 192.788 123.299 192.932C122.939 193.064 122.681 193.256 122.525 193.508C122.369 193.748 122.291 194.024 122.291 194.336C122.291 194.66 122.363 194.942 122.507 195.182C122.663 195.422 122.885 195.608 123.173 195.74C123.473 195.872 123.827 195.938 124.235 195.938ZM134.158 197C133.618 197 133.15 196.916 132.754 196.748C132.358 196.58 132.052 196.298 131.836 195.902C131.632 195.494 131.53 194.948 131.53 194.264V189.206H129.946V187.928H131.53L131.728 185.732H133.042V187.928H135.67V189.206H133.042V194.264C133.042 194.828 133.156 195.212 133.384 195.416C133.612 195.608 134.014 195.704 134.59 195.704H135.562V197H134.158ZM137.787 197V187.928H139.299V197H137.787ZM138.543 186.002C138.243 186.002 137.991 185.906 137.787 185.714C137.595 185.51 137.499 185.258 137.499 184.958C137.499 184.658 137.595 184.418 137.787 184.238C137.991 184.046 138.243 183.95 138.543 183.95C138.831 183.95 139.077 184.046 139.281 184.238C139.485 184.418 139.587 184.658 139.587 184.958C139.587 185.258 139.485 185.51 139.281 185.714C139.077 185.906 138.831 186.002 138.543 186.002ZM146.017 197.216C145.177 197.216 144.421 197.024 143.749 196.64C143.077 196.244 142.549 195.692 142.165 194.984C141.781 194.264 141.589 193.43 141.589 192.482C141.589 191.51 141.781 190.67 142.165 189.962C142.561 189.242 143.095 188.69 143.767 188.306C144.451 187.91 145.213 187.712 146.053 187.712C146.917 187.712 147.679 187.91 148.339 188.306C149.011 188.69 149.539 189.242 149.923 189.962C150.319 190.67 150.517 191.504 150.517 192.464C150.517 193.424 150.319 194.264 149.923 194.984C149.527 195.692 148.993 196.244 148.321 196.64C147.649 197.024 146.881 197.216 146.017 197.216ZM146.035 195.92C146.551 195.92 147.031 195.794 147.475 195.542C147.919 195.278 148.279 194.888 148.555 194.372C148.831 193.856 148.969 193.22 148.969 192.464C148.969 191.696 148.831 191.06 148.555 190.556C148.291 190.04 147.937 189.656 147.493 189.404C147.061 189.14 146.581 189.008 146.053 189.008C145.549 189.008 145.069 189.14 144.613 189.404C144.169 189.656 143.809 190.04 143.533 190.556C143.269 191.06 143.137 191.696 143.137 192.464C143.137 193.22 143.269 193.856 143.533 194.372C143.809 194.888 144.163 195.278 144.595 195.542C145.039 195.794 145.519 195.92 146.035 195.92ZM152.637 197V187.928H154.005L154.077 189.512C154.365 188.948 154.773 188.51 155.301 188.198C155.841 187.874 156.453 187.712 157.137 187.712C157.845 187.712 158.457 187.856 158.973 188.144C159.489 188.42 159.891 188.846 160.179 189.422C160.467 189.986 160.611 190.706 160.611 191.582V197H159.099V191.744C159.099 190.832 158.895 190.148 158.487 189.692C158.091 189.236 157.527 189.008 156.795 189.008C156.291 189.008 155.841 189.134 155.445 189.386C155.049 189.626 154.731 189.98 154.491 190.448C154.263 190.904 154.149 191.474 154.149 192.158V197H152.637Z" fill="#07008F"/>
<line x1="274.5" y1="137" x2="274.5" y2="241" stroke="#0000FF"/>
<path d="M233.838 103V90.4H237.942C238.938 90.4 239.754 90.568 240.39 90.904C241.038 91.228 241.512 91.666 241.812 92.218C242.124 92.77 242.28 93.4 242.28 94.108C242.28 94.792 242.124 95.416 241.812 95.98C241.512 96.532 241.044 96.976 240.408 97.312C239.772 97.648 238.95 97.816 237.942 97.816H235.35V103H233.838ZM235.35 96.538H237.924C238.932 96.538 239.652 96.316 240.084 95.872C240.516 95.428 240.732 94.84 240.732 94.108C240.732 93.328 240.516 92.728 240.084 92.308C239.652 91.876 238.932 91.66 237.924 91.66H235.35V96.538ZM244.19 103V93.928H245.558L245.666 95.656C245.87 95.248 246.128 94.9 246.44 94.612C246.764 94.324 247.148 94.102 247.592 93.946C248.048 93.79 248.564 93.712 249.14 93.712V95.296H248.582C248.198 95.296 247.832 95.35 247.484 95.458C247.136 95.554 246.824 95.716 246.548 95.944C246.284 96.172 246.074 96.484 245.918 96.88C245.774 97.264 245.702 97.744 245.702 98.32V103H244.19ZM254.496 103.216C253.644 103.216 252.888 103.018 252.228 102.622C251.58 102.226 251.07 101.674 250.698 100.966C250.326 100.246 250.14 99.412 250.14 98.464C250.14 97.504 250.32 96.67 250.68 95.962C251.052 95.254 251.568 94.702 252.228 94.306C252.9 93.91 253.668 93.712 254.532 93.712C255.42 93.712 256.17 93.91 256.782 94.306C257.406 94.702 257.88 95.224 258.204 95.872C258.54 96.508 258.708 97.21 258.708 97.978C258.708 98.098 258.708 98.224 258.708 98.356C258.708 98.488 258.702 98.638 258.69 98.806H251.274V97.636H257.232C257.196 96.808 256.92 96.16 256.404 95.692C255.9 95.224 255.264 94.99 254.496 94.99C253.98 94.99 253.5 95.11 253.056 95.35C252.624 95.578 252.276 95.92 252.012 96.376C251.748 96.82 251.616 97.378 251.616 98.05V98.554C251.616 99.298 251.748 99.922 252.012 100.426C252.288 100.93 252.642 101.308 253.074 101.56C253.518 101.812 253.992 101.938 254.496 101.938C255.132 101.938 255.654 101.8 256.062 101.524C256.482 101.236 256.782 100.852 256.962 100.372H258.456C258.312 100.912 258.06 101.398 257.7 101.83C257.34 102.262 256.89 102.604 256.35 102.856C255.822 103.096 255.204 103.216 254.496 103.216ZM260.784 98.32V97.042H267.912V98.32H260.784ZM273.907 103.216C273.151 103.216 272.491 103.09 271.927 102.838C271.375 102.586 270.931 102.238 270.595 101.794C270.271 101.338 270.073 100.804 270.001 100.192H271.549C271.609 100.504 271.735 100.792 271.927 101.056C272.119 101.32 272.377 101.536 272.701 101.704C273.037 101.86 273.445 101.938 273.925 101.938C274.345 101.938 274.693 101.878 274.969 101.758C275.245 101.626 275.449 101.452 275.581 101.236C275.725 101.02 275.797 100.786 275.797 100.534C275.797 100.162 275.707 99.88 275.527 99.688C275.359 99.496 275.107 99.346 274.771 99.238C274.435 99.118 274.027 99.016 273.547 98.932C273.151 98.86 272.761 98.764 272.377 98.644C271.993 98.524 271.651 98.368 271.351 98.176C271.051 97.972 270.811 97.726 270.631 97.438C270.463 97.15 270.379 96.796 270.379 96.376C270.379 95.86 270.511 95.404 270.775 95.008C271.039 94.6 271.417 94.282 271.909 94.054C272.413 93.826 272.995 93.712 273.655 93.712C274.627 93.712 275.413 93.946 276.013 94.414C276.613 94.882 276.967 95.56 277.075 96.448H275.581C275.521 95.992 275.323 95.638 274.987 95.386C274.663 95.122 274.213 94.99 273.637 94.99C273.073 94.99 272.641 95.104 272.341 95.332C272.053 95.56 271.909 95.86 271.909 96.232C271.909 96.472 271.987 96.688 272.143 96.88C272.311 97.06 272.551 97.216 272.863 97.348C273.187 97.48 273.583 97.588 274.051 97.672C274.651 97.78 275.197 97.924 275.689 98.104C276.181 98.284 276.577 98.554 276.877 98.914C277.189 99.262 277.345 99.76 277.345 100.408C277.345 100.972 277.201 101.464 276.913 101.884C276.637 102.304 276.241 102.634 275.725 102.874C275.209 103.102 274.603 103.216 273.907 103.216ZM282.681 103C282.141 103 281.673 102.916 281.277 102.748C280.881 102.58 280.575 102.298 280.359 101.902C280.155 101.494 280.053 100.948 280.053 100.264V95.206H278.469V93.928H280.053L280.251 91.732H281.565V93.928H284.193V95.206H281.565V100.264C281.565 100.828 281.679 101.212 281.907 101.416C282.135 101.608 282.537 101.704 283.113 101.704H284.085V103H282.681ZM289.46 103.216C288.764 103.216 288.152 103.078 287.624 102.802C287.108 102.526 286.706 102.1 286.418 101.524C286.142 100.948 286.004 100.228 286.004 99.364V93.928H287.516V99.202C287.516 100.102 287.714 100.78 288.11 101.236C288.506 101.692 289.064 101.92 289.784 101.92C290.288 101.92 290.744 101.8 291.152 101.56C291.56 101.308 291.878 100.954 292.106 100.498C292.346 100.03 292.466 99.46 292.466 98.788V93.928H293.978V103H292.61L292.52 101.416C292.244 101.98 291.836 102.424 291.296 102.748C290.756 103.06 290.144 103.216 289.46 103.216ZM300.481 103.216C299.605 103.216 298.837 103.012 298.177 102.604C297.517 102.184 297.007 101.614 296.647 100.894C296.287 100.174 296.107 99.358 296.107 98.446C296.107 97.534 296.287 96.724 296.647 96.016C297.007 95.296 297.517 94.732 298.177 94.324C298.849 93.916 299.623 93.712 300.499 93.712C301.243 93.712 301.891 93.862 302.443 94.162C303.007 94.462 303.439 94.882 303.739 95.422V90.04H305.251V103H303.883L303.757 101.506C303.565 101.806 303.319 102.088 303.019 102.352C302.719 102.604 302.359 102.814 301.939 102.982C301.519 103.138 301.033 103.216 300.481 103.216ZM300.661 101.902C301.261 101.902 301.789 101.758 302.245 101.47C302.701 101.182 303.055 100.786 303.307 100.282C303.559 99.766 303.685 99.16 303.685 98.464C303.685 97.78 303.559 97.18 303.307 96.664C303.055 96.148 302.701 95.746 302.245 95.458C301.789 95.17 301.261 95.026 300.661 95.026C300.073 95.026 299.551 95.17 299.095 95.458C298.639 95.746 298.285 96.148 298.033 96.664C297.781 97.18 297.655 97.78 297.655 98.464C297.655 99.16 297.781 99.766 298.033 100.282C298.285 100.786 298.639 101.182 299.095 101.47C299.551 101.758 300.073 101.902 300.661 101.902ZM308.76 106.96L310.974 101.992H310.452L306.888 93.928H308.526L311.478 100.858L314.574 93.928H316.14L310.344 106.96H308.76ZM261.211 126.216C260.695 126.216 260.227 126.144 259.807 126C259.399 125.844 259.039 125.64 258.727 125.388C258.415 125.136 258.157 124.842 257.953 124.506L257.827 126H256.459V113.04H257.971V118.422C258.259 117.954 258.673 117.552 259.213 117.216C259.753 116.88 260.419 116.712 261.211 116.712C262.087 116.712 262.855 116.922 263.515 117.342C264.175 117.75 264.685 118.314 265.045 119.034C265.417 119.742 265.603 120.552 265.603 121.464C265.603 122.376 265.417 123.192 265.045 123.912C264.685 124.632 264.175 125.196 263.515 125.604C262.855 126.012 262.087 126.216 261.211 126.216ZM261.031 124.902C261.619 124.902 262.141 124.758 262.597 124.47C263.053 124.182 263.407 123.786 263.659 123.282C263.923 122.766 264.055 122.16 264.055 121.464C264.055 120.78 263.923 120.18 263.659 119.664C263.407 119.148 263.053 118.746 262.597 118.458C262.141 118.17 261.619 118.026 261.031 118.026C260.431 118.026 259.903 118.17 259.447 118.458C258.991 118.746 258.637 119.148 258.385 119.664C258.133 120.18 258.007 120.78 258.007 121.464C258.007 122.16 258.133 122.766 258.385 123.282C258.637 123.786 258.991 124.182 259.447 124.47C259.903 124.758 260.431 124.902 261.031 124.902ZM267.727 126V116.928H269.095L269.203 118.656C269.407 118.248 269.665 117.9 269.977 117.612C270.301 117.324 270.685 117.102 271.129 116.946C271.585 116.79 272.101 116.712 272.677 116.712V118.296H272.119C271.735 118.296 271.369 118.35 271.021 118.458C270.673 118.554 270.361 118.716 270.085 118.944C269.821 119.172 269.611 119.484 269.455 119.88C269.311 120.264 269.239 120.744 269.239 121.32V126H267.727ZM274.533 126V116.928H276.045V126H274.533ZM275.289 115.002C274.989 115.002 274.737 114.906 274.533 114.714C274.341 114.51 274.245 114.258 274.245 113.958C274.245 113.658 274.341 113.418 274.533 113.238C274.737 113.046 274.989 112.95 275.289 112.95C275.577 112.95 275.823 113.046 276.027 113.238C276.231 113.418 276.333 113.658 276.333 113.958C276.333 114.258 276.231 114.51 276.027 114.714C275.823 114.906 275.577 115.002 275.289 115.002ZM282.691 126.216C281.839 126.216 281.083 126.018 280.423 125.622C279.775 125.226 279.265 124.674 278.893 123.966C278.521 123.246 278.335 122.412 278.335 121.464C278.335 120.504 278.515 119.67 278.875 118.962C279.247 118.254 279.763 117.702 280.423 117.306C281.095 116.91 281.863 116.712 282.727 116.712C283.615 116.712 284.365 116.91 284.977 117.306C285.601 117.702 286.075 118.224 286.399 118.872C286.735 119.508 286.903 120.21 286.903 120.978C286.903 121.098 286.903 121.224 286.903 121.356C286.903 121.488 286.897 121.638 286.885 121.806H279.469V120.636H285.427C285.391 119.808 285.115 119.16 284.599 118.692C284.095 118.224 283.459 117.99 282.691 117.99C282.175 117.99 281.695 118.11 281.251 118.35C280.819 118.578 280.471 118.92 280.207 119.376C279.943 119.82 279.811 120.378 279.811 121.05V121.554C279.811 122.298 279.943 122.922 280.207 123.426C280.483 123.93 280.837 124.308 281.269 124.56C281.713 124.812 282.187 124.938 282.691 124.938C283.327 124.938 283.849 124.8 284.257 124.524C284.677 124.236 284.977 123.852 285.157 123.372H286.651C286.507 123.912 286.255 124.398 285.895 124.83C285.535 125.262 285.085 125.604 284.545 125.856C284.017 126.096 283.399 126.216 282.691 126.216ZM289.448 126V115.524C289.448 114.948 289.544 114.48 289.736 114.12C289.928 113.748 290.21 113.478 290.582 113.31C290.966 113.13 291.434 113.04 291.986 113.04H293.012V114.336H292.22C291.776 114.336 291.452 114.426 291.248 114.606C291.056 114.786 290.96 115.104 290.96 115.56V126H289.448ZM288.062 118.206V116.928H293.246V118.206H288.062Z" fill="#0000FF"/>
<line x1="121.003" y1="249.5" x2="264.004" y2="250.5" stroke="black"/>
<line x1="626" y1="248.5" x2="769" y2="248.5" stroke="black"/>
<line x1="284" y1="249.5" x2="321" y2="249.5" stroke="black"/>
<line x1="341" y1="249.5" x2="378" y2="249.5" stroke="black"/>
<line x1="398" y1="249.5" x2="435" y2="249.5" stroke="black"/>
<line x1="455" y1="249.5" x2="492" y2="249.5" stroke="black"/>
<line x1="512" y1="249.5" x2="549" y2="249.5" stroke="black"/>
<line x1="569" y1="249.5" x2="606" y2="249.5" stroke="black"/>
<line x1="329.5" y1="239" x2="329.5" y2="194" stroke="#00A035"/>
<line x1="330" y1="193.5" x2="410" y2="193.5" stroke="#00FF55"/>
<line x1="329" y1="193.5" x2="411" y2="193.5" stroke="#00A035"/>
<line x1="477" y1="193.5" x2="560" y2="193.5" stroke="#00A035"/>
<line x1="559.5" y1="194" x2="559.5" y2="239" stroke="#00A035"/>
<line x1="616" y1="135" x2="616" y2="239" stroke="#FF5100"/>
<path d="M425.316 182.216C424.392 182.216 423.588 182.048 422.904 181.712C422.22 181.376 421.692 180.908 421.32 180.308C420.948 179.708 420.762 179.012 420.762 178.22H422.346C422.346 178.712 422.46 179.168 422.688 179.588C422.916 179.996 423.246 180.326 423.678 180.578C424.122 180.818 424.668 180.938 425.316 180.938C425.88 180.938 426.36 180.848 426.756 180.668C427.164 180.476 427.47 180.218 427.674 179.894C427.89 179.57 427.998 179.204 427.998 178.796C427.998 178.304 427.89 177.908 427.674 177.608C427.47 177.296 427.188 177.044 426.828 176.852C426.468 176.66 426.048 176.492 425.568 176.348C425.1 176.192 424.608 176.03 424.092 175.862C423.096 175.526 422.364 175.106 421.896 174.602C421.428 174.098 421.194 173.444 421.194 172.64C421.194 171.956 421.35 171.356 421.662 170.84C421.986 170.324 422.442 169.922 423.03 169.634C423.63 169.334 424.338 169.184 425.154 169.184C425.958 169.184 426.654 169.334 427.242 169.634C427.842 169.934 428.31 170.348 428.646 170.876C428.982 171.392 429.15 171.992 429.15 172.676H427.566C427.566 172.328 427.476 171.986 427.296 171.65C427.116 171.314 426.84 171.038 426.468 170.822C426.108 170.594 425.652 170.48 425.1 170.48C424.644 170.468 424.236 170.546 423.876 170.714C423.528 170.87 423.252 171.098 423.048 171.398C422.856 171.698 422.76 172.064 422.76 172.496C422.76 172.904 422.844 173.234 423.012 173.486C423.192 173.738 423.444 173.954 423.768 174.134C424.104 174.302 424.494 174.458 424.938 174.602C425.382 174.746 425.874 174.908 426.414 175.088C427.026 175.292 427.566 175.544 428.034 175.844C428.514 176.132 428.886 176.504 429.15 176.96C429.426 177.416 429.564 177.998 429.564 178.706C429.564 179.306 429.402 179.876 429.078 180.416C428.766 180.944 428.298 181.376 427.674 181.712C427.05 182.048 426.264 182.216 425.316 182.216ZM435.218 182C434.678 182 434.21 181.916 433.814 181.748C433.418 181.58 433.112 181.298 432.896 180.902C432.692 180.494 432.59 179.948 432.59 179.264V174.206H431.006V172.928H432.59L432.788 170.732H434.102V172.928H436.73V174.206H434.102V179.264C434.102 179.828 434.216 180.212 434.444 180.416C434.672 180.608 435.074 180.704 435.65 180.704H436.622V182H435.218ZM441.996 182.216C441.3 182.216 440.688 182.078 440.16 181.802C439.644 181.526 439.242 181.1 438.954 180.524C438.678 179.948 438.54 179.228 438.54 178.364V172.928H440.052V178.202C440.052 179.102 440.25 179.78 440.646 180.236C441.042 180.692 441.6 180.92 442.32 180.92C442.824 180.92 443.28 180.8 443.688 180.56C444.096 180.308 444.414 179.954 444.642 179.498C444.882 179.03 445.002 178.46 445.002 177.788V172.928H446.514V182H445.146L445.056 180.416C444.78 180.98 444.372 181.424 443.832 181.748C443.292 182.06 442.68 182.216 441.996 182.216ZM453.017 182.216C452.141 182.216 451.373 182.012 450.713 181.604C450.053 181.184 449.543 180.614 449.183 179.894C448.823 179.174 448.643 178.358 448.643 177.446C448.643 176.534 448.823 175.724 449.183 175.016C449.543 174.296 450.053 173.732 450.713 173.324C451.385 172.916 452.159 172.712 453.035 172.712C453.779 172.712 454.427 172.862 454.979 173.162C455.543 173.462 455.975 173.882 456.275 174.422V169.04H457.787V182H456.419L456.293 180.506C456.101 180.806 455.855 181.088 455.555 181.352C455.255 181.604 454.895 181.814 454.475 181.982C454.055 182.138 453.569 182.216 453.017 182.216ZM453.197 180.902C453.797 180.902 454.325 180.758 454.781 180.47C455.237 180.182 455.591 179.786 455.843 179.282C456.095 178.766 456.221 178.16 456.221 177.464C456.221 176.78 456.095 176.18 455.843 175.664C455.591 175.148 455.237 174.746 454.781 174.458C454.325 174.17 453.797 174.026 453.197 174.026C452.609 174.026 452.087 174.17 451.631 174.458C451.175 174.746 450.821 175.148 450.569 175.664C450.317 176.18 450.191 176.78 450.191 177.464C450.191 178.16 450.317 178.766 450.569 179.282C450.821 179.786 451.175 180.182 451.631 180.47C452.087 180.758 452.609 180.902 453.197 180.902ZM461.296 185.96L463.51 180.992H462.988L459.424 172.928H461.062L464.014 179.858L467.11 172.928H468.676L462.88 185.96H461.296ZM418.54 208.96V195.928H419.908L420.034 197.404C420.226 197.116 420.472 196.846 420.772 196.594C421.072 196.33 421.432 196.12 421.852 195.964C422.272 195.796 422.752 195.712 423.292 195.712C424.18 195.712 424.948 195.922 425.596 196.342C426.256 196.762 426.766 197.332 427.126 198.052C427.498 198.76 427.684 199.57 427.684 200.482C427.684 201.394 427.498 202.21 427.126 202.93C426.766 203.638 426.256 204.196 425.596 204.604C424.936 205.012 424.162 205.216 423.274 205.216C422.542 205.216 421.894 205.066 421.33 204.766C420.778 204.466 420.352 204.046 420.052 203.506V208.96H418.54ZM423.112 203.902C423.7 203.902 424.222 203.758 424.678 203.47C425.134 203.182 425.488 202.786 425.74 202.282C426.004 201.766 426.136 201.16 426.136 200.464C426.136 199.78 426.004 199.18 425.74 198.664C425.488 198.148 425.134 197.746 424.678 197.458C424.222 197.17 423.7 197.026 423.112 197.026C422.512 197.026 421.984 197.17 421.528 197.458C421.072 197.746 420.718 198.148 420.466 198.664C420.214 199.18 420.088 199.78 420.088 200.464C420.088 201.16 420.214 201.766 420.466 202.282C420.718 202.786 421.072 203.182 421.528 203.47C421.984 203.758 422.512 203.902 423.112 203.902ZM433.786 205.216C432.934 205.216 432.178 205.018 431.518 204.622C430.87 204.226 430.36 203.674 429.988 202.966C429.616 202.246 429.43 201.412 429.43 200.464C429.43 199.504 429.61 198.67 429.97 197.962C430.342 197.254 430.858 196.702 431.518 196.306C432.19 195.91 432.958 195.712 433.822 195.712C434.71 195.712 435.46 195.91 436.072 196.306C436.696 196.702 437.17 197.224 437.494 197.872C437.83 198.508 437.998 199.21 437.998 199.978C437.998 200.098 437.998 200.224 437.998 200.356C437.998 200.488 437.992 200.638 437.98 200.806H430.564V199.636H436.522C436.486 198.808 436.21 198.16 435.694 197.692C435.19 197.224 434.554 196.99 433.786 196.99C433.27 196.99 432.79 197.11 432.346 197.35C431.914 197.578 431.566 197.92 431.302 198.376C431.038 198.82 430.906 199.378 430.906 200.05V200.554C430.906 201.298 431.038 201.922 431.302 202.426C431.578 202.93 431.932 203.308 432.364 203.56C432.808 203.812 433.282 203.938 433.786 203.938C434.422 203.938 434.944 203.8 435.352 203.524C435.772 203.236 436.072 202.852 436.252 202.372H437.746C437.602 202.912 437.35 203.398 436.99 203.83C436.63 204.262 436.18 204.604 435.64 204.856C435.112 205.096 434.494 205.216 433.786 205.216ZM440.038 205V195.928H441.406L441.514 197.656C441.718 197.248 441.976 196.9 442.288 196.612C442.612 196.324 442.996 196.102 443.44 195.946C443.896 195.79 444.412 195.712 444.988 195.712V197.296H444.43C444.046 197.296 443.68 197.35 443.332 197.458C442.984 197.554 442.672 197.716 442.396 197.944C442.132 198.172 441.922 198.484 441.766 198.88C441.622 199.264 441.55 199.744 441.55 200.32V205H440.038ZM446.844 205V195.928H448.356V205H446.844ZM447.6 194.002C447.3 194.002 447.048 193.906 446.844 193.714C446.652 193.51 446.556 193.258 446.556 192.958C446.556 192.658 446.652 192.418 446.844 192.238C447.048 192.046 447.3 191.95 447.6 191.95C447.888 191.95 448.134 192.046 448.338 192.238C448.542 192.418 448.644 192.658 448.644 192.958C448.644 193.258 448.542 193.51 448.338 193.714C448.134 193.906 447.888 194.002 447.6 194.002ZM455.075 205.216C454.235 205.216 453.479 205.024 452.807 204.64C452.135 204.244 451.607 203.692 451.223 202.984C450.839 202.264 450.647 201.43 450.647 200.482C450.647 199.51 450.839 198.67 451.223 197.962C451.619 197.242 452.153 196.69 452.825 196.306C453.509 195.91 454.271 195.712 455.111 195.712C455.975 195.712 456.737 195.91 457.397 196.306C458.069 196.69 458.597 197.242 458.981 197.962C459.377 198.67 459.575 199.504 459.575 200.464C459.575 201.424 459.377 202.264 458.981 202.984C458.585 203.692 458.051 204.244 457.379 204.64C456.707 205.024 455.939 205.216 455.075 205.216ZM455.093 203.92C455.609 203.92 456.089 203.794 456.533 203.542C456.977 203.278 457.337 202.888 457.613 202.372C457.889 201.856 458.027 201.22 458.027 200.464C458.027 199.696 457.889 199.06 457.613 198.556C457.349 198.04 456.995 197.656 456.551 197.404C456.119 197.14 455.639 197.008 455.111 197.008C454.607 197.008 454.127 197.14 453.671 197.404C453.227 197.656 452.867 198.04 452.591 198.556C452.327 199.06 452.195 199.696 452.195 200.464C452.195 201.22 452.327 201.856 452.591 202.372C452.867 202.888 453.221 203.278 453.653 203.542C454.097 203.794 454.577 203.92 455.093 203.92ZM465.691 205.216C464.815 205.216 464.047 205.012 463.387 204.604C462.727 204.184 462.217 203.614 461.857 202.894C461.497 202.174 461.317 201.358 461.317 200.446C461.317 199.534 461.497 198.724 461.857 198.016C462.217 197.296 462.727 196.732 463.387 196.324C464.059 195.916 464.833 195.712 465.709 195.712C466.453 195.712 467.101 195.862 467.653 196.162C468.217 196.462 468.649 196.882 468.949 197.422V192.04H470.461V205H469.093L468.967 203.506C468.775 203.806 468.529 204.088 468.229 204.352C467.929 204.604 467.569 204.814 467.149 204.982C466.729 205.138 466.243 205.216 465.691 205.216ZM465.871 203.902C466.471 203.902 466.999 203.758 467.455 203.47C467.911 203.182 468.265 202.786 468.517 202.282C468.769 201.766 468.895 201.16 468.895 200.464C468.895 199.78 468.769 199.18 468.517 198.664C468.265 198.148 467.911 197.746 467.455 197.458C466.999 197.17 466.471 197.026 465.871 197.026C465.283 197.026 464.761 197.17 464.305 197.458C463.849 197.746 463.495 198.148 463.243 198.664C462.991 199.18 462.865 199.78 462.865 200.464C462.865 201.16 462.991 201.766 463.243 202.282C463.495 202.786 463.849 203.182 464.305 203.47C464.761 203.758 465.283 203.902 465.871 203.902Z" fill="#00A035"/>
<path d="M570.706 103V90.4H574.81C575.806 90.4 576.622 90.568 577.258 90.904C577.906 91.228 578.38 91.666 578.68 92.218C578.992 92.77 579.148 93.4 579.148 94.108C579.148 94.792 578.992 95.416 578.68 95.98C578.38 96.532 577.912 96.976 577.276 97.312C576.64 97.648 575.818 97.816 574.81 97.816H572.218V103H570.706ZM572.218 96.538H574.792C575.8 96.538 576.52 96.316 576.952 95.872C577.384 95.428 577.6 94.84 577.6 94.108C577.6 93.328 577.384 92.728 576.952 92.308C576.52 91.876 575.8 91.66 574.792 91.66H572.218V96.538ZM584.581 103.216C583.741 103.216 582.985 103.024 582.313 102.64C581.641 102.244 581.113 101.692 580.729 100.984C580.345 100.264 580.153 99.43 580.153 98.482C580.153 97.51 580.345 96.67 580.729 95.962C581.125 95.242 581.659 94.69 582.331 94.306C583.015 93.91 583.777 93.712 584.617 93.712C585.481 93.712 586.243 93.91 586.903 94.306C587.575 94.69 588.103 95.242 588.487 95.962C588.883 96.67 589.081 97.504 589.081 98.464C589.081 99.424 588.883 100.264 588.487 100.984C588.091 101.692 587.557 102.244 586.885 102.64C586.213 103.024 585.445 103.216 584.581 103.216ZM584.599 101.92C585.115 101.92 585.595 101.794 586.039 101.542C586.483 101.278 586.843 100.888 587.119 100.372C587.395 99.856 587.533 99.22 587.533 98.464C587.533 97.696 587.395 97.06 587.119 96.556C586.855 96.04 586.501 95.656 586.057 95.404C585.625 95.14 585.145 95.008 584.617 95.008C584.113 95.008 583.633 95.14 583.177 95.404C582.733 95.656 582.373 96.04 582.097 96.556C581.833 97.06 581.701 97.696 581.701 98.464C581.701 99.22 581.833 99.856 582.097 100.372C582.373 100.888 582.727 101.278 583.159 101.542C583.603 101.794 584.083 101.92 584.599 101.92ZM594.62 103.216C593.864 103.216 593.204 103.09 592.64 102.838C592.088 102.586 591.644 102.238 591.308 101.794C590.984 101.338 590.786 100.804 590.714 100.192H592.262C592.322 100.504 592.448 100.792 592.64 101.056C592.832 101.32 593.09 101.536 593.414 101.704C593.75 101.86 594.158 101.938 594.638 101.938C595.058 101.938 595.406 101.878 595.682 101.758C595.958 101.626 596.162 101.452 596.294 101.236C596.438 101.02 596.51 100.786 596.51 100.534C596.51 100.162 596.42 99.88 596.24 99.688C596.072 99.496 595.82 99.346 595.484 99.238C595.148 99.118 594.74 99.016 594.26 98.932C593.864 98.86 593.474 98.764 593.09 98.644C592.706 98.524 592.364 98.368 592.064 98.176C591.764 97.972 591.524 97.726 591.344 97.438C591.176 97.15 591.092 96.796 591.092 96.376C591.092 95.86 591.224 95.404 591.488 95.008C591.752 94.6 592.13 94.282 592.622 94.054C593.126 93.826 593.708 93.712 594.368 93.712C595.34 93.712 596.126 93.946 596.726 94.414C597.326 94.882 597.68 95.56 597.788 96.448H596.294C596.234 95.992 596.036 95.638 595.7 95.386C595.376 95.122 594.926 94.99 594.35 94.99C593.786 94.99 593.354 95.104 593.054 95.332C592.766 95.56 592.622 95.86 592.622 96.232C592.622 96.472 592.7 96.688 592.856 96.88C593.024 97.06 593.264 97.216 593.576 97.348C593.9 97.48 594.296 97.588 594.764 97.672C595.364 97.78 595.91 97.924 596.402 98.104C596.894 98.284 597.29 98.554 597.59 98.914C597.902 99.262 598.058 99.76 598.058 100.408C598.058 100.972 597.914 101.464 597.626 101.884C597.35 102.304 596.954 102.634 596.438 102.874C595.922 103.102 595.316 103.216 594.62 103.216ZM603.395 103C602.855 103 602.387 102.916 601.991 102.748C601.595 102.58 601.289 102.298 601.073 101.902C600.869 101.494 600.767 100.948 600.767 100.264V95.206H599.183V93.928H600.767L600.965 91.732H602.279V93.928H604.907V95.206H602.279V100.264C602.279 100.828 602.393 101.212 602.621 101.416C602.849 101.608 603.251 101.704 603.827 101.704H604.799V103H603.395ZM606.916 98.32V97.042H614.044V98.32H606.916ZM620.038 103.216C619.282 103.216 618.622 103.09 618.058 102.838C617.506 102.586 617.062 102.238 616.726 101.794C616.402 101.338 616.204 100.804 616.132 100.192H617.68C617.74 100.504 617.866 100.792 618.058 101.056C618.25 101.32 618.508 101.536 618.832 101.704C619.168 101.86 619.576 101.938 620.056 101.938C620.476 101.938 620.824 101.878 621.1 101.758C621.376 101.626 621.58 101.452 621.712 101.236C621.856 101.02 621.928 100.786 621.928 100.534C621.928 100.162 621.838 99.88 621.658 99.688C621.49 99.496 621.238 99.346 620.902 99.238C620.566 99.118 620.158 99.016 619.678 98.932C619.282 98.86 618.892 98.764 618.508 98.644C618.124 98.524 617.782 98.368 617.482 98.176C617.182 97.972 616.942 97.726 616.762 97.438C616.594 97.15 616.51 96.796 616.51 96.376C616.51 95.86 616.642 95.404 616.906 95.008C617.17 94.6 617.548 94.282 618.04 94.054C618.544 93.826 619.126 93.712 619.786 93.712C620.758 93.712 621.544 93.946 622.144 94.414C622.744 94.882 623.098 95.56 623.206 96.448H621.712C621.652 95.992 621.454 95.638 621.118 95.386C620.794 95.122 620.344 94.99 619.768 94.99C619.204 94.99 618.772 95.104 618.472 95.332C618.184 95.56 618.04 95.86 618.04 96.232C618.04 96.472 618.118 96.688 618.274 96.88C618.442 97.06 618.682 97.216 618.994 97.348C619.318 97.48 619.714 97.588 620.182 97.672C620.782 97.78 621.328 97.924 621.82 98.104C622.312 98.284 622.708 98.554 623.008 98.914C623.32 99.262 623.476 99.76 623.476 100.408C623.476 100.972 623.332 101.464 623.044 101.884C622.768 102.304 622.372 102.634 621.856 102.874C621.34 103.102 620.734 103.216 620.038 103.216ZM628.813 103C628.273 103 627.805 102.916 627.409 102.748C627.013 102.58 626.707 102.298 626.491 101.902C626.287 101.494 626.185 100.948 626.185 100.264V95.206H624.601V93.928H626.185L626.383 91.732H627.697V93.928H630.325V95.206H627.697V100.264C627.697 100.828 627.811 101.212 628.039 101.416C628.267 101.608 628.669 101.704 629.245 101.704H630.217V103H628.813ZM635.592 103.216C634.896 103.216 634.284 103.078 633.756 102.802C633.24 102.526 632.838 102.1 632.55 101.524C632.274 100.948 632.136 100.228 632.136 99.364V93.928H633.648V99.202C633.648 100.102 633.846 100.78 634.242 101.236C634.638 101.692 635.196 101.92 635.916 101.92C636.42 101.92 636.876 101.8 637.284 101.56C637.692 101.308 638.01 100.954 638.238 100.498C638.478 100.03 638.598 99.46 638.598 98.788V93.928H640.11V103H638.742L638.652 101.416C638.376 101.98 637.968 102.424 637.428 102.748C636.888 103.06 636.276 103.216 635.592 103.216ZM646.612 103.216C645.736 103.216 644.968 103.012 644.308 102.604C643.648 102.184 643.138 101.614 642.778 100.894C642.418 100.174 642.238 99.358 642.238 98.446C642.238 97.534 642.418 96.724 642.778 96.016C643.138 95.296 643.648 94.732 644.308 94.324C644.98 93.916 645.754 93.712 646.63 93.712C647.374 93.712 648.022 93.862 648.574 94.162C649.138 94.462 649.57 94.882 649.87 95.422V90.04H651.382V103H650.014L649.888 101.506C649.696 101.806 649.45 102.088 649.15 102.352C648.85 102.604 648.49 102.814 648.07 102.982C647.65 103.138 647.164 103.216 646.612 103.216ZM646.792 101.902C647.392 101.902 647.92 101.758 648.376 101.47C648.832 101.182 649.186 100.786 649.438 100.282C649.69 99.766 649.816 99.16 649.816 98.464C649.816 97.78 649.69 97.18 649.438 96.664C649.186 96.148 648.832 95.746 648.376 95.458C647.92 95.17 647.392 95.026 646.792 95.026C646.204 95.026 645.682 95.17 645.226 95.458C644.77 95.746 644.416 96.148 644.164 96.664C643.912 97.18 643.786 97.78 643.786 98.464C643.786 99.16 643.912 99.766 644.164 100.282C644.416 100.786 644.77 101.182 645.226 101.47C645.682 101.758 646.204 101.902 646.792 101.902ZM654.892 106.96L657.106 101.992H656.584L653.02 93.928H654.658L657.61 100.858L660.706 93.928H662.272L656.476 106.96H654.892ZM579.514 126V116.928H581.026V126H579.514ZM580.27 115.002C579.97 115.002 579.718 114.906 579.514 114.714C579.322 114.51 579.226 114.258 579.226 113.958C579.226 113.658 579.322 113.418 579.514 113.238C579.718 113.046 579.97 112.95 580.27 112.95C580.558 112.95 580.804 113.046 581.008 113.238C581.212 113.418 581.314 113.658 581.314 113.958C581.314 114.258 581.212 114.51 581.008 114.714C580.804 114.906 580.558 115.002 580.27 115.002ZM583.695 126V116.928H585.063L585.135 118.512C585.423 117.948 585.831 117.51 586.359 117.198C586.899 116.874 587.511 116.712 588.195 116.712C588.903 116.712 589.515 116.856 590.031 117.144C590.547 117.42 590.949 117.846 591.237 118.422C591.525 118.986 591.669 119.706 591.669 120.582V126H590.157V120.744C590.157 119.832 589.953 119.148 589.545 118.692C589.149 118.236 588.585 118.008 587.853 118.008C587.349 118.008 586.899 118.134 586.503 118.386C586.107 118.626 585.789 118.98 585.549 119.448C585.321 119.904 585.207 120.474 585.207 121.158V126H583.695ZM597.595 126C597.055 126 596.587 125.916 596.191 125.748C595.795 125.58 595.489 125.298 595.273 124.902C595.069 124.494 594.967 123.948 594.967 123.264V118.206H593.383V116.928H594.967L595.165 114.732H596.479V116.928H599.107V118.206H596.479V123.264C596.479 123.828 596.593 124.212 596.821 124.416C597.049 124.608 597.451 124.704 598.027 124.704H598.999V126H597.595ZM604.811 126.216C603.959 126.216 603.203 126.018 602.543 125.622C601.895 125.226 601.385 124.674 601.013 123.966C600.641 123.246 600.455 122.412 600.455 121.464C600.455 120.504 600.635 119.67 600.995 118.962C601.367 118.254 601.883 117.702 602.543 117.306C603.215 116.91 603.983 116.712 604.847 116.712C605.735 116.712 606.485 116.91 607.097 117.306C607.721 117.702 608.195 118.224 608.519 118.872C608.855 119.508 609.023 120.21 609.023 120.978C609.023 121.098 609.023 121.224 609.023 121.356C609.023 121.488 609.017 121.638 609.005 121.806H601.589V120.636H607.547C607.511 119.808 607.235 119.16 606.719 118.692C606.215 118.224 605.579 117.99 604.811 117.99C604.295 117.99 603.815 118.11 603.371 118.35C602.939 118.578 602.591 118.92 602.327 119.376C602.063 119.82 601.931 120.378 601.931 121.05V121.554C601.931 122.298 602.063 122.922 602.327 123.426C602.603 123.93 602.957 124.308 603.389 124.56C603.833 124.812 604.307 124.938 604.811 124.938C605.447 124.938 605.969 124.8 606.377 124.524C606.797 124.236 607.097 123.852 607.277 123.372H608.771C608.627 123.912 608.375 124.398 608.015 124.83C607.655 125.262 607.205 125.604 606.665 125.856C606.137 126.096 605.519 126.216 604.811 126.216ZM611.064 126V116.928H612.432L612.54 118.656C612.744 118.248 613.002 117.9 613.314 117.612C613.638 117.324 614.022 117.102 614.466 116.946C614.922 116.79 615.438 116.712 616.014 116.712V118.296H615.456C615.072 118.296 614.706 118.35 614.358 118.458C614.01 118.554 613.698 118.716 613.422 118.944C613.158 119.172 612.948 119.484 612.792 119.88C612.648 120.264 612.576 120.744 612.576 121.32V126H611.064ZM620.336 126L616.898 116.928H618.482L621.218 124.542L623.972 116.928H625.52L622.082 126H620.336ZM627.362 126V116.928H628.874V126H627.362ZM628.118 115.002C627.818 115.002 627.566 114.906 627.362 114.714C627.17 114.51 627.074 114.258 627.074 113.958C627.074 113.658 627.17 113.418 627.362 113.238C627.566 113.046 627.818 112.95 628.118 112.95C628.406 112.95 628.652 113.046 628.856 113.238C629.06 113.418 629.162 113.658 629.162 113.958C629.162 114.258 629.06 114.51 628.856 114.714C628.652 114.906 628.406 115.002 628.118 115.002ZM635.52 126.216C634.668 126.216 633.912 126.018 633.252 125.622C632.604 125.226 632.094 124.674 631.722 123.966C631.35 123.246 631.164 122.412 631.164 121.464C631.164 120.504 631.344 119.67 631.704 118.962C632.076 118.254 632.592 117.702 633.252 117.306C633.924 116.91 634.692 116.712 635.556 116.712C636.444 116.712 637.194 116.91 637.806 117.306C638.43 117.702 638.904 118.224 639.228 118.872C639.564 119.508 639.732 120.21 639.732 120.978C639.732 121.098 639.732 121.224 639.732 121.356C639.732 121.488 639.726 121.638 639.714 121.806H632.298V120.636H638.256C638.22 119.808 637.944 119.16 637.428 118.692C636.924 118.224 636.288 117.99 635.52 117.99C635.004 117.99 634.524 118.11 634.08 118.35C633.648 118.578 633.3 118.92 633.036 119.376C632.772 119.82 632.64 120.378 632.64 121.05V121.554C632.64 122.298 632.772 122.922 633.036 123.426C633.312 123.93 633.666 124.308 634.098 124.56C634.542 124.812 635.016 124.938 635.52 124.938C636.156 124.938 636.678 124.8 637.086 124.524C637.506 124.236 637.806 123.852 637.986 123.372H639.48C639.336 123.912 639.084 124.398 638.724 124.83C638.364 125.262 637.914 125.604 637.374 125.856C636.846 126.096 636.228 126.216 635.52 126.216ZM643.257 126L640.593 116.928H642.105L644.175 124.578H643.905L646.155 116.928H647.865L650.151 124.56L649.863 124.578L651.915 116.928H653.445L650.799 126H649.251L646.875 118.008H647.181L644.805 126H643.257Z" fill="#FF5100"/>
<path d="M758.571 174V161.4H762.279C763.755 161.4 764.967 161.658 765.915 162.174C766.875 162.678 767.583 163.404 768.039 164.352C768.507 165.288 768.741 166.416 768.741 167.736C768.741 169.032 768.507 170.148 768.039 171.084C767.583 172.02 766.875 172.74 765.915 173.244C764.967 173.748 763.755 174 762.279 174H758.571ZM760.083 172.74H762.243C763.467 172.74 764.439 172.542 765.159 172.146C765.879 171.738 766.395 171.162 766.707 170.418C767.019 169.662 767.175 168.768 767.175 167.736C767.175 166.68 767.019 165.774 766.707 165.018C766.395 164.262 765.879 163.68 765.159 163.272C764.439 162.864 763.467 162.66 762.243 162.66H760.083V172.74ZM773.825 174.216C773.093 174.216 772.481 174.09 771.989 173.838C771.497 173.574 771.131 173.232 770.891 172.812C770.651 172.38 770.531 171.912 770.531 171.408C770.531 170.796 770.687 170.28 770.999 169.86C771.323 169.428 771.773 169.104 772.349 168.888C772.937 168.66 773.627 168.546 774.419 168.546H776.813C776.813 167.982 776.723 167.514 776.543 167.142C776.375 166.758 776.123 166.47 775.787 166.278C775.463 166.086 775.055 165.99 774.563 165.99C773.987 165.99 773.489 166.134 773.069 166.422C772.649 166.71 772.391 167.136 772.295 167.7H770.747C770.819 167.052 771.035 166.512 771.395 166.08C771.767 165.636 772.235 165.3 772.799 165.072C773.363 164.832 773.951 164.712 774.563 164.712C775.403 164.712 776.099 164.868 776.651 165.18C777.215 165.48 777.635 165.906 777.911 166.458C778.187 166.998 778.325 167.64 778.325 168.384V174H776.975L776.885 172.398C776.765 172.65 776.609 172.89 776.417 173.118C776.237 173.334 776.021 173.526 775.769 173.694C775.517 173.85 775.229 173.976 774.905 174.072C774.593 174.168 774.233 174.216 773.825 174.216ZM774.059 172.938C774.479 172.938 774.857 172.854 775.193 172.686C775.541 172.506 775.835 172.266 776.075 171.966C776.315 171.654 776.495 171.312 776.615 170.94C776.747 170.568 776.813 170.178 776.813 169.77V169.716H774.545C773.957 169.716 773.483 169.788 773.123 169.932C772.763 170.064 772.505 170.256 772.349 170.508C772.193 170.748 772.115 171.024 772.115 171.336C772.115 171.66 772.187 171.942 772.331 172.182C772.487 172.422 772.709 172.608 772.997 172.74C773.297 172.872 773.651 172.938 774.059 172.938ZM783.982 174C783.442 174 782.974 173.916 782.578 173.748C782.182 173.58 781.876 173.298 781.66 172.902C781.456 172.494 781.354 171.948 781.354 171.264V166.206H779.77V164.928H781.354L781.552 162.732H782.866V164.928H785.494V166.206H782.866V171.264C782.866 171.828 782.98 172.212 783.208 172.416C783.436 172.608 783.838 172.704 784.414 172.704H785.386V174H783.982ZM790.419 174.216C789.687 174.216 789.075 174.09 788.583 173.838C788.091 173.574 787.725 173.232 787.485 172.812C787.245 172.38 787.125 171.912 787.125 171.408C787.125 170.796 787.281 170.28 787.593 169.86C787.917 169.428 788.367 169.104 788.943 168.888C789.531 168.66 790.221 168.546 791.013 168.546H793.407C793.407 167.982 793.317 167.514 793.137 167.142C792.969 166.758 792.717 166.47 792.381 166.278C792.057 166.086 791.649 165.99 791.157 165.99C790.581 165.99 790.083 166.134 789.663 166.422C789.243 166.71 788.985 167.136 788.889 167.7H787.341C787.413 167.052 787.629 166.512 787.989 166.08C788.361 165.636 788.829 165.3 789.393 165.072C789.957 164.832 790.545 164.712 791.157 164.712C791.997 164.712 792.693 164.868 793.245 165.18C793.809 165.48 794.229 165.906 794.505 166.458C794.781 166.998 794.919 167.64 794.919 168.384V174H793.569L793.479 172.398C793.359 172.65 793.203 172.89 793.011 173.118C792.831 173.334 792.615 173.526 792.363 173.694C792.111 173.85 791.823 173.976 791.499 174.072C791.187 174.168 790.827 174.216 790.419 174.216ZM790.653 172.938C791.073 172.938 791.451 172.854 791.787 172.686C792.135 172.506 792.429 172.266 792.669 171.966C792.909 171.654 793.089 171.312 793.209 170.94C793.341 170.568 793.407 170.178 793.407 169.77V169.716H791.139C790.551 169.716 790.077 169.788 789.717 169.932C789.357 170.064 789.099 170.256 788.943 170.508C788.787 170.748 788.709 171.024 788.709 171.336C788.709 171.66 788.781 171.942 788.925 172.182C789.081 172.422 789.303 172.608 789.591 172.74C789.891 172.872 790.245 172.938 790.653 172.938ZM750.315 197.216C749.583 197.216 748.971 197.09 748.479 196.838C747.987 196.574 747.621 196.232 747.381 195.812C747.141 195.38 747.021 194.912 747.021 194.408C747.021 193.796 747.177 193.28 747.489 192.86C747.813 192.428 748.263 192.104 748.839 191.888C749.427 191.66 750.117 191.546 750.909 191.546H753.303C753.303 190.982 753.213 190.514 753.033 190.142C752.865 189.758 752.613 189.47 752.277 189.278C751.953 189.086 751.545 188.99 751.053 188.99C750.477 188.99 749.979 189.134 749.559 189.422C749.139 189.71 748.881 190.136 748.785 190.7H747.237C747.309 190.052 747.525 189.512 747.885 189.08C748.257 188.636 748.725 188.3 749.289 188.072C749.853 187.832 750.441 187.712 751.053 187.712C751.893 187.712 752.589 187.868 753.141 188.18C753.705 188.48 754.125 188.906 754.401 189.458C754.677 189.998 754.815 190.64 754.815 191.384V197H753.465L753.375 195.398C753.255 195.65 753.099 195.89 752.907 196.118C752.727 196.334 752.511 196.526 752.259 196.694C752.007 196.85 751.719 196.976 751.395 197.072C751.083 197.168 750.723 197.216 750.315 197.216ZM750.549 195.938C750.969 195.938 751.347 195.854 751.683 195.686C752.031 195.506 752.325 195.266 752.565 194.966C752.805 194.654 752.985 194.312 753.105 193.94C753.237 193.568 753.303 193.178 753.303 192.77V192.716H751.035C750.447 192.716 749.973 192.788 749.613 192.932C749.253 193.064 748.995 193.256 748.839 193.508C748.683 193.748 748.605 194.024 748.605 194.336C748.605 194.66 748.677 194.942 748.821 195.182C748.977 195.422 749.199 195.608 749.487 195.74C749.787 195.872 750.141 195.938 750.549 195.938ZM757.154 197V187.928H758.522L758.594 189.512C758.882 188.948 759.29 188.51 759.818 188.198C760.358 187.874 760.97 187.712 761.654 187.712C762.362 187.712 762.974 187.856 763.49 188.144C764.006 188.42 764.408 188.846 764.696 189.422C764.984 189.986 765.128 190.706 765.128 191.582V197H763.616V191.744C763.616 190.832 763.412 190.148 763.004 189.692C762.608 189.236 762.044 189.008 761.312 189.008C760.808 189.008 760.358 189.134 759.962 189.386C759.566 189.626 759.248 189.98 759.008 190.448C758.78 190.904 758.666 191.474 758.666 192.158V197H757.154ZM770.441 197.216C769.709 197.216 769.097 197.09 768.605 196.838C768.113 196.574 767.747 196.232 767.507 195.812C767.267 195.38 767.147 194.912 767.147 194.408C767.147 193.796 767.303 193.28 767.615 192.86C767.939 192.428 768.389 192.104 768.965 191.888C769.553 191.66 770.243 191.546 771.035 191.546H773.429C773.429 190.982 773.339 190.514 773.159 190.142C772.991 189.758 772.739 189.47 772.403 189.278C772.079 189.086 771.671 188.99 771.179 188.99C770.603 188.99 770.105 189.134 769.685 189.422C769.265 189.71 769.007 190.136 768.911 190.7H767.363C767.435 190.052 767.651 189.512 768.011 189.08C768.383 188.636 768.851 188.3 769.415 188.072C769.979 187.832 770.567 187.712 771.179 187.712C772.019 187.712 772.715 187.868 773.267 188.18C773.831 188.48 774.251 188.906 774.527 189.458C774.803 189.998 774.941 190.64 774.941 191.384V197H773.591L773.501 195.398C773.381 195.65 773.225 195.89 773.033 196.118C772.853 196.334 772.637 196.526 772.385 196.694C772.133 196.85 771.845 196.976 771.521 197.072C771.209 197.168 770.849 197.216 770.441 197.216ZM770.675 195.938C771.095 195.938 771.473 195.854 771.809 195.686C772.157 195.506 772.451 195.266 772.691 194.966C772.931 194.654 773.111 194.312 773.231 193.94C773.363 193.568 773.429 193.178 773.429 192.77V192.716H771.161C770.573 192.716 770.099 192.788 769.739 192.932C769.379 193.064 769.121 193.256 768.965 193.508C768.809 193.748 768.731 194.024 768.731 194.336C768.731 194.66 768.803 194.942 768.947 195.182C769.103 195.422 769.325 195.608 769.613 195.74C769.913 195.872 770.267 195.938 770.675 195.938ZM777.281 197V184.04H778.793V197H777.281ZM782.278 200.96L784.492 195.992H783.97L780.406 187.928H782.044L784.996 194.858L788.092 187.928H789.658L783.862 200.96H782.278ZM794.183 197.216C793.427 197.216 792.767 197.09 792.203 196.838C791.651 196.586 791.207 196.238 790.871 195.794C790.547 195.338 790.349 194.804 790.277 194.192H791.825C791.885 194.504 792.011 194.792 792.203 195.056C792.395 195.32 792.653 195.536 792.977 195.704C793.313 195.86 793.721 195.938 794.201 195.938C794.621 195.938 794.969 195.878 795.245 195.758C795.521 195.626 795.725 195.452 795.857 195.236C796.001 195.02 796.073 194.786 796.073 194.534C796.073 194.162 795.983 193.88 795.803 193.688C795.635 193.496 795.383 193.346 795.047 193.238C794.711 193.118 794.303 193.016 793.823 192.932C793.427 192.86 793.037 192.764 792.653 192.644C792.269 192.524 791.927 192.368 791.627 192.176C791.327 191.972 791.087 191.726 790.907 191.438C790.739 191.15 790.655 190.796 790.655 190.376C790.655 189.86 790.787 189.404 791.051 189.008C791.315 188.6 791.693 188.282 792.185 188.054C792.689 187.826 793.271 187.712 793.931 187.712C794.903 187.712 795.689 187.946 796.289 188.414C796.889 188.882 797.243 189.56 797.351 190.448H795.857C795.797 189.992 795.599 189.638 795.263 189.386C794.939 189.122 794.489 188.99 793.913 188.99C793.349 188.99 792.917 189.104 792.617 189.332C792.329 189.56 792.185 189.86 792.185 190.232C792.185 190.472 792.263 190.688 792.419 190.88C792.587 191.06 792.827 191.216 793.139 191.348C793.463 191.48 793.859 191.588 794.327 191.672C794.927 191.78 795.473 191.924 795.965 192.104C796.457 192.284 796.853 192.554 797.153 192.914C797.465 193.262 797.621 193.76 797.621 194.408C797.621 194.972 797.477 195.464 797.189 195.884C796.913 196.304 796.517 196.634 796.001 196.874C795.485 197.102 794.879 197.216 794.183 197.216ZM799.942 197V187.928H801.454V197H799.942ZM800.698 186.002C800.398 186.002 800.146 185.906 799.942 185.714C799.75 185.51 799.654 185.258 799.654 184.958C799.654 184.658 799.75 184.418 799.942 184.238C800.146 184.046 800.398 183.95 800.698 183.95C800.986 183.95 801.232 184.046 801.436 184.238C801.64 184.418 801.742 184.658 801.742 184.958C801.742 185.258 801.64 185.51 801.436 185.714C801.232 185.906 800.986 186.002 800.698 186.002ZM807.542 197.216C806.786 197.216 806.126 197.09 805.562 196.838C805.01 196.586 804.566 196.238 804.23 195.794C803.906 195.338 803.708 194.804 803.636 194.192H805.184C805.244 194.504 805.37 194.792 805.562 195.056C805.754 195.32 806.012 195.536 806.336 195.704C806.672 195.86 807.08 195.938 807.56 195.938C807.98 195.938 808.328 195.878 808.604 195.758C808.88 195.626 809.084 195.452 809.216 195.236C809.36 195.02 809.432 194.786 809.432 194.534C809.432 194.162 809.342 193.88 809.162 193.688C808.994 193.496 808.742 193.346 808.406 193.238C808.07 193.118 807.662 193.016 807.182 192.932C806.786 192.86 806.396 192.764 806.012 192.644C805.628 192.524 805.286 192.368 804.986 192.176C804.686 191.972 804.446 191.726 804.266 191.438C804.098 191.15 804.014 190.796 804.014 190.376C804.014 189.86 804.146 189.404 804.41 189.008C804.674 188.6 805.052 188.282 805.544 188.054C806.048 187.826 806.63 187.712 807.29 187.712C808.262 187.712 809.048 187.946 809.648 188.414C810.248 188.882 810.602 189.56 810.71 190.448H809.216C809.156 189.992 808.958 189.638 808.622 189.386C808.298 189.122 807.848 188.99 807.272 188.99C806.708 188.99 806.276 189.104 805.976 189.332C805.688 189.56 805.544 189.86 805.544 190.232C805.544 190.472 805.622 190.688 805.778 190.88C805.946 191.06 806.186 191.216 806.498 191.348C806.822 191.48 807.218 191.588 807.686 191.672C808.286 191.78 808.832 191.924 809.324 192.104C809.816 192.284 810.212 192.554 810.512 192.914C810.824 193.262 810.98 193.76 810.98 194.408C810.98 194.972 810.836 195.464 810.548 195.884C810.272 196.304 809.876 196.634 809.36 196.874C808.844 197.102 808.238 197.216 807.542 197.216Z" fill="#DFDF00"/>
<path d="M293.677 37V23H298.357C299.984 23 301.324 23.2933 302.377 23.88C303.444 24.4533 304.23 25.2667 304.737 26.32C305.257 27.36 305.517 28.5867 305.517 30C305.517 31.4133 305.257 32.6467 304.737 33.7C304.23 34.74 303.45 35.5533 302.397 36.14C301.344 36.7133 299.997 37 298.357 37H293.677ZM296.377 34.68H298.217C299.364 34.68 300.264 34.4933 300.917 34.12C301.584 33.7467 302.057 33.2133 302.337 32.52C302.617 31.8133 302.757 30.9733 302.757 30C302.757 29.0133 302.617 28.1733 302.337 27.48C302.057 26.7733 301.584 26.2333 300.917 25.86C300.264 25.4867 299.364 25.3 298.217 25.3H296.377V34.68ZM307.818 37V26.92H310.518V37H307.818ZM309.178 25.54C308.698 25.54 308.298 25.4 307.978 25.12C307.671 24.8267 307.518 24.46 307.518 24.02C307.518 23.58 307.671 23.22 307.978 22.94C308.298 22.6467 308.698 22.5 309.178 22.5C309.671 22.5 310.071 22.6467 310.378 22.94C310.698 23.22 310.858 23.58 310.858 24.02C310.858 24.46 310.698 24.8267 310.378 25.12C310.071 25.4 309.671 25.54 309.178 25.54ZM316.646 37.24C315.806 37.24 315.112 37.1067 314.566 36.84C314.019 36.56 313.612 36.1933 313.346 35.74C313.092 35.2733 312.966 34.76 312.966 34.2C312.966 33.5867 313.119 33.0467 313.426 32.58C313.746 32.1133 314.219 31.7467 314.846 31.48C315.486 31.2133 316.286 31.08 317.246 31.08H319.746C319.746 30.5867 319.679 30.18 319.546 29.86C319.412 29.5267 319.206 29.28 318.926 29.12C318.646 28.96 318.272 28.88 317.806 28.88C317.299 28.88 316.866 28.9933 316.506 29.22C316.159 29.4333 315.946 29.7667 315.866 30.22H313.246C313.312 29.5 313.546 28.88 313.946 28.36C314.359 27.8267 314.899 27.4133 315.566 27.12C316.246 26.8267 316.999 26.68 317.826 26.68C318.772 26.68 319.592 26.84 320.286 27.16C320.979 27.48 321.512 27.94 321.886 28.54C322.259 29.14 322.446 29.88 322.446 30.76V37H320.166L319.866 35.46C319.719 35.7267 319.546 35.9667 319.346 36.18C319.146 36.3933 318.912 36.58 318.646 36.74C318.379 36.9 318.079 37.02 317.746 37.1C317.412 37.1933 317.046 37.24 316.646 37.24ZM317.286 35.16C317.632 35.16 317.939 35.1 318.206 34.98C318.486 34.8467 318.726 34.6733 318.926 34.46C319.126 34.2333 319.279 33.98 319.386 33.7C319.506 33.4067 319.586 33.0933 319.626 32.76V32.74H317.566C317.152 32.74 316.812 32.7933 316.546 32.9C316.292 32.9933 316.106 33.1333 315.986 33.32C315.866 33.5067 315.806 33.72 315.806 33.96C315.806 34.2267 315.866 34.4467 315.986 34.62C316.106 34.7933 316.279 34.9267 316.506 35.02C316.732 35.1133 316.992 35.16 317.286 35.16ZM324.965 37V26.92H327.365L327.625 28.78C327.865 28.34 328.165 27.9667 328.525 27.66C328.898 27.3533 329.318 27.1133 329.785 26.94C330.265 26.7667 330.791 26.68 331.365 26.68V29.54H330.445C330.045 29.54 329.671 29.5867 329.325 29.68C328.991 29.7733 328.698 29.9267 328.445 30.14C328.191 30.34 327.998 30.62 327.865 30.98C327.731 31.34 327.665 31.7933 327.665 32.34V37H324.965ZM334.428 41.4L336.868 35.88H336.268L332.228 26.92H335.168L338.048 33.42L340.648 26.92H343.508L337.288 41.4H334.428ZM354.805 37.24C353.792 37.24 352.885 37.0667 352.085 36.72C351.299 36.3733 350.672 35.8667 350.205 35.2C349.752 34.5333 349.519 33.7267 349.505 32.78H352.365C352.379 33.1933 352.485 33.5667 352.685 33.9C352.885 34.2333 353.159 34.5 353.505 34.7C353.865 34.8867 354.292 34.98 354.785 34.98C355.212 34.98 355.579 34.9133 355.885 34.78C356.205 34.6333 356.452 34.4333 356.625 34.18C356.799 33.9267 356.885 33.6267 356.885 33.28C356.885 32.88 356.785 32.5467 356.585 32.28C356.399 32.0133 356.132 31.7867 355.785 31.6C355.452 31.4133 355.059 31.2467 354.605 31.1C354.165 30.94 353.699 30.7733 353.205 30.6C352.099 30.24 351.252 29.76 350.665 29.16C350.092 28.56 349.805 27.7667 349.805 26.78C349.805 25.94 350.005 25.22 350.405 24.62C350.819 24.02 351.385 23.56 352.105 23.24C352.825 22.92 353.645 22.76 354.565 22.76C355.512 22.76 356.339 22.9267 357.045 23.26C357.765 23.58 358.332 24.0467 358.745 24.66C359.172 25.2733 359.392 25.9933 359.405 26.82H356.525C356.512 26.5133 356.419 26.2267 356.245 25.96C356.085 25.68 355.859 25.46 355.565 25.3C355.272 25.1267 354.925 25.04 354.525 25.04C354.179 25.0267 353.859 25.08 353.565 25.2C353.285 25.32 353.059 25.5 352.885 25.74C352.725 25.9667 352.645 26.2533 352.645 26.6C352.645 26.9333 352.725 27.2133 352.885 27.44C353.059 27.6667 353.292 27.8667 353.585 28.04C353.879 28.2 354.225 28.3533 354.625 28.5C355.025 28.6333 355.459 28.7733 355.925 28.92C356.619 29.16 357.259 29.4467 357.845 29.78C358.432 30.1 358.899 30.52 359.245 31.04C359.592 31.56 359.765 32.2467 359.765 33.1C359.765 33.8333 359.572 34.5133 359.185 35.14C358.799 35.7667 358.239 36.2733 357.505 36.66C356.785 37.0467 355.885 37.24 354.805 37.24ZM366.536 37C365.829 37 365.209 36.8933 364.676 36.68C364.156 36.4533 363.749 36.0867 363.456 35.58C363.162 35.06 363.016 34.3533 363.016 33.46V29.18H361.296V26.92H363.016L363.316 24.18H365.716V26.92H368.376V29.18H365.716V33.5C365.716 33.9533 365.816 34.2667 366.016 34.44C366.216 34.6133 366.556 34.7 367.036 34.7H368.356V37H366.536ZM374.408 37.24C373.595 37.24 372.895 37.0733 372.308 36.74C371.735 36.3933 371.295 35.8933 370.988 35.24C370.681 34.5733 370.528 33.7533 370.528 32.78V26.92H373.228V32.5C373.228 33.3133 373.395 33.9267 373.728 34.34C374.075 34.7533 374.601 34.96 375.308 34.96C375.761 34.96 376.161 34.86 376.508 34.66C376.855 34.4467 377.128 34.1467 377.328 33.76C377.541 33.36 377.648 32.8733 377.648 32.3V26.92H380.328V37H377.968L377.748 35.36C377.455 35.9333 377.021 36.3933 376.448 36.74C375.875 37.0733 375.195 37.24 374.408 37.24ZM387.452 37.24C386.532 37.24 385.706 37.0133 384.972 36.56C384.252 36.1067 383.686 35.48 383.272 34.68C382.859 33.88 382.652 32.98 382.652 31.98C382.652 30.9533 382.859 30.0467 383.272 29.26C383.699 28.46 384.279 27.8333 385.012 27.38C385.759 26.9133 386.592 26.68 387.512 26.68C388.232 26.68 388.866 26.8133 389.412 27.08C389.959 27.3467 390.399 27.7267 390.732 28.22V22.6H393.432V37H391.032L390.732 35.62C390.532 35.9 390.279 36.1667 389.972 36.42C389.679 36.6733 389.326 36.8733 388.912 37.02C388.499 37.1667 388.012 37.24 387.452 37.24ZM388.092 34.88C388.626 34.88 389.092 34.76 389.492 34.52C389.906 34.2667 390.226 33.92 390.452 33.48C390.679 33.04 390.792 32.5333 390.792 31.96C390.792 31.3867 390.679 30.88 390.452 30.44C390.226 30 389.906 29.66 389.492 29.42C389.092 29.1667 388.626 29.04 388.092 29.04C387.586 29.04 387.126 29.1667 386.712 29.42C386.299 29.66 385.972 30 385.732 30.44C385.506 30.88 385.392 31.38 385.392 31.94C385.392 32.5267 385.506 33.04 385.732 33.48C385.972 33.92 386.292 34.2667 386.692 34.52C387.106 34.76 387.572 34.88 388.092 34.88ZM397.358 41.4L399.798 35.88H399.198L395.158 26.92H398.098L400.978 33.42L403.578 26.92H406.438L400.218 41.4H397.358ZM408.828 37.1C408.495 37.1 408.215 36.9933 407.988 36.78C407.775 36.5533 407.668 36.28 407.668 35.96C407.668 35.64 407.775 35.3733 407.988 35.16C408.215 34.9333 408.495 34.82 408.828 34.82C409.161 34.82 409.435 34.9333 409.648 35.16C409.861 35.3733 409.968 35.64 409.968 35.96C409.968 36.28 409.861 36.5533 409.648 36.78C409.435 36.9933 409.161 37.1 408.828 37.1ZM408.828 28.96C408.495 28.96 408.215 28.8533 407.988 28.64C407.775 28.4133 407.668 28.14 407.668 27.82C407.668 27.5 407.775 27.2333 407.988 27.02C408.215 26.7933 408.495 26.68 408.828 26.68C409.161 26.68 409.435 26.7933 409.648 27.02C409.861 27.2333 409.968 27.5 409.968 27.82C409.968 28.14 409.861 28.4133 409.648 28.64C409.435 28.8533 409.161 28.96 408.828 28.96ZM420.964 37V24.38H416.784V23H426.824V24.38H422.644V37H420.964ZM428.955 37V26.92H430.635V37H428.955ZM429.795 24.78C429.461 24.78 429.181 24.6733 428.955 24.46C428.741 24.2333 428.635 23.9533 428.635 23.62C428.635 23.2867 428.741 23.02 428.955 22.82C429.181 22.6067 429.461 22.5 429.795 22.5C430.115 22.5 430.388 22.6067 430.615 22.82C430.841 23.02 430.955 23.2867 430.955 23.62C430.955 23.9533 430.841 24.2333 430.615 24.46C430.388 24.6733 430.115 24.78 429.795 24.78ZM433.599 37V26.92H435.119L435.219 28.36C435.539 27.84 435.966 27.4333 436.499 27.14C437.046 26.8333 437.639 26.68 438.279 26.68C438.799 26.68 439.266 26.7533 439.679 26.9C440.106 27.0333 440.479 27.2467 440.799 27.54C441.119 27.82 441.379 28.18 441.579 28.62C441.926 28.0067 442.399 27.5333 442.999 27.2C443.613 26.8533 444.266 26.68 444.959 26.68C445.733 26.68 446.406 26.84 446.979 27.16C447.566 27.4667 448.013 27.94 448.319 28.58C448.639 29.2067 448.799 30.0067 448.799 30.98V37H447.139V31.16C447.139 30.1467 446.933 29.3867 446.519 28.88C446.106 28.3733 445.526 28.12 444.779 28.12C444.259 28.12 443.793 28.26 443.379 28.54C442.966 28.8067 442.639 29.2 442.399 29.72C442.159 30.24 442.039 30.88 442.039 31.64V37H440.359V31.16C440.359 30.1467 440.153 29.3867 439.739 28.88C439.326 28.3733 438.739 28.12 437.979 28.12C437.473 28.12 437.013 28.26 436.599 28.54C436.199 28.8067 435.879 29.2 435.639 29.72C435.399 30.24 435.279 30.88 435.279 31.64V37H433.599ZM455.832 37.24C454.885 37.24 454.045 37.02 453.312 36.58C452.592 36.14 452.025 35.5267 451.612 34.74C451.198 33.94 450.992 33.0133 450.992 31.96C450.992 30.8933 451.192 29.9667 451.592 29.18C452.005 28.3933 452.578 27.78 453.312 27.34C454.058 26.9 454.912 26.68 455.872 26.68C456.858 26.68 457.692 26.9 458.372 27.34C459.065 27.78 459.592 28.36 459.952 29.08C460.325 29.7867 460.512 30.5667 460.512 31.42C460.512 31.5533 460.512 31.6933 460.512 31.84C460.512 31.9867 460.505 32.1533 460.492 32.34H452.252V31.04H458.872C458.832 30.12 458.525 29.4 457.952 28.88C457.392 28.36 456.685 28.1 455.832 28.1C455.258 28.1 454.725 28.2333 454.232 28.5C453.752 28.7533 453.365 29.1333 453.072 29.64C452.778 30.1333 452.632 30.7533 452.632 31.5V32.06C452.632 32.8867 452.778 33.58 453.072 34.14C453.378 34.7 453.772 35.12 454.252 35.4C454.745 35.68 455.272 35.82 455.832 35.82C456.538 35.82 457.118 35.6667 457.572 35.36C458.038 35.04 458.372 34.6133 458.572 34.08H460.232C460.072 34.68 459.792 35.22 459.392 35.7C458.992 36.18 458.492 36.56 457.892 36.84C457.305 37.1067 456.618 37.24 455.832 37.24ZM462.779 37V22.6H464.459V37H462.779ZM467.392 37V26.92H469.072V37H467.392ZM468.232 24.78C467.899 24.78 467.619 24.6733 467.392 24.46C467.179 24.2333 467.072 23.9533 467.072 23.62C467.072 23.2867 467.179 23.02 467.392 22.82C467.619 22.6067 467.899 22.5 468.232 22.5C468.552 22.5 468.825 22.6067 469.052 22.82C469.279 23.02 469.392 23.2867 469.392 23.62C469.392 23.9533 469.279 24.2333 469.052 24.46C468.825 24.6733 468.552 24.78 468.232 24.78ZM472.037 37V26.92H473.557L473.637 28.68C473.957 28.0533 474.41 27.5667 474.997 27.22C475.597 26.86 476.277 26.68 477.037 26.68C477.823 26.68 478.503 26.84 479.077 27.16C479.65 27.4667 480.097 27.94 480.417 28.58C480.737 29.2067 480.897 30.0067 480.897 30.98V37H479.217V31.16C479.217 30.1467 478.99 29.3867 478.537 28.88C478.097 28.3733 477.47 28.12 476.657 28.12C476.097 28.12 475.597 28.26 475.157 28.54C474.717 28.8067 474.363 29.2 474.097 29.72C473.843 30.2267 473.717 30.86 473.717 31.62V37H472.037ZM487.941 37.24C486.994 37.24 486.154 37.02 485.421 36.58C484.701 36.14 484.134 35.5267 483.721 34.74C483.308 33.94 483.101 33.0133 483.101 31.96C483.101 30.8933 483.301 29.9667 483.701 29.18C484.114 28.3933 484.688 27.78 485.421 27.34C486.168 26.9 487.021 26.68 487.981 26.68C488.968 26.68 489.801 26.9 490.481 27.34C491.174 27.78 491.701 28.36 492.061 29.08C492.434 29.7867 492.621 30.5667 492.621 31.42C492.621 31.5533 492.621 31.6933 492.621 31.84C492.621 31.9867 492.614 32.1533 492.601 32.34H484.361V31.04H490.981C490.941 30.12 490.634 29.4 490.061 28.88C489.501 28.36 488.794 28.1 487.941 28.1C487.368 28.1 486.834 28.2333 486.341 28.5C485.861 28.7533 485.474 29.1333 485.181 29.64C484.888 30.1333 484.741 30.7533 484.741 31.5V32.06C484.741 32.8867 484.888 33.58 485.181 34.14C485.488 34.7 485.881 35.12 486.361 35.4C486.854 35.68 487.381 35.82 487.941 35.82C488.648 35.82 489.228 35.6667 489.681 35.36C490.148 35.04 490.481 34.6133 490.681 34.08H492.341C492.181 34.68 491.901 35.22 491.501 35.7C491.101 36.18 490.601 36.56 490.001 36.84C489.414 37.1067 488.728 37.24 487.941 37.24ZM504.701 37.24C503.767 37.24 502.927 37.0267 502.181 36.6C501.434 36.16 500.847 35.5467 500.421 34.76C499.994 33.96 499.781 33.0333 499.781 31.98C499.781 30.9 499.994 29.9667 500.421 29.18C500.861 28.38 501.454 27.7667 502.201 27.34C502.961 26.9 503.807 26.68 504.741 26.68C505.701 26.68 506.547 26.9 507.281 27.34C508.027 27.7667 508.614 28.38 509.041 29.18C509.481 29.9667 509.701 30.8933 509.701 31.96C509.701 33.0267 509.481 33.96 509.041 34.76C508.601 35.5467 508.007 36.16 507.261 36.6C506.514 37.0267 505.661 37.24 504.701 37.24ZM504.721 35.8C505.294 35.8 505.827 35.66 506.321 35.38C506.814 35.0867 507.214 34.6533 507.521 34.08C507.827 33.5067 507.981 32.8 507.981 31.96C507.981 31.1067 507.827 30.4 507.521 29.84C507.227 29.2667 506.834 28.84 506.341 28.56C505.861 28.2667 505.327 28.12 504.741 28.12C504.181 28.12 503.647 28.2667 503.141 28.56C502.647 28.84 502.247 29.2667 501.941 29.84C501.647 30.4 501.501 31.1067 501.501 31.96C501.501 32.8 501.647 33.5067 501.941 34.08C502.247 34.6533 502.641 35.0867 503.121 35.38C503.614 35.66 504.147 35.8 504.721 35.8ZM512.616 37V25.36C512.616 24.72 512.723 24.2 512.936 23.8C513.15 23.3867 513.463 23.0867 513.876 22.9C514.303 22.7 514.823 22.6 515.436 22.6H516.576V24.04H515.696C515.203 24.04 514.843 24.14 514.616 24.34C514.403 24.54 514.296 24.8933 514.296 25.4V37H512.616ZM511.076 28.34V26.92H516.836V28.34H511.076ZM523.366 37L528.526 23H530.306L535.446 37H533.666L529.406 25.1L525.126 37H523.366ZM525.726 33.4L526.206 32.04H532.546L533.026 33.4H525.726ZM541.44 37.24C540.493 37.24 539.64 37.02 538.88 36.58C538.133 36.14 537.547 35.5267 537.12 34.74C536.693 33.94 536.48 33.02 536.48 31.98C536.48 30.9133 536.693 29.9867 537.12 29.2C537.547 28.4133 538.133 27.8 538.88 27.36C539.64 26.9067 540.493 26.68 541.44 26.68C542.64 26.68 543.64 26.9933 544.44 27.62C545.24 28.2333 545.747 29.06 545.96 30.1H544.24C544.107 29.4733 543.78 28.9867 543.26 28.64C542.74 28.2933 542.127 28.12 541.42 28.12C540.847 28.12 540.313 28.2667 539.82 28.56C539.327 28.84 538.933 29.2667 538.64 29.84C538.347 30.4133 538.2 31.12 538.2 31.96C538.2 32.5867 538.287 33.1467 538.46 33.64C538.633 34.12 538.867 34.52 539.16 34.84C539.453 35.16 539.793 35.4067 540.18 35.58C540.58 35.74 540.993 35.82 541.42 35.82C541.9 35.82 542.333 35.7467 542.72 35.6C543.107 35.44 543.433 35.2067 543.7 34.9C543.967 34.5933 544.147 34.2333 544.24 33.82H545.96C545.747 34.8333 545.233 35.66 544.42 36.3C543.62 36.9267 542.627 37.24 541.44 37.24ZM552.032 37C551.432 37 550.912 36.9067 550.472 36.72C550.032 36.5333 549.692 36.22 549.452 35.78C549.225 35.3267 549.112 34.72 549.112 33.96V28.34H547.352V26.92H549.112L549.332 24.48H550.792V26.92H553.712V28.34H550.792V33.96C550.792 34.5867 550.919 35.0133 551.172 35.24C551.425 35.4533 551.872 35.56 552.512 35.56H553.592V37H552.032ZM556.064 37V26.92H557.744V37H556.064ZM556.904 24.78C556.571 24.78 556.291 24.6733 556.064 24.46C555.851 24.2333 555.744 23.9533 555.744 23.62C555.744 23.2867 555.851 23.02 556.064 22.82C556.291 22.6067 556.571 22.5 556.904 22.5C557.224 22.5 557.497 22.6067 557.724 22.82C557.951 23.02 558.064 23.2867 558.064 23.62C558.064 23.9533 557.951 24.2333 557.724 24.46C557.497 24.6733 557.224 24.78 556.904 24.78ZM563.609 37L559.789 26.92H561.549L564.589 35.38L567.649 26.92H569.369L565.549 37H563.609ZM571.415 37V26.92H573.095V37H571.415ZM572.255 24.78C571.922 24.78 571.642 24.6733 571.415 24.46C571.202 24.2333 571.095 23.9533 571.095 23.62C571.095 23.2867 571.202 23.02 571.415 22.82C571.642 22.6067 571.922 22.5 572.255 22.5C572.575 22.5 572.849 22.6067 573.075 22.82C573.302 23.02 573.415 23.2867 573.415 23.62C573.415 23.9533 573.302 24.2333 573.075 24.46C572.849 24.6733 572.575 24.78 572.255 24.78ZM580.02 37C579.42 37 578.9 36.9067 578.46 36.72C578.02 36.5333 577.68 36.22 577.44 35.78C577.213 35.3267 577.1 34.72 577.1 33.96V28.34H575.34V26.92H577.1L577.32 24.48H578.78V26.92H581.7V28.34H578.78V33.96C578.78 34.5867 578.907 35.0133 579.16 35.24C579.413 35.4533 579.86 35.56 580.5 35.56H581.58V37H580.02ZM584.052 37V26.92H585.732V37H584.052ZM584.892 24.78C584.559 24.78 584.279 24.6733 584.052 24.46C583.839 24.2333 583.732 23.9533 583.732 23.62C583.732 23.2867 583.839 23.02 584.052 22.82C584.279 22.6067 584.559 22.5 584.892 22.5C585.212 22.5 585.486 22.6067 585.712 22.82C585.939 23.02 586.052 23.2867 586.052 23.62C586.052 23.9533 585.939 24.2333 585.712 24.46C585.486 24.6733 585.212 24.78 584.892 24.78ZM593.117 37.24C592.17 37.24 591.33 37.02 590.597 36.58C589.877 36.14 589.31 35.5267 588.897 34.74C588.484 33.94 588.277 33.0133 588.277 31.96C588.277 30.8933 588.477 29.9667 588.877 29.18C589.29 28.3933 589.864 27.78 590.597 27.34C591.344 26.9 592.197 26.68 593.157 26.68C594.144 26.68 594.977 26.9 595.657 27.34C596.35 27.78 596.877 28.36 597.237 29.08C597.61 29.7867 597.797 30.5667 597.797 31.42C597.797 31.5533 597.797 31.6933 597.797 31.84C597.797 31.9867 597.79 32.1533 597.777 32.34H589.537V31.04H596.157C596.117 30.12 595.81 29.4 595.237 28.88C594.677 28.36 593.97 28.1 593.117 28.1C592.544 28.1 592.01 28.2333 591.517 28.5C591.037 28.7533 590.65 29.1333 590.357 29.64C590.064 30.1333 589.917 30.7533 589.917 31.5V32.06C589.917 32.8867 590.064 33.58 590.357 34.14C590.664 34.7 591.057 35.12 591.537 35.4C592.03 35.68 592.557 35.82 593.117 35.82C593.824 35.82 594.404 35.6667 594.857 35.36C595.324 35.04 595.657 34.6133 595.857 34.08H597.517C597.357 34.68 597.077 35.22 596.677 35.7C596.277 36.18 595.777 36.56 595.177 36.84C594.59 37.1067 593.904 37.24 593.117 37.24ZM603.864 37.24C603.024 37.24 602.291 37.1 601.664 36.82C601.051 36.54 600.557 36.1533 600.184 35.66C599.824 35.1533 599.604 34.56 599.524 33.88H601.244C601.311 34.2267 601.451 34.5467 601.664 34.84C601.877 35.1333 602.164 35.3733 602.524 35.56C602.897 35.7333 603.351 35.82 603.884 35.82C604.351 35.82 604.737 35.7533 605.044 35.62C605.351 35.4733 605.577 35.28 605.724 35.04C605.884 34.8 605.964 34.54 605.964 34.26C605.964 33.8467 605.864 33.5333 605.664 33.32C605.477 33.1067 605.197 32.94 604.824 32.82C604.451 32.6867 603.997 32.5733 603.464 32.48C603.024 32.4 602.591 32.2933 602.164 32.16C601.737 32.0267 601.357 31.8533 601.024 31.64C600.691 31.4133 600.424 31.14 600.224 30.82C600.037 30.5 599.944 30.1067 599.944 29.64C599.944 29.0667 600.091 28.56 600.384 28.12C600.677 27.6667 601.097 27.3133 601.644 27.06C602.204 26.8067 602.851 26.68 603.584 26.68C604.664 26.68 605.537 26.94 606.204 27.46C606.871 27.98 607.264 28.7333 607.384 29.72H605.724C605.657 29.2133 605.437 28.82 605.064 28.54C604.704 28.2467 604.204 28.1 603.564 28.1C602.937 28.1 602.457 28.2267 602.124 28.48C601.804 28.7333 601.644 29.0667 601.644 29.48C601.644 29.7467 601.731 29.9867 601.904 30.2C602.091 30.4 602.357 30.5733 602.704 30.72C603.064 30.8667 603.504 30.9867 604.024 31.08C604.691 31.2 605.297 31.36 605.844 31.56C606.391 31.76 606.831 32.06 607.164 32.46C607.511 32.8467 607.684 33.4 607.684 34.12C607.684 34.7467 607.524 35.2933 607.204 35.76C606.897 36.2267 606.457 36.5933 605.884 36.86C605.311 37.1133 604.637 37.24 603.864 37.24Z" fill="black"/>
</svg>
