<svg width="605" height="109" viewBox="0 0 605 109" fill="none" xmlns="http://www.w3.org/2000/svg">
<rect x="600.84" y="2.64387e-05" width="15.4791" height="70.1873" rx="2" transform="rotate(75 600.84 2.64387e-05)" fill="#1600FF"/>
<rect x="537.841" y="32.7012" width="15.4791" height="70.1873" rx="2" transform="rotate(75 537.841 32.7012)" fill="white"/>
<rect x="135.491" y="76.3136" width="14.4791" height="69.1873" rx="1.5" transform="rotate(75 135.491 76.3136)" stroke="white"/>
<rect x="279.851" y="77.5342" width="15.4791" height="70.1873" rx="2" transform="rotate(103.876 279.851 77.5342)" fill="white"/>
<rect x="71.8507" y="78.5342" width="15.4791" height="70.1873" rx="2" transform="rotate(103.876 71.8507 78.5342)" fill="white"/>
<rect x="475.441" y="66.3775" width="14.7791" height="69.4873" rx="1.65" transform="rotate(99.3371 475.441 66.3775)" stroke="white" stroke-width="0.7"/>
<rect x="341.156" y="43.1372" width="14.7791" height="69.4873" rx="1.65" transform="rotate(73.248 341.156 43.1372)" stroke="white" stroke-width="0.7"/>
<rect x="411.843" y="39.0889" width="15.4791" height="70.1873" rx="2" transform="rotate(99.3371 411.843 39.0889)" fill="#1600FF"/>
<rect x="207.851" y="78.1436" width="15.4791" height="70.1873" rx="2" transform="rotate(105.234 207.851 78.1436)" fill="#1600FF"/>
<rect x="569.832" y="39.2599" width="14.3" height="28.3" rx="1.65" transform="rotate(75.6263 569.832 39.2599)" stroke="white" stroke-width="0.7"/>
<rect x="217.418" y="46.8776" width="14.3" height="28.3" rx="1.65" transform="rotate(105.881 217.418 46.8776)" stroke="white" stroke-width="0.7"/>
</svg>
